/* XPM */
static char *_039eb23dc42419f89e02032cdc87fb1xnvieVlscVE1Omoe[] = {
/* columns rows colors chars-per-pixel */
"60 60 241 2 ",
"   c #28292B",
".  c #1C1D1F",
"X  c #1D1E1F",
"o  c #1A1B1D",
"O  c #121415",
"+  c #1E1E21",
"@  c #17171A",
"#  c #1A1B1C",
"$  c #18191A",
"%  c #1B1C1D",
"&  c #1E1F20",
"*  c #191A1C",
"=  c #1C1D21",
"-  c #1D1D20",
";  c #1D1D21",
":  c #0E0F11",
">  c #131416",
",  c #161718",
"<  c #191A1B",
"1  c #0F1011",
"2  c #080809",
"3  c #1B1B1E",
"4  c #1C1D20",
"5  c #121313",
"6  c #1D1E20",
"7  c #171819",
"8  c #1C1C20",
"9  c #191A1D",
"0  c #08090B",
"q  c #1E1F21",
"w  c #232427",
"e  c #222326",
"r  c #202123",
"t  c #101011",
"y  c #1A1A1C",
"u  c #1C1D1E",
"i  c #0F0F11",
"p  c #1D1E21",
"a  c #18191C",
"s  c #36373A",
"d  c #1A1B1E",
"f  c #16171A",
"g  c #1B1C1E",
"h  c #131417",
"j  c #1C1C1F",
"k  c #18191B",
"l  c #1E1F22",
"z  c #141517",
"x  c #0E0D0F",
"c  c #131314",
"v  c #0E0F10",
"b  c #1B1C1F",
"n  c #101113",
"m  c #222426",
"M  c #212224",
"N  c #181A1C",
"B  c #141518",
"V  c #1A1A1D",
"C  c #17181A",
"Z  c #121314",
"A  c #121316",
"S  c #07090A",
"D  c #141516",
"F  c #1E1E22",
"G  c #131316",
"H  c #121114",
"J  c #1D1E22",
"K  c #111214",
"L  c #0C0D0F",
"P  c #0E1011",
"I  c #1C1C1E",
"U  c #151616",
"Y  c #212225",
"T  c #19191C",
"R  c #121315",
"E  c #161719",
"W  c #1F1F22",
"Q  c #0B0C0E",
"!  c #131415",
"~  c #191B1E",
"^  c #151619",
"/  c #0D0E0F",
"(  c #151617",
")  c #0C0C0D",
"_  c #0A0B0B",
"`  c #17171B",
"'  c #17181B",
"]  c #090B0B",
"[  c #0F0F12",
"{  c #101111",
"}  c #1A1A1E",
"|  c #151516",
" . c #121215",
".. c #040506",
"X. c #1B1C20",
"o. c #101112",
"O. c #0E0E10",
"+. c #131315",
"@. c #1D1F20",
"#. c #0C0D0E",
"$. c #171719",
"%. c #111213",
"&. c #141416",
"*. c #070708",
"=. c #121214",
"-. c #1F2023",
";. c #1E2022",
":. c #202124",
">. c #151517",
",. c #0C0C0E",
"<. c #151518",
"1. c #18181B",
"2. c #1C1E20",
"3. c #161619",
"4. c #1D1F21",
"5. c #1D1D1F",
"6. c #19181B",
"7. c #18181A",
"8. c #1F2024",
"9. c #19191D",
"0. c #1F1F23",
"q. c #080909",
"w. c #1B1B1F",
"e. c #08080A",
"r. c #090A0B",
"t. c #040304",
"y. c #111314",
"u. c #171718",
"i. c #1F2021",
"p. c #212124",
"a. c #0F0F10",
"s. c #1A1B1F",
"d. c #0D0D0F",
"f. c #141417",
"g. c #171919",
"h. c #111313",
"j. c #19191B",
"k. c #131215",
"l. c #1C1B1F",
"z. c #222325",
"x. c #191B1D",
"c. c #0E0F0F",
"v. c #0F1012",
"b. c #151618",
"n. c #0F1112",
"m. c #0B0C0D",
"M. c #1C1E21",
"N. c #171619",
"B. c #1A1C1E",
"V. c #111215",
"C. c #1B1B1D",
"Z. c #0E0E11",
"A. c #161618",
"S. c #18181C",
"D. c #1E1F23",
"F. c #202024",
"G. c #1E1E20",
"H. c #101012",
"J. c #181A1A",
"K. c #181A1B",
"L. c #0C0D0D",
"P. c #111112",
"I. c #1B1D1F",
"U. c #09090A",
"Y. c #0F0E0F",
"T. c #131517",
"R. c #070809",
"E. c black",
"W. c #222225",
"Q. c gray5",
"!. c #040404",
"~. c #040405",
"^. c #000100",
"/. c #232326",
"(. c gray1",
"). c #060607",
"_. c #1F1F21",
"`. c #0B0B0D",
"'. c #0D0E0E",
"]. c #0D0D10",
"[. c #1E2023",
"{. c gray4",
"}. c #141415",
"|. c #1B1D20",
" X c #08090A",
".X c #0D0E10",
"XX c #181819",
"oX c #111114",
"OX c #101114",
"+X c #121414",
"@X c #060606",
"#X c #0D0C0E",
"$X c #141316",
"%X c #0D0D0E",
"&X c #17191B",
"*X c #1A1C1D",
"=X c #1A1A1B",
"-X c #0E1010",
";X c #1C1C1D",
":X c #1A1C1C",
">X c #191B1C",
",X c #1E1D20",
"<X c #141315",
"1X c #0A0B0C",
"2X c #090A0A",
"3X c #161819",
"4X c #131516",
"5X c #141616",
"6X c #050607",
"7X c #09090C",
"8X c #070707",
"9X c #1F2123",
"0X c #070709",
"qX c #010101",
"wX c #0F1013",
"eX c #121213",
"rX c #070908",
"tX c #0B0B0C",
"yX c #242528",
"uX c #121112",
"iX c #111113",
"pX c #0F1111",
"aX c #1A191C",
"sX c #212125",
"dX c #0E0F12",
"fX c #111012",
"gX c #222327",
"hX c #202225",
"jX c #1B1D1E",
"kX c #16181A",
"lX c #080A0B",
"zX c #0E0E0F",
"xX c #0A0A0B",
"cX c #161617",
"vX c #050506",
"bX c gray2",
"nX c #030305",
"mX c #0B0B0B",
"MX c #141617",
"NX c #2E2F32",
"BX c white",
/* pixels */
"  . X o O . + @ # $ % & % * = - ; : > , X & < 1 2 3 + 4 4 5 $ 6 4 > 7 & 6 8 4 9 0 < q ; 9 @ w e e r t y u % i % 6 p a s ",
"+ d 4 f i g 6 h # 6 . 6 p 6 ; j a : k p p p l z x ; p + + c 5 g a v 3 p p b p b n . p p b b w m w M t o 6 - N p ; ; B f ",
"l p + V C Z Z k . p p 4 p p p p A S D p 4 p F G H j J p p K L p 9 P 6 p p 9 4 I U p p p 4 p Y Y e Y i T p 4 p J 4 @ * a ",
"I F p 4 p R E l W F p p p p p p a Q ! p 4 p F T B ~ 4 p p f ^ p T / - p p ( E 6 4 6 4 p b ^ b l p C ) d F p p 4 k _ # + ",
"3 ` ; 4 ' ] E p - 4 4 p p p p j F [ C 4 F - b + p F 4 p p 4 4 p f { g p p . E . p p p p p b 4 b } b |  .9 j - j $ .., l ",
"- X.d B o.( * b a h d p ; F p 4 + O.+.^ F ; 4 p d p p p b p p 4 4 o . p - p p 6 p p ; p p F F p d . ( N @.a 4 l o #.o.a ",
"$.4 k %.u q p ; p 4 4 4 p p p p F &.*.=.4 - p p p p p + ^ b F ; p p p p 9 * 4 p p p ; p p ; b -.> 1 > ;.-.b :.-.8 n R z ",
">.j d 5 6 + 4 j p p 4 9 9 4 p p F T ,.T ' @ p 4 p 4 4 F d 4 p F l l 9 o E ' ; p <.1.p p 4 4 9 f < g 2.Y Y 3.p :.p 8 - 6 ",
"+ l 4.z 3 F ; 4 b 4 9 -.- 4 p p b d 5.+ 4 b p p p 9 h j p p p l Y . o.$ 3 = F F 6.7.p p p p p - 9 l 8.:.l V a 3 4 p 4 p ",
"+ F l 9 9.a b > g p 4 0.F ; p p 8 b p p p p p p p 4 d 4 p p p l Y ( q.a } b p p w.V p p p p p b E + p p p F 8 4 ; p p l ",
"6 + + 9 4 D i e.C p F p j 4 9 b p ; p p p p p - ' . p 4 p p 4 p :.D r.C b 6 p p p b 9 p p p p 8 R g p p 4 p 4 p p b 9 q ",
"y q F F l &.t.) 1.p F 9.f ; - p p 9 y.* p p p b 9 l p 4 4 f ' F 8 n k 6 4 b p p p ; b p d 6 + F V U 4 p 9 9 F p W 9 h & ",
"u.X l p + &.*.y p - 8 9 a b ; p p T #.D p p p + Y W 4 p p a 3 a b h 8 ; b 8 p p p 9 f l z o 4 l i.v @ + } @ a ; p.-.E @.",
"a.7 b ; p 1.[ 4 s.p b 4 p 4 j p 4 o ! z p p 4 p p 4 d p F F + b ; 9 4 p 4 p j p p b b 9 1 a 4 2.6 d.d p <.f.b p -.:.g.h.",
"j.. 6 p + 8 b J 4 ^ b p V a ^ p p b D <.F p p p 4 p p p 4 B <.4 b + b ; F 4 > 4 p 4 4 6 %.[ =.Z %.k.l.p p p F F 4 z.r =.",
"V + p F 1.8 F p p w.p 4 B b f p p p d 9.F p p p p p p d x.g Z p p p 4 p ; k c.4 p d n g b B z + - 4 4 p - p -.:.e w Y 6.",
"y ; d + v.b.6 p p T p F - } ' p p p p p p p p p p p p d 4 r ! 6 p + p 4 @ n.m.p p + > ( p l p p p M.4 b %.@ :.-.Y e :.N.",
"B.d b -.o.$ p p ; ^ 9 F 4 p w.a ^ 4 p p p p g V 4 b p p d * K 6 p + F 9 m.E v 6 p F k o 4 p p 4 p l l -.z z p b 9 T ( _ ",
"* 4 p l Z p b 4 F 4 E p p p 4 d f j p p p p b 1.d V.3 p 4 9.3 ; b p F b v % ( p p p b 4 p j d 4 p b p Y ' ' F l + p - | ",
"C.- l d n F + 4 F } V p p p l l F p - p p p + 8 9 Z.} p p F F p b B 1.A.v 7 u p p p 4 ' j b 4 + p a l w k d F b a d - +.",
"q p + b a F F @ 3 F F F F l -.l p p 4 d o 4 4 F w.S.8 p p -.d :.-.L < X X X p p p p b ^ f b p p D.B ' k ! g + ' A 9 b j.",
"q 1.b 4 4 F 8 R C F p w.3 F.l p p F 8 ^ %.o.' F F p p -.Y w -.d ( v G.. b.4 p p p p b T O.V F F p K 1 v > 6 p b > 3 F + ",
"I H.A.W F F w.A f 3 b l ' p p 4 b p p + q R v.6 p p p :.w e :.-.k +.6 6 b p p p p p 4 d { D $ C D J.6 p . - p p ; F F G.",
"N.G ) ( b p E k F b d :.9 j p 4 d p p p l K.L.# p p p l F 4 p p b >.p p p p p p p p p g g b # > K q 4 T ^ a 3 p F + d +.",
"5.F @ v V 1.%.. F F - 3 a 4 F F p p p p q K.b.l ; d p ; ; p p p ; V b p - 4 4 p 4 p p 9 4 J 4 d a p l w.a ; d p p p d H.",
"3 J l b p j ( p p F ; w.8 p p p 4 b 9 p p . 4 F 4 d p - p p p p F 4 b + p p p d K R C p F l l ; p :.-.F F p + p p F l y ",
"j F 4 - p . a p p - f 4 f 4 p 4 p p 4 ^ b p F p b - p p p p p ' ^ 9 -.l p j g f E <.K F b a 4 p l Y p p p b p p p 4 F + ",
"G.p f 4 ; p 4 + l F a E i o p 4 p p p f b ; ' 1.m.P.7.8 p p l 9 ' l b l F R c.< + j 3.-.b h b b 4 l p p 4 p p p F ` + p.",
"+ F 4 ; p p p F p 4 b a $ I.p p p p p p F 8 L Z.U.Y.O.B p + p 9 l Y l p F > Z l F 3 o -.b d 8 9 ' ; F 0.0.p p p 6 b.%.| ",
"G.9.= p p p p 4 h E T.% q + p p 4 p p p F d R.E.t W.a : u p 4 4 p 4 4 p F C b.p F V ^ B 4 F 9 b R j l Y :.p ^ # # D Q.!.",
"+ 4 8 4 p p . ( h.7 u G.6 p p p b a p p l C ~.^.x /.C n.. p p p p ; ; p p 8 ^ p F } V.f p p 4 b ( u -.I.^ a * . + + y *.",
"y l p p 4 F g 7 . g o o p p 4 p 4 S.p l f / a.(.)._.P $ q p p 4 p F p p p s.E l F.:.p l p F p 4 * p l l d C 4 b 8 F = d.",
"P.+ p ^ a p . g ' ^ p . p 4 9 p + + F F f.* _.`.(.'.O.4 M.a w.p p p p b ; d o.b -.:.@ d l 4 d p F F l :.b k p , f p F >.",
"j.-.l ].4 w [.a ; ; l F p p p 4 a b p F S.-.w k {.}.1.8 |.9 8 + p p 4 4 F 3. XA V a L d F a h w.F F F F b E F j k - + +.",
"; -.-..Xd :.4 T p p ; 4 d 4 p 4 ^ T p ; <.d ~ <.i g p ; p p p p p p p p ; p z C ' b.( . F d ' ; 8 a ; F T b.F F + p + +.",
"F F F V.h a w.4 F ; b d E f } p a b p p d w.8 8 ' d p p F p p 4 p p p p 4 d d 4 4 q q + F p 4 F w.^ w.a 3.9 F F p p F +.",
"+ S.} b p F F p p F l ; b.g 4 p + p p l 4 b p p b I.p 4 b 4 p d p p b ^ b <.; 4 b 4 p p ' B R b F F f E z b p p p p F t ",
"XXoX9 f ; 9.b ; 3 T w.3 > 4 p p p p p F 9 C 4 4 p 4 p p 9 d p p p l p d . >.- ; d 4 F 4 OXg XXT p p * +XK 9 d F ; 9 =.@X",
"N.@ ' a F 9 @ C o.#X$X%X$.p p p p p p p 9 ' - p p p + p p 4 9 d @ d p F b o.< * d 4 F 4 K I 4 a p p p 4 b f f F b &X> H.",
"g ; 9 b p p 1.*X=X7.6 * 3 - p b ' 4 p p b.a F p d b F + p 9 Z 1 D b p p o #.C q > d F - -Xz b p F + p p ' b.j p p F l w.",
";Xl l p p 4 3 C 3 = p + p F F } Z # p p  .9 l p ; - 1.a ; ' y.:Xq l p q 6 f 1 >XR o F :.R C l 0.p + p p K o.+ p p p F ,X",
"P.&.T F p + + p ; F p p p p p + % z g E o.$ d ; p b b.K 4 4 o p p p p p p - D b.v * l :.Z E 4 l a b b p g C . 4 p p F + ",
"{.<X} p F F p p 4 ; p p p 8 3 F - h 1 1X2XZ A b 4 T E $ p p p p p p p p p p p l > : 9 d Z E p :.* T 9 4 K E - 8 p 4 F F ",
";Xl F k 1.- p p p 4 4 p F 9 +.j F -.;.o D . l e -.k , 6 p p 4 p d b p p p p p l d v d l 3X<.l z.7 * p 6 4Xb p ; 3 ^ l ,X",
"+ ; . ] 5Xq 4 p ; a 3.4 J a D p 0.l b |.( + l 0.Y * ! . 4 p p p p p p p 4 p p p - 1X^ l 9 h F.Y R y p 6 B d 4 p p f 4 5.",
"7.V 6 _ ( M b d j p ' j p < 7 l b 9 d 4 n b p F l b.* p ; 4 p p p p p p 9 4 F F 9 6X7Xo.j.H.V b.%.6 l p p p 6 p F p F j.",
"8Xb.9X, o.E a 4 8 4 f 4 p D n D.8.Y Y ; K 4 4 p d o.b p p <.a 4 p p p 4 4 p F ; .X~.f.0XO.=.5XD g p p 4 p p ; p F j ' ) ",
"qX%.B.4.8 b p F F @ OX4 ; T ! 6 -.Y l p wXK ! $.K / 4 p 4 ^ d ; p p p p p p p d 2 e.j ^ A 3 p 4 + p p 4 j * d 4 Z #.n %X",
"E.m.1.4 F ; p p p p w.; p 8 h y . . p 4 Z.eX# j g I 3 3 p b p p 4 p p p p p p p , ,.b 4 0.+ b ' F 4 p j 1.6 b b.rX%.j C.",
"qXt b p F p p p 4 b h 4 p + d $ , E h tX2 &.l E 3 F b j p p p p ; 4 9 p p p + p V / a 4 Y l d z j p p ; l yXe #.m.4 + G.",
"uXj.o ; F p 4 b p F w.p p p p 6 g w.9 iX+.p p 6 p p p p p p 4 9 4 j E p p p l p b : 7 # e :.d L  .$.g F Y :.z.pXE -.+ W ",
"g q B.; 8 4 4 z 9 F F p 4 p p p F p F <.> q p p p p p p p p p 6 p 7.Z p p p :.l b v u r e e a f j D E p F 9 ;.> p :.F l ",
"5.V h V 9.d . ( l l p g E 4 4 9 p p F aX) w.8 p p p p p p p p 9 h.tX#XI p p :.0.j O.6 -.p M.f o + 6 ; F 4 h E 4XM Y l q ",
"G.w.' 4 F p . ! W l p w.f p } 9 4 p p y *.T F F ; w.+ ; p p p C  XU.u.6 4 ; sX:.4 dX^ C f ' B 3 4 p p F :.l p K 6 p p & ",
"I d p F.:.l 4 tXfX* d p d a ' b . p p b 1Xk p p p p p b 4 p p + o &.j J p p :.:.V B - p F l 4 p p w.9 p -.e gXo 9 9 4 + ",
", ; l 9 b :.F eXXXY b l ; 4 @ n k ; p 6 #.$ 6 4 p p p p 4 p p d z v E p p p -.0.k R d 4 p p 3 p p V E p l sXe Y -.F F 1.",
"Z p 0.p 4 :.p y * e Y hXw.w.p g b ; p 6 m.$ p p - T k 6 p p p - b ^ 9 F p p p -.z #.1.j p p 4 p p 3 E p p F 0.l 4 9 G jX",
"XXF F 0.l p p 6 kXM.Y -.^ ` F p 4 d C . lX7 p p 9 K ! 6 = 4 p p l 4 4 8 p p 4 -.R > l l p p p 4 4 d b.a a F F j a 3.1 r ",
"&.4 w.+ + p p F ' ! l F  .=.- p b C 1 $ R.1XC p = . p p 9 ' 6 p F F ' , q F F + zXD F 0.p 4 4 4 b $.o.C 3.p p 4 7 * % Y ",
"2XxX#.cX>.iX=.A.i %Xy 7.2 vXtX$.3 +.zX>.bXE.nXA.F F q q - b - . 3 <.i U.+.&.+.}.*.| + q X 6 V eX[ t mXeX2 }.+ j MXjX< NX"
};
