/* XPM */
static char *s73ammEFxhw1D3N_png[] = {
/* columns rows colors chars-per-pixel */
"40 60 229 2 ",
"   c None",
".  c #0D0D0D",
"X  c #010203",
"o  c #170E0E",
"O  c #151414",
"+  c #1A1719",
"@  c #1D1B1C",
"#  c #1B1517",
"$  c #231314",
"%  c #211D1D",
"&  c #2D1B1C",
"*  c #341C1D",
"=  c #351618",
"-  c #3D0C0C",
";  c #1E1F20",
":  c #2A1F20",
">  c #242323",
",  c #2A2525",
"<  c #2D2B2B",
"1  c #292827",
"2  c #3A2324",
"3  c #322D2D",
"4  c #3E2B2B",
"5  c #352425",
"6  c #343333",
"7  c #3A3434",
"8  c #3B3B3B",
"9  c #2E2F30",
"0  c #540E12",
"q  c #5E0E11",
"w  c #4D1114",
"e  c #4C1B1C",
"r  c #441819",
"t  c #531215",
"y  c #5D1316",
"u  c #541619",
"i  c #5B1619",
"p  c #54191B",
"a  c #5B1B1C",
"s  c #4E0D0F",
"d  c #670C0D",
"f  c #640E10",
"g  c #690F12",
"h  c #7A0E11",
"j  c #750E10",
"k  c #611215",
"l  c #691619",
"z  c #7B1619",
"x  c #77181B",
"c  c #6E1E20",
"v  c #741F20",
"b  c #7B1E20",
"n  c #442527",
"m  c #592628",
"M  c #493334",
"N  c #523B3C",
"B  c #583435",
"V  c #642224",
"C  c #6A2527",
"Z  c #712224",
"A  c #792628",
"S  c #6C3B3C",
"D  c #653637",
"F  c #763335",
"G  c #7D2F31",
"H  c #7B3C40",
"J  c #444443",
"K  c #4C4B4B",
"L  c #494747",
"P  c #5A4A4A",
"I  c #504A49",
"U  c #555454",
"Y  c #5C5B5B",
"T  c #654344",
"R  c #6B4346",
"E  c #6A4B4D",
"W  c #744444",
"Q  c #7A4B4C",
"!  c #7E5353",
"~  c #685A58",
"^  c #6D605F",
"/  c #666566",
"(  c #6B696A",
")  c #6A6667",
"_  c #766869",
"`  c #747273",
"'  c #7B797A",
"]  c #797575",
"[  c #716F70",
"{  c #861113",
"}  c #8D1215",
"|  c #89171A",
" . c #931316",
".. c #9C1417",
"X. c #9D1618",
"o. c #97191C",
"O. c #800F12",
"+. c #A11517",
"@. c #A51619",
"#. c #AD161A",
"$. c #AB191C",
"%. c #A61C1E",
"&. c #B4171A",
"*. c #B4191D",
"=. c #BA191C",
"-. c #951E21",
";. c #851F21",
":. c #AC1D22",
">. c #B41E22",
",. c #BA1E22",
"<. c #832D2E",
"1. c #8C2326",
"2. c #972B2D",
"3. c #9E2A2D",
"4. c #972427",
"5. c #912F31",
"6. c #9F2E30",
"7. c #8C3334",
"8. c #8E3A3B",
"9. c #8A3538",
"0. c #93393C",
"q. c #9C3A3C",
"w. c #963134",
"e. c #A5292C",
"r. c #A62427",
"t. c #B32023",
"y. c #BC2125",
"u. c #BD2428",
"i. c #BD2B2E",
"p. c #B3282D",
"a. c #A7383A",
"s. c #B53639",
"d. c #B12F34",
"f. c #C01B1E",
"g. c #C21D21",
"h. c #C22226",
"j. c #C5252A",
"k. c #C9262B",
"l. c #CC292D",
"z. c #CA2226",
"x. c #D12A2F",
"c. c #D1262A",
"v. c #C52D33",
"b. c #D52C31",
"n. c #DB2D34",
"m. c #C33338",
"M. c #DB323B",
"N. c #D7363C",
"B. c #E53239",
"V. c #E12F37",
"C. c #953E42",
"Z. c #A93E41",
"A. c #B43E43",
"S. c #C73F42",
"D. c #DB3C44",
"F. c #F13B45",
"G. c #844E4E",
"H. c #8B4D4E",
"J. c #8D4243",
"K. c #9A4548",
"L. c #865252",
"P. c #8B5353",
"I. c #865C5D",
"U. c #945352",
"Y. c #9B5254",
"T. c #975859",
"R. c #AB4C4D",
"E. c #A74648",
"W. c #B84449",
"Q. c #AB4E51",
"!. c #A35354",
"~. c #AC5252",
"^. c #A6595B",
"/. c #B85758",
"(. c #A65D60",
"). c #8C6668",
"_. c #9B6463",
"`. c #946C6D",
"'. c #946768",
"]. c #807D7E",
"[. c #8A7879",
"{. c #9A7D7E",
"}. c #A56567",
"|. c #BB6565",
" X c #A47779",
".X c #AE6F72",
"XX c #C44648",
"oX c #DB454A",
"OX c #C5595B",
"+X c #CC585A",
"@X c #D5595B",
"#X c #DF4F56",
"$X c #E1464C",
"%X c #E24D53",
"&X c #EA4E55",
"*X c #E6545B",
"=X c #C35D60",
"-X c #EB5F65",
";X c #CA6767",
":X c #D86767",
">X c #D77878",
",X c #D07274",
"<X c #E56569",
"1X c #E86D72",
"2X c #EB7A7C",
"3X c #E37577",
"4X c #F46D75",
"5X c #DD7E80",
"6X c #EB7E81",
"7X c #F97D80",
"8X c #8B8384",
"9X c #948A89",
"0X c #BC8687",
"qX c #AE8F8E",
"wX c #CA8285",
"eX c #DC8788",
"rX c #D99597",
"tX c #CB9495",
"yX c #EF8184",
"uX c #E4878A",
"iX c #F38386",
"pX c #F28689",
"aX c #F58B8D",
"sX c #F88B8D",
"dX c #F58E91",
"fX c #FB8D90",
"gX c #F89698",
"hX c #F79EA1",
"jX c #EAA1A1",
/* pixels */
"                                                                                ",
"                                                                                ",
"                                                                                ",
"                                                                                ",
"                            F 9.a.Z.A.W.W.W.W.E.C.8.G                           ",
"                        0.5.d.m.N.D.#X<X1X1X1X1X3X:XW.K.                        ",
"                      H Q s.b.M.oX*X1X2XyXpXpXaXsXfXpX0X X                      ",
"                    5 N 9.v.n.D.%X<X2X6XyXiXpXaXdXgXgXrXqX]                     ",
"                    r b :.k.n.D.%X<X2X6XyXiXpXaXdXfXgXgXjX`.                    ",
"                    0 4.s.l.n.N.%X<X3X3X2X6XyXpXsXfXgXgXgX|.                    ",
"                    q Z.OXv.i.a.K.H.L.).`.`..X.X,XeXuXdXfX;X                    ",
"                    q E.;XJ.B 7 7 7 8 U / ) ( ( _ _  XuX7X:XZ                   ",
"                  s f q.;X! 9 < 9 6 8 K / / / / / / [.5X*X@X1.                  ",
"                  i g 1./.P.8 8 J L K Y [ ` ` ( ( ( {.3XN.@X2.                  ",
"                  V g | W.T.L K U U Y ( ].8X' ' ` ` 0X<Xj.oX3.                  ",
"                  V f h a.!.I L K L K Y ` ' ' ' ] ] 0X%X=.S.6.                  ",
"                  V f x 3.~.P K K J K Y ` ` ` ] ` ].wXD.:.W.2.                  ",
"                  p q m 0./.E ) _ ^ _ [.[.[.8X9X9X9XeXD.C.~.5.                  ",
"                  p y n ! /.q.E.=X,X5X>X>XuXuXeXrXtXdXOXN !.a.                  ",
"                  p u 2 ~ |.i.b.D.%X<X+XOX2XiXfXgXhXgXI.3 !.q.                  ",
"                    t 2 K }.p.l.b.n.M.v.m.$X&X-X4XdXrXP < Y.E.                  ",
"                    t 2 L _.e.k.l.b.n.n.n.n.V.B.F.4XwX7 > U.E.                  ",
"                    t 2 L '.e.j.l.x.b.b.b.b.n.V.B.*X.X< > U.E.                  ",
"                    t 2 L `.e.u.l.l.x.x.x.b.b.n.B.&X}.< > U.R.                  ",
"                    t 2 K `.3.u.j.l.l.l.l.x.b.n.B.$X(.< > P.R.                  ",
"                    t 4 U `.3.u.j.k.l.l.l.l.x.n.V.$X^.< > P.Q.                  ",
"                    t 5 K ).3.y.j.z.l.l.l.l.l.b.n.$X^.< % G.~.                  ",
"                    t $ ; R 4.y.j.j.z.z.k.k.l.x.n.oXY.@ . W ~.                  ",
"                    w o O T 4.t.u.j.j.j.j.j.k.x.n.oXY.O X D ~.                  ",
"                    t $ 8 I.4.>.y.h.j.j.j.j.j.l.x.oXY.> O S /.                  ",
"                    t & U ).4.:.y.y.y.y.y.y.h.z.c.N.!.< 1 Q /.                  ",
"                    w & U '.-.$.>.>.,.,.,.,.,.h.z.b.!.3 < G.~.                  ",
"                    t * U T.| X.$.$.*.*.*.*.*.,.g.z.Q.3 , G./.                  ",
"                    t & U H.z  ...+.@.@.@.@.#.&.*.>.R.M > G.~.                  ",
"                    t & P W n e a l c v v Z v Z V m H.N @ L.~.                  ",
"                    0 & P N @ @ % % > 3 7 3 , , > > T R ; P.R.                  ",
"                    0 * T 4 @ @ @ O . 1 6 @ O @ @ @ 4 Q 3 L.E.                  ",
"                  D r 5 D % O O O . . @ < O O @ @ @ % W M D <.                  ",
"                  c e * n @ @ @ @ % @ @ 1 @ # @ > 1 @ M S = x 6.                ",
"                    p B 2 < 6 6 6 7 7 6 6 6 , 1 6 J 6 , S B Z                   ",
"                    i V , < 6 6 6 6 < 1 1 3 3 1 < 8 8 1 B !.0.                  ",
"                    k e > < < < < 3 1 > > < 6 < < 6 6 < 2 w.7.                  ",
"                  - l p @ ; > 1 1 < < < < < < < < < 1 > r a.<.                  ",
"                  s l x w = $ # + @ @ @ @ @ + + % & * a -.s.A                   ",
"                  V x 1.{ z j g k y u u u i k l z o.%.=.y.XX2.                  ",
"                  P.7.w.o.} }  ...X.X.X.$.*.*.*.=.f.f.=.i.+XW.                  ",
"                  _.0.q.r. .}  .......+.&.*.&.&.=.f.f.=.XX:X;X                  ",
"                  _.7.7.a...}  .......+.#.*.&.&.=.f.=.y.@X:XOX                  ",
"                  F z x a.X.}  .........#.&.&.&.=.=.=.i.:X:Xa.                  ",
"                  y d f 5.r. .}  .......#.&.&.&.=.=.&.S.3XOX;.                  ",
"                  u m k x o...}  .......#.&.&.&.=.&.t.+X>X/.C                   ",
"                    E m d j .. . .......&.&.&.=.=.&.s.@X,X`.                    ",
"                    E N a d {  . .....+.#.&.&.=.=.t.m.XX X).                    ",
"                      R m u d { { }  . .+.#.#.&.#.s.A.U.I.                      ",
"                          n C z h h h O.}  . ...e.^.G.                          ",
"                              F C C Z Z A <.7.8.K.                              ",
"                                                                                ",
"                                                                                ",
"                                                                                ",
"                                                                                "
};
