/* XPM */
static char *s79apJFVxHOi5rA_png[] = {
/* columns rows colors chars-per-pixel */
"60 60 217 2 ",
"   c #040404",
".  c #070708",
"X  c #070809",
"o  c #0B0C0D",
"O  c #0E0E11",
"+  c #160F10",
"@  c #0F1012",
"#  c #121315",
"$  c #1B1415",
"%  c #161619",
"&  c #1A1719",
"*  c #17181B",
"=  c #1A1A1D",
"-  c #2E0B0B",
";  c #231416",
":  c #271518",
">  c #231B1D",
",  c #2A1B1D",
"<  c #361818",
"1  c #3B1D1E",
"2  c #1D1D21",
"3  c #251E21",
"4  c #2A1E21",
"5  c #351F21",
"6  c #1F2024",
"7  c #222225",
"8  c #2B2224",
"9  c #252628",
"0  c #2A2628",
"q  c #2C2B2C",
"w  c #332324",
"e  c #3C2525",
"r  c #332629",
"t  c #3C2628",
"y  c #312D2F",
"u  c #3C2A2A",
"i  c #312F30",
"p  c #3C2E30",
"a  c #2F3030",
"s  c #2F3032",
"d  c #353334",
"f  c #3B3535",
"g  c #393738",
"h  c #3C3B3B",
"j  c #47100E",
"k  c #461313",
"l  c #4B1515",
"z  c #471C1B",
"x  c #4C1C1B",
"c  c #551512",
"v  c #5C1513",
"b  c #551C1A",
"n  c #6D1A15",
"m  c #681C19",
"M  c #741C19",
"N  c #7B1E1B",
"B  c #5C211F",
"V  c #64201F",
"C  c #6B211E",
"Z  c #75211E",
"A  c #442324",
"S  c #442A2A",
"D  c #492829",
"F  c #542524",
"G  c #5C2423",
"H  c #532B2A",
"J  c #5E2D2D",
"K  c #443233",
"L  c #4C3435",
"P  c #413A3B",
"I  c #583030",
"U  c #563A3A",
"Y  c #632422",
"T  c #682827",
"R  c #6E2826",
"E  c #6F2F2F",
"W  c #7A2522",
"Q  c #752927",
"!  c #693738",
"~  c #763433",
"^  c #7B3432",
"/  c #7A3C3B",
"(  c #5B403F",
")  c #503F41",
"_  c #444344",
"`  c #4D4B4B",
"'  c #574444",
"]  c #5C4D4C",
"[  c #514F50",
"{  c #545354",
"}  c #5C5A5B",
"|  c #624543",
" . c #6B4747",
".. c #654D4C",
"X. c #694A49",
"o. c #784949",
"O. c #605B5C",
"+. c #7B5656",
"@. c #666465",
"#. c #686667",
"$. c #6A6768",
"%. c #6D6B6C",
"&. c #756B6B",
"*. c #7B6868",
"=. c #716F70",
"-. c #757374",
";. c #797778",
":. c #7D7C7C",
">. c #811F1B",
",. c #83211C",
"<. c #8C231E",
"1. c #91251F",
"2. c #8E2420",
"3. c #852A26",
"4. c #932621",
"5. c #952925",
"6. c #9B2A25",
"7. c #9D2924",
"8. c #9C2D2A",
"9. c #8F322F",
"0. c #893836",
"q. c #843D3C",
"w. c #9C3C39",
"e. c #A42A25",
"r. c #A52A25",
"t. c #AB2C26",
"y. c #A42E29",
"u. c #AC2E29",
"i. c #B12F29",
"p. c #A4312E",
"a. c #AC312C",
"s. c #B2332E",
"d. c #AB3431",
"f. c #AA3B38",
"g. c #B43632",
"h. c #BA3733",
"j. c #BC3935",
"k. c #B93B3A",
"l. c #C13B37",
"z. c #C43D39",
"x. c #C93F3C",
"c. c #89413E",
"v. c #98413D",
"b. c #B3403D",
"n. c #CC413E",
"m. c #823F41",
"M. c #8B4848",
"N. c #974745",
"B. c #885757",
"V. c #9C5655",
"C. c #935D5D",
"Z. c #A74A48",
"A. c #B54946",
"S. c #A9524F",
"D. c #BE544F",
"F. c #A95856",
"G. c #A55C5B",
"H. c #B75956",
"J. c #9C605E",
"K. c #A7605E",
"L. c #B3615E",
"P. c #BD605F",
"I. c #87696A",
"U. c #986666",
"Y. c #976E71",
"T. c #877978",
"R. c #947675",
"E. c #927C7C",
"W. c #A96766",
"Q. c #B26C6B",
"!. c #A77675",
"~. c #B47776",
"^. c #CA4241",
"/. c #C44B4A",
"(. c #CC4C4B",
"). c #D34442",
"_. c #DA4747",
"`. c #CA5352",
"'. c #CE5A5A",
"]. c #DE5252",
"[. c #D25B5B",
"{. c #D0605E",
"}. c #D05F62",
"|. c #C46563",
" X c #C76966",
".X c #D96768",
"XX c #D56C6C",
"oX c #DB6D6C",
"OX c #C8726E",
"+X c #CB7977",
"@X c #D67978",
"#X c #D57D7C",
"$X c #E57878",
"%X c #DA807F",
"&X c #DD7E82",
"*X c #848182",
"=X c #8D8687",
"-X c #988788",
";X c #BE8C89",
":X c #AE9291",
">X c #CF8889",
",X c #DD8484",
"<X c #D88887",
"1X c #DD908F",
"2X c #C68F90",
"3X c #CB9696",
"4X c #D99796",
"5X c #E58887",
"6X c #E48B8A",
"7X c #E5908F",
"8X c #E69695",
"9X c #EA9494",
"0X c #E59B9C",
"qX c #EC9B9B",
"wX c #DDA09F",
"eX c #C6A4A4",
"rX c #EBA5A6",
/* pixels */
"s = = % = 2 % X # o # O # = 2 2 2 2 % . # # % # X % 7 q i d f f d d q 2 % .   . % O # = * o . . % = o O % # # % % o X X ",
"7 = * * = 2 2 % % # % = 2 2 2 2 2 2 % o 2 2 2 0 L H J T T T R ~ ~ / o.X.q % X . * # % = 2 2 # # 2 2 % % 2 2 2 2 2 = 2 % ",
"7 # % = = 2 2 = * % = 2 2 2 2 2 2 2 % # 6 2 3 L R n n n n n N >.>.,.<.Z.C.L , X = * = 2 2 2 % % 2 7 2 % 2 2 2 2 2 2 2 * ",
"= # = 2 2 2 2 2 2 % = 2 2 2 2 2 2 = O # 0 S A c n N M N >.,.<.4.4.7.7.8.Z.V.+.L 7 = 2 = = 2 = = 7 7 7 = * 2 7 2 2 2 2 # ",
"* 2 2 2 7 7 7 2 2 * = 2 2 = 2 2 2 = % 8 ' H v m ,.,.,.<.<.1.7.r.r.t.t.r.f.b.S.R...9 2 = # % 2 2 2 2 7 * # 2 6 2 = 2 2 % ",
"2 2 = = = 7 7 6 2 = = 2 2 2 2 2 2 2 3 ] D v v N 2.,.<.<.4.1.r.r.r.r.u.r.8.A.D.~.E.K 2 = 2 * = = 2 = = # X = 2 7 3 2 = = ",
"2 2 2 2 # 2 2 7 2 2 2 2 2 # * % % % < ..c v m 2.,.,.<.<.<.1.7.r.r.r.t.t.r.f. XOX!.H 2 2 = = 2 % = 2 2 2 % = 2 2 2 % = 2 ",
"2 2 7 7 % % # = 2 2 2 2 = % 2 2 6 3 l b v R 9.<.,.,.<.<.<.<.7.r.r.r.r.t.r.r.H.@X XR , 2 = 2 2 % = 2 2 2 % = = = = # = = ",
"2 2 7 2 # 6 = 2 2 % % = % * 7 7 7 3 v v v c.8.<.,.,.<.2.<.<.r.r.r.r.r.u.t.r.A.+XOX9.A 2 2 2 2 2 2 2 2 = # 2 2 2 2 = 2 = ",
"2 2 2 = O 7 7 7 2 = * # o = 7 7 = 8 c.C R Z.4.,.,.,.2.4.<.1.7.r.r.r.r.u.u.t.d.OXOXA.! = 2 2 2 2 2 = 2 2 2 2 2 2 2 = * # ",
"2 2 2 o o 7 9 2 2 2 2 = % = 2 7 2 P W.~ q.Z.<.,.,.<.2.4.<.1.7.r.r.r.r.u.i.u.u.|.+X X .% * = 2 2 2 # = 2 2 2 2 2 2 = #   ",
"* = # X % = 2 = 2 2 2 2 = = 2 2 2 P !.^ N.9.<.,.,.<.2.4.1.1.7.r.r.r.t.u.s.u.t.A.OX Xo.2 = # = 2 2 = 2 2 2 2 2 2 2 * o   ",
"o # o # = = = 2 2 2 2 2 2 2 = # # P U.^ N.2.,.>.,.<.4.4.4.4.r.t.r.r.t.u.i.u.t.d.|.H.! 2 2 % * 2 2 # % 2 2 2 2 = 2 = #   ",
"o % 2 2 2 2 2 2 2 2 2 = # # # O . r E Q 0.>.N N N Z Z m m V C C Z W 3.5.y.u.u.u.D.w.F 6 2 # # 2 2 % 2 2 2 * % # % 6 % X ",
"* 2 2 2 2 2 2 2 2 2 2 # % = # * # $ j R W m x < ; $ $ $ = = & % % $ ; , 1 b W y.A.0.1 2 2 * = 2 2 % 2 = = 2 7 % X = = * ",
"= 2 % 2 2 2 = # = 2 = # 7 7 % = 2 = - Y Y : % * * = 7 7 9 9 0 9 7 > 7 7 7 = = z v.q.3 2 2 % * 2 2 % = 2 2 2 2 % o = 2 2 ",
"= 2 % = 2 2 2 % 2 2 = % 7 2 % % 2 = - m z = 9 0 0 q q y q q q i d y q q q d q > ^ q.3 2 2 # = 2 2 2 2 2 2 2 2 = = 2 2 * ",
"2 2 2 2 2 2 * # 2 = = * 7 2 * # = = : v x 3 q y y q y i 7 = = 7 d q 0 y h d 9 t 0.c.$ = 2 2 2 2 2 2 2 2 2 2 2 2 2 = # X ",
"2 2 2 2 2 2 * = 2 2 2 = 2 2 * # 7 2 , x ! , q i d d d d y q q d d 7 0 d _ h 7 U C.o.& = 2 2 2 2 2 2 2 2 2 2 2 2 2 = % # ",
"= 2 2 2 2 2 # @ 2 2 2 2 2 2 = # 6 2 1 z L t 0 d d f g h h d d g 0 7 q f _ 0 8 o.u z G : = 2 2 2 2 2 2 = % = 2 2 2 2 2 = ",
"= 2 2 2 2 = % * 2 2 2 2 2 = % O 2 e B z , I % % * * * * % & 7 * % % * 7 = # U  ., x 0.0.S 2 2 = * = % * = * 2 2 = = 2 = ",
"O # % = 2 % % = 2 2 2 2 = 2 2 # 2 t t < 4  .> * # % # o X * d % # * = 3 * = o.L U ~ r K p 2 2 % o # o # % % = 2 = = % % ",
". # = 2 2 = = # # % 2 2 = % = # 2 2 , k , ..K = = = % # o 9 g = # = % & % u B.7 X.V.3 2 2 2 2 % = = = 2 2 2 = 2 % = # * ",
"O 2 2 2 2 2 2 % * % 2 2 2 % % = 2 2 , l , ' | > = = * * = s d q = 9 2 = = X.o.% X.V.3 2 2 2 = % 2 2 2 2 2 2 2 2 = = = 2 ",
"# 2 2 2 2 2 = % = = % = 2 2 2 2 2 2 , l , _ +.w 8 w t A D H H H H H D u u B.U % X.G.3 % 2 = % % = = 2 2 2 = = # # 2 2 2 ",
"# 2 2 2 2 2 % * 2 2 = 2 2 % = 2 2 # ; l , _ I.G C Z ,.<.2.1.1.4.4.4.6.5.9.G.f * | G.> % 2 2 2 = 2 2 2 2 = 2 7 2 O 2 6 2 ",
"# 2 2 * = 2 * = 2 2 2 2 2 % * 2 = O ; l , _ R.W <.1.4.6.7.7.7.7.7.r.t.u.s.K.q 7 | G.8 * 2 2 2 2 2 2 2 2 = 2 7 2 O 2 2 * ",
"# 2 2 = % 2 * = 7 2 2 2 2 = 2 2 2 * 4 l , _ E.3.4.6.r.y.y.y.y.y.y.u.s.s.k.J.9 0 ' L.u 2 2 = 2 2 2 2 % % = = 2 = % 2 2 # ",
"o = 2 2 = 2 % = 2 2 2 * = 2 2 2 2 2 , k , _ T.0.5.y.y.a.a.a.a.a.a.s.h.h./.C.7 0 ) L.t 2 2 2 2 2 = = = = * = 2 2 2 2 2 = ",
". * = 2 = * = % 2 6 2 % = 2 2 2 % # : l : h T.q.5.y.a.a.a.a.s.s.s.g.h.l./.C.3 9 U P.L 2 2 2 2 2 2 = * # % 2 2 2 2 2 = 2 ",
". X # * = % 2 6 7 2 2 # = = 2 2 % * : l $ 9 &.q.6.a.a.s.s.s.s.s.g.h.j.z.`.C.* o t W.r 2 2 2 2 2 = # % % 2 2 2 2 2 2 = = ",
"* % % 2 2 2 2 2 2 2 2 = = 2 = = 6 = > k + X P q.8.a.s.g.g.g.g.g.h.j.l.x.'.B.O   5 G.8 2 2 2 = % % 2 2 2 2 2 2 2 2 2 2 2 ",
"7 2 * 2 2 2 2 2 2 2 2 2 2 2 % = 2 % > l ; o f q.8.a.g.g.g.g.g.h.j.j.z.n.'.B.# X S G.8 2 2 2 = @ * * 2 2 2 2 2 2 2 % 2 = ",
"2 2 2 2 2 2 2 2 2 2 7 2 2 2 = = 2 # $ l w h &.M.8.g.g.h.j.j.j.j.j.j.z.n.'.U.9 * ( G.4 2 2 2 2 * 2 * 2 2 2 % = 2 2 2 2 = ",
"* 2 2 2 2 2 2 2 2 2 7 2 2 2 2 2 2 = & l t _ T.M.8.g.g.h.j.j.j.j.j.l.x.^.'.U.0 = ' G.3 2 2 2 2 2 2 2 2 2 2 % = 2 = 2 2 = ",
"O = 2 2 2 = 2 % = 2 2 = = 2 2 2 = 2 > l t h T.M.8.g.g.j.j.j.j.j.j.z.x.).'.U.9 = | G.3 2 2 2 2 = = 2 2 2 = # * = o # 2 = ",
"% = 2 2 2 2 = % = = 2 # # * = = = 2 > l t h T.M.y.g.h.j.j.j.j.j.l.z.n.).[.U.9 = X.G.3 = 2 2 2 = 7 = = 2 * % 2 2 * o # % ",
"2 2 2 2 2 2 2 2 2 = * % = = % O = 2 > l t d T.N.p.g.j.j.l.l.l.l.z.x.n.).}.!.9 = X.G.3 2 2 2 2 = 2 2 = % # = 2 2 2 * # = ",
"2 2 = # = 2 2 # o O # 2 2 2 = @ * = > l t s T.N.p.g.j.l.l.z.z.z.x.n.)._.XX~.9 =  .F.3 2 2 2 7 2 2 2 2 = # 2 2 2 2 2 = 2 ",
"% = = % % 2 = % 2 2 % 2 2 2 2 * % = > l e q T.v.d.j.l.z.x.x.z.x.n.)._.].&X2Xd =  .F.4 2 2 2 2 2 2 2 2 = = 2 2 % = 2 2 2 ",
"# 2 2 = 2 2 = % 7 2 * 2 2 2 2 2 = 2 , l t d R.w.g.z.z.x.^.k.f.(.[..X$X5X0X4X] 0  .H.S 2 2 2 2 2 2 = = 2 2 2 2 # = 2 2 = ",
"# = 2 2 2 2 % % 7 2 2 2 2 2 2 2 2 = 1 l S _ !.f.j.x.(.[.oX|.S.#X5X7X9XqXrX0XI.9 o.S.A % = 2 2 2 2 % 2 2 2 2 2 # 2 2 2 = ",
"o % = = = 2 % # 2 2 2 2 2 2 2 2 = & z b S ' ~.N.N.H. X#X<X<X#X<X1X1X4X3X3X8X|.U o.H.J = = = 2 2 2 = % 2 2 2 % @ 2 = = = ",
"% 7 9 7 7 7 = # = 2 2 2 2 2 2 2 % = x c S ! L.M.O.&.*.*.I.R.E.E.-X-X-X=X-X1X(.M.B.S.F 7 2 * = = 2 2 = 2 2 2 * O 2 2 2 = ",
"% 7 7 7 6 2 2 2 2 2 = = = # # = = y F c T W H.o.{ } { _ ` } =.-.;.;.:.;.*X>X(.8.Z.Z.Y 7 2 % 2 % 2 2 = 2 2 2 2 = 2 2 2 = ",
"# 2 7 2 2 2 2 2 2 = # # # % # @ = d G v m 3.L.X._ h _ ) _ { %.-.;.-.-.=.;.;X[.r.f.Z.R 7 2 % = 2 2 2 = 2 2 = = 2 2 2 = % ",
"% % 6 7 2 = # # 2 = o 2 2 2 = @ = y G v M 9.L.] ` ` { ` [ O.;.*X*X:.:.;.;.:XoXu.A.S.R 7 2 2 2 2 2 = 2 2 2 o % 2 2 = * # ",
"2 % 2 7 2 = = = 2 = @ 2 2 2 = % 2 7 b v W v.W.' _ ` [ { } #.:.*X:.;.-.%.%.-X@Xj.`.S.R 7 2 2 2 * = 2 2 2 * . # 2 2 2 2 * ",
"2 % * 2 2 2 = = 2 2 * % 2 2 2 2 2 2 l v 3.S.W.) d d g h P ` #.%.%.$.$.#.#.E.<X(.[.Z.G 3 2 2 2 * = 2 2 * o . % 2 2 2 2 = ",
"2 = 2 2 2 2 2 2 2 2 2 # = 2 2 2 2 = < c 0.OXW.h 9 q q d d ` @.#.#.#.@.@.#.T.>XoXoXv.1 2 = = 2 2 2 2 2 = o # % = = 2 2 2 ",
"2 2 2 2 = = 2 2 2 2 2 * = 2 2 2 2 2 : l c.+XS.U K d d d h { #.$.$.$.$.&.I.R.>X5X5X~ > = 2 2 2 2 2 2 2 = * 2 = = = 2 2 2 ",
"2 2 2 2 2 = * 2 7 7 2 = = 2 2 2 2 2 & k 0.Q.b.j.f.N.M.B.+.I.I.Y.Y.!.~.+X<X7X8X9X6X! = 2 2 2 2 2 2 = 2 = 2 2 2 = # 2 2 = ",
"2 2 = 2 2 6 = 7 7 = * % % * 2 2 2 2 = k W S.f.z.n.(.[.XX@X#X#X,X,X5X6X9X9X9X0XqX1XA % 2 2 2 2 = = 2 2 2 2 2 2 2 # = = # ",
"# @ @ = 2 6 = 2 6 % # % 7 2 2 2 2 2 2 < W 5.d.z.^.(.'.XX#X,X,X5X6X6X7X9X9XqX0XrX;X, # 2 2 2 2 2 2 2 = 2 2 2 2 = # % 2 = ",
"= % X * 2 2 = = * % 2 = 2 2 2 2 2 2 2 > L ^ d.z.^.(.{.@X%X,X,X5X6X6X7X9XqXqXwXeX=X7 o 2 2 2 2 2 2 2 % = 2 * # @ & 2 = = ",
"2 * . % = 2 2 = % # = = 2 2 = 2 2 2 2 3 U ] M.z.x.(.'.XX#X,X,X5X5X6X7X9XqXqX:X:X*.= O 2 2 2 2 2 2 2 2 2 2 * o = 2 2 = = ",
"2 = O = 2 2 2 2 = o = 6 2 2 % = 2 2 2 > E o.M.k.z.z.^.`..X#X,X5X5X5X6X6X5XXXW.V.H # X % 2 2 2 2 2 2 2 2 2 % # 2 2 2 2 2 ",
"* % = 2 2 2 2 2 = O 7 7 7 7 2 2 2 2 2 % > t F / N.Z.A.A./.'.'.}.|.|.P.H.V.q.H w 2 % X % 2 2 2 2 2 2 2 = % % % # % 2 2 2 ",
"= # 2 2 2 % = = = O 7 7 7 9 = = 2 2 = O = 2 = 4 S J E / q.q.q.m.m./ ! H A w 2 2 2 = O = = 2 2 2 2 2 = = % 2 2 # * 2 = 2 ",
"_ = 2 2 = # = = = # 2 7 7 7 = = 2 2 = o * 2 2 2 = * & 3 8 > > 3 3 3 > o O * 2 = % # # 2 2 2 = = 2 = * = * 2 = % * = = q "
};
