/* XPM */
static char *s79apgGVicbzxsM_png[] = {
/* columns rows colors chars-per-pixel */
"60 60 227 2 ",
"   c #040405",
".  c #070709",
"X  c #080808",
"o  c #0B0B0C",
"O  c #160C0D",
"+  c #10100F",
"@  c #0E0F11",
"#  c #150F12",
"$  c #0F1012",
"%  c #121315",
"&  c #1B1315",
"*  c #151619",
"=  c #19171A",
"-  c #17181B",
";  c #1A1A1D",
":  c #340C0C",
">  c #241416",
",  c #2D1415",
"<  c #291618",
"1  c #251B1D",
"2  c #2A1B1D",
"3  c #351414",
"4  c #341B1C",
"5  c #3D1919",
"6  c #1D1D21",
"7  c #221E21",
"8  c #2A1E22",
"9  c #361E20",
"0  c #1F2024",
"q  c #222225",
"w  c #2B2325",
"e  c #292827",
"r  c #232428",
"t  c #2B2629",
"y  c #2D2C2C",
"u  c #332425",
"i  c #3B2324",
"p  c #352629",
"a  c #332B2D",
"s  c #3B2A2A",
"d  c #322F30",
"f  c #3A2E31",
"g  c #343233",
"h  c #3C3434",
"j  c #393837",
"k  c #393738",
"l  c #3B3A3A",
"z  c #4B100E",
"x  c #4B1515",
"c  c #4C1817",
"v  c #431C1C",
"b  c #551715",
"n  c #5B1613",
"m  c #531B19",
"M  c #5A1C1B",
"N  c #6D1915",
"B  c #651A18",
"V  c #731B17",
"C  c #7C1E1A",
"Z  c #6C221E",
"A  c #73211E",
"S  c #7C201D",
"D  c #432425",
"F  c #482324",
"G  c #442B2D",
"H  c #4C2B2C",
"J  c #582323",
"K  c #512B2C",
"L  c #5D2C2C",
"P  c #413535",
"I  c #473638",
"U  c #443C3C",
"Y  c #4C3939",
"T  c #583A3A",
"R  c #652221",
"E  c #6B2422",
"W  c #682B29",
"Q  c #752522",
"!  c #7C2522",
"~  c #752E2C",
"^  c #7A2A28",
"/  c #76312E",
"(  c #632D32",
")  c #673636",
"_  c #613C3C",
"`  c #733636",
"'  c #793A39",
"]  c #4C403E",
"[  c #423F40",
"{  c #783F41",
"}  c #454445",
"|  c #494545",
" . c #484848",
".. c #4B4B4B",
"X. c #584849",
"o. c #514E50",
"O. c #5A5455",
"+. c #585657",
"@. c #674949",
"#. c #784B4B",
"$. c #7C504F",
"%. c #645B5C",
"&. c #7A5655",
"*. c #666465",
"=. c #696667",
"-. c #6D6B6C",
";. c #726B6C",
":. c #716F70",
">. c #747273",
",. c #797778",
"<. c #7C797A",
"1. c #811F1B",
"2. c #83211D",
"3. c #8C231E",
"4. c #91251F",
"5. c #842521",
"6. c #8D2521",
"7. c #852925",
"8. c #812B29",
"9. c #942621",
"0. c #9B2722",
"q. c #952924",
"w. c #9C2823",
"e. c #9D2C2A",
"r. c #86312F",
"t. c #98312C",
"y. c #863C3A",
"u. c #8A3938",
"i. c #993936",
"p. c #A52A25",
"a. c #AB2C26",
"s. c #A42E2A",
"d. c #AB2F2A",
"f. c #B02F27",
"g. c #B02F28",
"h. c #A3312E",
"j. c #AD322D",
"k. c #B3332E",
"l. c #BB342F",
"z. c #AA3431",
"x. c #A83A38",
"c. c #B43632",
"v. c #B93733",
"b. c #B33B37",
"n. c #BC3935",
"m. c #BB3B39",
"M. c #C23A36",
"N. c #C43D3A",
"B. c #C93E3C",
"V. c #8C413E",
"C. c #96413E",
"Z. c #C0403E",
"A. c #CC403E",
"S. c #D0423F",
"D. c #8D4442",
"F. c #864948",
"G. c #964847",
"H. c #905756",
"J. c #975755",
"K. c #A64744",
"L. c #B34745",
"P. c #BA4B4A",
"I. c #A5504E",
"U. c #B7524E",
"Y. c #A85756",
"T. c #A55D5C",
"R. c #B85755",
"E. c #B4625E",
"W. c #BD615E",
"Q. c #876767",
"!. c #986767",
"~. c #867878",
"^. c #8B7D7C",
"/. c #967877",
"(. c #A36463",
"). c #AC6564",
"_. c #AE6967",
"`. c #A56D6C",
"'. c #B36664",
"]. c #B26965",
"[. c #B96866",
"{. c #AC726F",
"}. c #AA7877",
"|. c #B87778",
" X c #CA4443",
".X c #C84A4A",
"XX c #D34341",
"oX c #D84948",
"OX c #CD504F",
"+X c #CE5553",
"@X c #C55959",
"#X c #D45858",
"$X c #C6615D",
"%X c #D4605F",
"&X c #D25D60",
"*X c #C66965",
"=X c #D66868",
"-X c #D1726F",
";X c #C87875",
":X c #D87877",
">X c #D47C7A",
",X c #E36767",
"<X c #E57E7F",
"1X c #DD817F",
"2X c #868485",
"3X c #8C898A",
"4X c #968888",
"5X c #AC8B8A",
"6X c #BD8A89",
"7X c #A19393",
"8X c #BEA2A2",
"9X c #C28484",
"0X c #CB8483",
"qX c #D38585",
"wX c #DD8484",
"eX c #CD8D90",
"rX c #C69493",
"tX c #DB9A9A",
"yX c #E18584",
"uX c #E7898A",
"iX c #E48B8B",
"pX c #E7908F",
"aX c #EB8E90",
"sX c #EA9594",
"dX c #E69998",
"fX c #EB9D9C",
"gX c #E7A3A4",
/* pixels */
"6 6 6 ; * 6 6 * ; - 6 6 ; ; 6 6 ; @ - ; 6 6 ; @ X ; 6 6 6 % ; 6 6 % - 6 6 6 6 ; X ; 6 6 ; - r q q q % ; ; ; % ; 6 6 * r ",
"6 ; 6 % % ; 6 % ; 6 6 6 6 6 6 ; - o ; 6 6 6 6 % % 6 6 6 6 % % ; * @ ; 6 6 6 6 ; % ; 6 6 6 6 r q q q @ ; ; ; ; 6 6 6 * * ",
"6 6 6 ; - % % ; 6 6 6 6 6 6 6 6 % . - 6 6 6 6 % % ; 6 6 6 @ @ 6 ; % 6 6 6 ; 6 ; * 6 6 6 6 6 q q q q @ - 6 6 6 6 6 * ; ; ",
"6 6 6 6 6 % ; 6 6 6 6 6 6 6 6 6 - o * 6 6 6 6 - * ; 6 6 6 * * 6 - @ 6 6 6 * * 6 6 6 6 6 6 * ; 6 6 * o ; 6 6 6 6 - X ; 6 ",
"; * 6 6 * o ; 6 6 6 6 6 6 6 6 6 6 @ ; 6 6 6 6 6 6 6 6 6 6 6 6 6 * % 6 6 6 ; * 6 6 6 6 6 6 6 6 6 ; ; * % ; ; 6 ; -   * 6 ",
"; 6 ; % % * ; 6 * * 6 6 6 6 6 6 6 o * * 6 6 6 6 ; 6 6 6 6 6 6 6 6 ; 6 6 6 6 6 6 6 6 6 6 6 6 6 6 ; ; * ; 6 - 6 6 ; o $ - ",
"- 6 * % ; 6 6 6 6 6 6 6 6 6 6 6 6 % . * 6 6 6 6 6 6 6 6 * 6 6 6 6 6 6 6 ; ; 6 6 6 6 6 6 6 6 ; 6 % $ * 0 0 ; q 6 6 % % * ",
"* 6 - % 6 6 6 6 6 6 6 ; ; 6 6 6 6 * o ; * - 6 6 6 6 6 6 ; 6 6 6 6 6 ; ; * - 6 6 * ; 6 6 6 6 ; * - ; 6 q q * 6 q 6 ; 6 6 ",
"6 6 6 % 6 6 6 6 ; 6 ; 0 6 6 6 6 ; ; ; 6 6 ; 6 6 6 ; * 6 6 6 6 6 q ; % ; ; 6 6 6 = ; 6 6 6 6 6 6 ; 6 0 q 6 ; ; ; 6 6 6 6 ",
"6 6 6 - ; ; ; * 6 6 6 6 6 6 6 6 ; 6 6 6 6 6 6 6 6 6 ; 6 6 6 6 6 q % X ; ; ; 6 6 ; ; 6 6 6 6 6 ; * 6 6 6 6 6 6 6 6 6 6 6 ",
"6 6 6 ; 6 % $ o ; 6 6 6 6 6 ; 6 6 6 6 6 6 6 6 6 ; 6 6 6 6 6 6 6 q % X - 6 6 6 6 6 6 ; 6 6 6 6 ; % ; 6 6 6 6 6 6 6 6 ; 6 ",
"; 6 6 6 6 %   o ; 6 6 ; ; 6 6 6 6 ; * ; 6 6 6 ; ; 6 6 6 6 - ; 6 ; % - 6 6 6 6 6 6 6 ; 6 6 6 6 6 ; * 6 6 ; ; 6 6 6 ; * 6 ",
"; 6 6 6 6 % X ; 6 6 6 - ; 6 6 6 6 * o - 6 6 6 6 q 6 6 6 6 * ; ; ; % 6 6 6 6 6 6 6 ; * 6 * ; 6 6 6 @ * 6 ; - ; 6 q 0 * 6 ",
"% - ; 6 6 * $ 6 ; 6 ; 6 6 6 6 6 6 ; % * 6 6 6 6 6 6 ; 6 6 6 6 ; 6 - 6 6 6 6 6 6 6 ; ; ; $ ; 6 6 0 @ ; 6 * % ; 6 q q * * ",
"; ; 6 6 6 ; ; 6 ; - 6 6 ; - - 6 6 ; % * 6 6 6 6 6 6 6 6 6 * - 6 6 6 ; 6 6 ; * 6 6 6 6 ; $ % * % % % ; 6 6 6 6 6 6 q 0 % ",
"6 6 6 6 ; 6 6 6 6 ; 6 6 * 6 * 6 6 6 - ; 6 6 6 6 6 6 6 ; ; - % 6 6 6 6 6 6 ; $ 6 6 ; % 6 ; % % ; ; ; 6 6 6 6 6 0 q r q - ",
"; 6 6 6 @ ; 6 6 6 ; 6 6 ; - - 6 6 6 6 6 6 r 6 6 6 6 6 ; 6 6 * 6 6 6 6 6 ; $ o 6 6 6 % * 6 6 6 6 6 6 6 6 * ; q q q r q ; ",
"; 6 ; 6 @ - 6 6 6 % ; 6 6 6 ; ; ; 6 6 6 H _ 6 6 6 6 6 6 ; ; % 6 6 6 6 ; @ % @ 6 6 6 - - 6 6 6 6 6 6 6 6 % % 6 ; ; ; * o ",
"; 6 6 6 % 6 6 6 7 7 7 t w r 7 ; % 6 6 w u.T - - - % ; 6 6 ; ; 6 6 6 6 - @ ; % 6 6 6 ; 7 w p p t w q 6 q - * 6 6 6 6 ; % ",
"; 6 6 - % 7 2 5 R D.T.).J.^ M 5 9 i i F 8.H D D G i G T ) { _ H G G G s 9 i i i H L W / R Q ^ ^ Q B v 8 = ; 6 6 ; 6 6 * ",
"6 6 6 ; a %.#.V.K.U.*X*X*XU.I.I.K.G.T.H 3 / T._.].].].].].].).T.(.).].].'.'.'.E.[.W.W.*XR.U.R.R.R.R.I.D.' _ h y 7 ; ; * ",
"6 ; 6 p &./.;X>X>X>X>X-X@XL.x.t.J W F._ u s P P h h h h h f 1 O # u h P I Y Y Y Y T T X.F.i.z.b..X+X:XiXsXdXrX3XQ.K 6 6 ",
"; % ; @./.[.-X-X*X$XU.b.d.a.a.v ; w s _ $.#.I q * * ; r w w -     * ; ; ; - - - q e h $.i.p.d.v..X=X<XaXsXfXgX8X7XG.8 6 ",
"* o 2 H.K.P.$XL.z.p.a.a.a.a.! = y y w ; w T $.H.&.@.Y h a y t 1 = t g g a a g h X.Q.|.%X#X#X=X:XqX0X9XqXdXdXdXtXrXY.D ; ",
"; ; T I.L.K.s.p.p.a.g.g.g.d.J ; y k l l = * ; P @.J.R.R.).).).).(.)._._.{.|.|.eXtXgXfXtXeX6X5X4X^.~.~.}.sXsXfXfXsX%X` & ",
"; P !.K.h.w.p.p.a.a.f.g.g.p.v ; y k l } e = = = w ~ a.k.m. X.X+X+X+X+X+X+X#X&X=XyXgXgX5X3X<.<.:.-.*.*./.iXsXsXsXsX:XG.4 ",
"q #.i.w.p.a.a.a.a.a.a.a.a.q.4 ; y y a k w ; - ; t ^ a.k.l.M.M.N.B.A.A.S.XXXXXXoX,XsXfX5X2X-.,.>.-.*.*.Q.wXsXsXsXsXyXJ.K ",
"d ' 3.w.a.a.a.p.p.p.p.p.p.6.> ; y e w y = - = ; p 7.p.d.k.v.m.M.M.N.N.B.B.A.XXXX#XiXsX6X3X;.<.<.>.*.*.;.1XiXiXpXpXyXY.) ",
"j ' 2.0.p.p.p.p.p.p.p.p.p.5.& ; d y w q = = - q s 5.p.a.j.k.v.v.n.m.M.M.N.N.A.A.oX<XsX6X2X:.<.<.,.*.*.;.|.iXiXiXiXyXR.` ",
"l / 1.9.p.p.p.p.p.p.p.p.a.5.= ; g g k g = % o * s 5.0.p.d.k.v.v.v.v.m.m.m.N.N.B. X:XiX9X<.>.<.2X,.=.*.-.|.iXiXiXiXyXR.` ",
"U ~ 1.9.p.p.p.p.p.p.p.p.a.! = r g 7 y l 7 - 7 y G 5.0.p.d.j.k.v.v.v.v.m.m.m.N.B.A.=XyX9X<.>.,.2X<.=.*.-.{.wXiXiXyXyX@X` ",
"P E C 3.0.w.0.0.w.w.0.w.w.A = w y ; e j q d k k G 2.0.p.d.j.k.v.v.v.v.m.m.m.N.B.m.i.[.9X,.-.:.<.,.*.*.=.`.wXwXwXwX1X@X` ",
"a R V 2.3.4.3.3.3.3.4.4.9.Z = w y ; t k ; * 1 e G 2.0.p.d.j.k.v.v.v.v.m.m.m.N.N.N.P.>X6X;.+.+.*.%. .o.+.`.wXwXwXwX:XU.` ",
"a W V 1.3.3.3.3.3.3.4.4.9.A = q a r y l q X o % s 5.0.p.d.j.k.c.v.v.v.m.m.m.N.N.B.+X1X|.%.}  .+.o.k l } (.>X>X1X:X=XP.` ",
"d W N C 3.3.3.3.6.9.9.9.9.A > ; y d g l q o % * u ! 0.p.d.j.k.c.v.v.v.v.m.m.m.N.B. X:X|.+.[ } o.o.k g U T.-X-X:X=XOXL.) ",
"y L N V 2.3.3.3.3.3.6.6.6.S > ; e y g k q % * * w Q 9.w.p.j.j.j.k.c.v.v.v.v.v.m.N.B.#X`.*.}  .o. .g g U R.#X#X=X+X XK.L ",
"w L N C 2.2.2.2.2.2.3.3.3.S > ; e y g j q % = ; q R 3.9.w.s.j.j.j.j.c.c.c.v.v.v.m.N. XH.-.}  ...} y y Y P..XOXOX XN.G.F ",
"; Y W N 2.6.3.2.S 2.2.2.2.S , * t y g k 1 % - ; 7 J 2.6.9.q.q.e.e.e.e.e.s.h.h.z.z.v.m.#.+.}  .} } e e _ Z.A. X XN.m.D., ",
"* ; H b B C 6.6.3.2.2.2.1.C 5 * e a g g ; * ; ; w J Q ^ r.y.y.y.y.y.V.D.D.D.C.i.i.i.x.D.#.@.X.X.| k j ' N.N.N.N.M.b.) O ",
"; * 1 F b n N t.t.q.3.3.2.C m = w y y e - 1 s T &.Q.!./.^.^.~.X.P %.^.~.~.~.~.^./.}.|.[.E.E.'.).(.!.H.K.b.c.c.x.G.y.D * ",
"; 6 6 G K b n Z V.I.K.i.6.1.N , ; 7 1 i H @.@.X.| }  . . .} l % X y  .} [ l k k l } +.@.r.7.r.C.I.[.;X;X[.K.9.' +.{ 8 ; ",
"; 6 6 t X.F b n n E y.G.D.u.! R v v ) T 2 w 2 1 1 1 2 1 1 1 & O # 2 p p p p u u u s s s K R V S 7.u.I.G.C.7.Q ] @.( 6 6 ",
"% % ; 6 a @.@.m n Z ~ / / Q E R R M m v v 5 x c c c c x x x c x x c c c c c c c c m m M b b n B B n n b b x 4 7 u 7 6 6 ",
"+ * 6 6 6 w 9 x B D.`.{.(.~ z : , , > 3 M D 2 2 2 > > 2 2 4 4 2 2 1 1 1 1 1 1 1 < 3 v m b M M M b x 3 > # = ; ; 6 6 6 6 ",
"; 6 6 * ; 6 6 1 7 p U } [ a > ; 6 0 0 ; 4 D q q 0 - - 6 6 6 6 6 ; 6 6 6 6 6 6 6 ; $ 1 w f P P f 1 1 6 6 * ; 6 6 ; * 6 ; ",
"6 6 ; . ; 6 6 6 6 - * 6 6 * - 6 6 6 6 ; * 7 6 6 q * * 6 6 6 6 6 6 6 6 6 6 6 6 6 6 X * 6 ; * 0 q % ; 6 6 * ; 6 6 6 - 6 ; ",
"- ; ; X ; q ; ; ; 6 * 6 6 - - 6 ; ; 6 ; % 6 6 6 6 * ; 6 6 6 6 6 6 6 6 6 ; 6 6 6 ;   o @ - @ ; * % 6 6 6 6 6 6 6 6 6 6 - ",
"X ; 0 * % * ; 6 ; 6 * 6 6 % % 0 q q q 6 % 6 6 6 - % 6 6 6 % ; 6 6 6 6 6 6 6 6 6 o   * . @ % * * ; 6 6 6 6 6 6 6 6 6 * o ",
"  * ; 6 ; 6 6 6 6 * % 6 6 - * 6 6 q 6 6 @ % % * % $ 6 6 6 * ; 6 6 6 6 6 6 6 6 ; . o 6 * * ; 6 6 6 6 6 6 6 ; ; 6 % o % o ",
"  % ; 6 6 6 6 6 6 6 ; 6 6 ; % ; 6 6 6 ; @ * ; ; ; ; ; 6 6 6 6 6 6 6 6 6 6 6 6 6 * o ; 6 6 6 6 - 6 6 6 6 - 6 ; * X % ; ; ",
"  * ; 6 6 6 6 6 6 ; % 6 6 6 ; - * * % X X * 6 * ; 6 ; 6 6 6 6 6 6 6 ; 6 6 6 6 6 ; @ ; 6 q 6 ; * ; 6 6 6 6 r q o o ; 6 6 ",
"* - ; 6 6 6 6 6 6 6 ; 6 6 6 6 6 ; ; ; @ * 6 6 6 6 6 6 6 6 6 6 ; 6 ; * 6 6 6 6 6 ; @ * ; q q ; o % * ; 6 q q q % * 6 6 6 ",
"6 6 ; 6 6 6 6 % 6 6 6 6 6 6 6 6 6 6 6 % * 6 6 6 6 6 6 6 6 6 6 6 6 * % 6 6 6 0 6 ; @ ; q q q ; * ; * * 6 6 ; 0 % 6 q 6 6 ",
"6 - % ; - 6 ; * 6 6 6 ; * 6 6 ; 6 6 6 * o 6 6 6 6 6 6 6 6 6 6 ; % X o ; 6 6 q 6 ; @ 6 q 6 6 * ; 6 6 6 6 6 % * * q q 6 6 ",
"6 ; * 6 6 6 ; * q 6 6 ; * 6 ; ; 6 6 6 - . ; 6 6 6 6 6 6 6 6 6 * X X * 6 6 6 q 7 6 @ * * * * % ; 6 6 6 6 q 6 6 % 6 6 6 6 ",
"6 ; 6 q 0 6 ; X % ; ; 6 ; ; - 6 6 6 6 ; o ; 6 6 6 6 6 ; 6 6 6 6 - * 6 6 6 6 q q ; * 6 6 6 6 6 6 6 ; ; 6 0 q q ; ; ; 6 6 ",
"; 6 6 ; 6 0 ; o - q 6 6 6 ; * % ; 6 6 ; o ; 6 6 6 6 6 6 6 6 6 ; * % * 6 6 6 6 6 * % 6 6 6 6 ; 6 6 ; * 6 6 q q q 6 6 6 - ",
"* 6 6 ; 6 q 6 - ; q q 0 ; 6 6 ; ; 6 6 ; o - 6 6 6 ; ; 6 6 6 6 6 ; % ; 6 6 6 6 6 * o * 6 6 6 6 6 6 ; * 6 6 6 6 6 6 ; * ; ",
"; 6 6 6 6 6 6 ; * 0 q 6 * ; 6 6 6 ; ; ; X - 6 6 ; $ % 6 6 6 6 6 6 6 6 6 6 6 6 0 % % 6 6 6 6 6 6 6 ; * ; ; 6 6 6 ; * o 0 ",
"; 6 6 6 6 6 6 6 * - 6 6 % * 6 6 ; * % * . % 6 6 ; ; 6 6 ; ; 6 6 6 6 * - 6 6 6 6 @ * 6 6 6 6 6 6 6 - % * * 6 6 ; * ; ; q "
};
