/* XPM */
static char *s79a5L4cdhu6MqA_png[] = {
/* columns rows colors chars-per-pixel */
"60 60 222 2 ",
"   c #040405",
".  c #070708",
"X  c #070809",
"o  c #0B0C0D",
"O  c #100F0F",
"+  c #0E0F11",
"@  c #100F13",
"#  c #0F1012",
"$  c #131315",
"%  c #1A1516",
"&  c #161619",
"*  c #19171A",
"=  c #17181B",
"-  c #1A1A1D",
";  c #340F0F",
":  c #231516",
">  c #2C1416",
",  c #221C1E",
"<  c #2B1A1C",
"1  c #331415",
"2  c #3B1516",
"3  c #391618",
"4  c #351D1E",
"5  c #3C1C1D",
"6  c #1D1D21",
"7  c #231F21",
"8  c #2A1E22",
"9  c #3A1F21",
"0  c #1F2024",
"q  c #222225",
"w  c #2B2325",
"e  c #232428",
"r  c #2C2728",
"t  c #2C2B2B",
"y  c #322223",
"u  c #3C2325",
"i  c #362529",
"p  c #312D2E",
"a  c #3A2C2C",
"s  c #32302F",
"d  c #343233",
"f  c #3A3535",
"g  c #393738",
"h  c #3D3B3C",
"j  c #4C110E",
"k  c #56130F",
"l  c #441414",
"z  c #43191A",
"x  c #4B1C1C",
"c  c #5B1513",
"v  c #581917",
"b  c #561C1A",
"n  c #681916",
"m  c #631E1C",
"M  c #6B1D1B",
"N  c #731C18",
"B  c #7B1E1A",
"V  c #4E201F",
"C  c #55201F",
"Z  c #6C221F",
"A  c #77201D",
"S  c #471F21",
"D  c #4C2222",
"F  c #46282A",
"G  c #442B2C",
"H  c #572423",
"J  c #552B2B",
"K  c #5A2B2A",
"L  c #452E30",
"P  c #443436",
"I  c #4A3434",
"U  c #45383A",
"Y  c #533535",
"T  c #5D3232",
"R  c #573C3C",
"E  c #632422",
"W  c #6B2422",
"Q  c #6A2826",
"!  c #772927",
"~  c #7B302E",
"^  c #6B3635",
"/  c #663A39",
"(  c #6B3A3B",
")  c #793838",
"_  c #77403F",
"`  c #6F3E40",
"'  c #444344",
"]  c #494646",
"[  c #4B4A4A",
"{  c #564545",
"}  c #5A4949",
"|  c #524F51",
" . c #555454",
".. c #5B595A",
"X. c #664444",
"o. c #644B4C",
"O. c #6D4C4C",
"+. c #764545",
"@. c #7D4B4D",
"#. c #684F51",
"$. c #6D5454",
"%. c #615E5E",
"&. c #785656",
"*. c #656364",
"=. c #696566",
"-. c #696768",
";. c #6C6A6B",
":. c #766968",
">. c #706F70",
",. c #747273",
"<. c #7D7B7C",
"1. c #831F1B",
"2. c #84211D",
"3. c #8C231E",
"4. c #93251F",
"5. c #832623",
"6. c #8E2521",
"7. c #862A27",
"8. c #8C2D2B",
"9. c #922521",
"0. c #9B2723",
"q. c #9D2924",
"w. c #952C29",
"e. c #8E322E",
"r. c #96302D",
"t. c #833735",
"y. c #943B39",
"u. c #A02722",
"i. c #A52A25",
"p. c #AB2C26",
"a. c #A42D29",
"s. c #AA2E29",
"d. c #B02F29",
"f. c #A4322D",
"g. c #AC312D",
"h. c #B2322D",
"j. c #B8322E",
"k. c #A93835",
"l. c #B43632",
"z. c #B93733",
"x. c #BC3935",
"c. c #B73B3A",
"v. c #C13B37",
"b. c #C43D3A",
"n. c #C93E3B",
"m. c #91413F",
"M. c #C6413E",
"N. c #CD403E",
"B. c #813E42",
"V. c #874746",
"C. c #8C4243",
"Z. c #9C4442",
"A. c #9A4A48",
"S. c #89514F",
"D. c #895757",
"F. c #975957",
"G. c #9A5D5C",
"H. c #A74744",
"J. c #AB4A4A",
"K. c #B64543",
"L. c #AA504C",
"P. c #B9524E",
"I. c #A95956",
"U. c #B65B59",
"Y. c #99625E",
"T. c #A6635F",
"R. c #AC605D",
"E. c #955F60",
"W. c #886868",
"Q. c #986664",
"!. c #946F6D",
"~. c #81716F",
"^. c #946E71",
"/. c #897676",
"(. c #957D7D",
"). c #A46461",
"_. c #A86261",
"`. c #B36361",
"'. c #BE6966",
"]. c #B8706C",
"[. c #A77776",
"{. c #B27A79",
"}. c #CA4443",
"|. c #C84948",
" X c #CD4C4A",
".X c #D44746",
"XX c #CE5353",
"oX c #C65A59",
"OX c #D55858",
"+X c #C3615C",
"@X c #C56565",
"#X c #C96968",
"$X c #CB6A6A",
"%X c #D26364",
"&X c #D96969",
"*X c #CB716D",
"=X c #CB7573",
"-X c #D37071",
";X c #D77877",
":X c #D47D7B",
">X c #E16D6D",
",X c #E37B7A",
"<X c #CE817E",
"1X c #817F80",
"2X c #D57E83",
"3X c #868384",
"4X c #978788",
"5X c #A98686",
"6X c #AF908F",
"7X c #B79998",
"8X c #C88485",
"9X c #DC8383",
"0X c #D88786",
"qX c #D59392",
"wX c #D99997",
"eX c #E28485",
"rX c #E48C8B",
"tX c #E39796",
"yX c #EA9393",
"uX c #EC9B9A",
"iX c #D9A4A5",
"pX c #E9A2A3",
/* pixels */
"q 6 6 - $ - 6 & - - - 6 - - 6 6 6 + & - 6 6 - $ X - 6 6 6 $ - 6 6 $ * 6 6 6 6 & o - 6 6 = - e q q 6 $ - - - $ 6 6 6 & t ",
"6 - 6 & + - 6 $ * 6 6 6 6 6 6 - - + = 6 6 6 6 $ @ 6 6 6 6 $ $ - & + - 6 6 6 6 - $ 6 6 6 - 6 e q q 6 + - - - - 6 6 6 $ - ",
"6 6 6 - - $ $ - 6 6 6 6 6 6 6 6 $ X & 6 6 6 6 $ $ - 6 6 6 $ + 6 - $ 6 6 6 - 6 - & 6 6 6 - 6 q q q 6 o - 6 6 6 6 - & * - ",
"- 6 6 6 6 $ & 6 6 6 6 6 6 6 6 6 - o & 6 6 6 6 - & - 6 6 6 & & 6 & + 6 6 6 $ = 6 6 6 6 6 - & 6 6 6 & o - 6 6 6 6 $ o - 6 ",
"- & 6 6 & o & 6 6 - 6 6 6 6 6 6 6 + * - 6 6 - 6 6 6 6 6 6 6 6 6 & $ 6 6 6 - = 6 6 6 6 6 6 6 6 - - 6 $ $ - 6 6 6 $   - 6 ",
"- 6 - $ $ & - - - $ - 6 6 6 6 6 6 + $ & 6 6 6 6 - 6 6 6 - 6 6 6 6 - 6 6 6 6 6 6 6 6 6 6 6 6 6 6 - - $ - 6 = 6 6 & o $ - ",
"& - - $ - 6 6 6 6 6 6 6 6 6 6 6 6 & . $ 6 6 6 6 6 6 6 6 & 6 6 6 6 6 6 6 = - 6 6 6 6 6 6 6 6 - 6 $ # & q 6 6 q 6 - $ & & ",
"& - - $ - 6 6 6 6 6 6 - - 6 6 6 6 - + - & & 6 6 6 6 6 6 - 6 6 6 6 6 - - = - 6 6 $ - 6 6 6 6 - & - 6 6 q 6 & 0 6 6 6 6 6 ",
"- 6 6 & - 6 6 6 - 6 - 0 6 6 6 6 - - 6 6 6 6 6 6 6 - $ 6 6 6 6 6 q - + - - 6 6 6 & - 6 6 6 6 6 - - 6 0 0 6 - - 6 6 6 6 6 ",
"6 6 6 - - * - $ - 6 6 6 6 6 6 6 6 6 6 6 6 6 6 6 6 6 6 6 6 6 6 6 q $ o - - - 6 6 - - 6 6 6 6 6 - * 6 6 6 6 6 6 6 6 6 6 6 ",
"- 6 6 - 6 & + X & 6 6 6 6 6 - 6 6 6 6 6 6 6 6 6 = 6 6 6 6 6 6 6 q $ o - 6 6 6 6 6 6 - 6 6 6 6 - $ 6 6 6 6 6 6 6 6 - - 6 ",
"* 6 6 6 6 &   o = 6 6 - & 6 6 6 6 - $ - 6 6 6 6 6 6 6 6 6 & - 6 - $ - 6 6 6 6 6 6 6 6 6 - 6 6 6 * & 6 6 - 6 6 6 0 & = 6 ",
"& - 0 6 6 & X - 6 6 6 - - 6 6 6 6 - + & 6 6 6 6 q 6 6 6 6 - - * - $ 6 6 6 6 6 6 6 = = 6 $ - 6 6 - o - 6 = = - 6 q 6 = 6 ",
"+ & - 6 6 - $ 6 - 6 6 6 6 6 6 6 6 - $ & 6 6 6 6 6 6 - 6 6 6 6 - 6 - 6 6 6 6 6 6 6 - - * + - 6 6 - + 6 6 $ & 6 6 0 6 & $ ",
"* - 6 6 6 6 6 6 6 & 6 6 - - & 6 6 6 & & 6 6 6 6 6 6 6 6 6 $ & 6 6 6 - 6 6 - & 6 6 6 6 - + $ $ $ $ $ 6 6 6 6 6 6 6 q 6 $ ",
"- 6 6 6 * - 6 6 6 6 6 6 & 6 & 6 6 6 - - 6 6 6 6 6 6 6 - - - $ 6 6 6 6 6 6 & # 6 6 - $ - - & & 6 6 6 6 6 6 6 0 q q q q & ",
"- 6 - 6 $ & 6 6 6 - 6 6 6 - = 6 6 6 6 6 6 6 6 6 6 6 6 - 6 6 & 6 6 6 6 - = + * r 6 6 $ & 6 6 6 6 6 6 6 - # - q 0 q q 6 & ",
"6 - 6 0 $ = 6 6 6 & = 6 6 6 6 = & 6 6 6 6 6 - - 6 6 6 6 - = $ 6 6 6 6 & o & u ) q 6 = - 6 6 6 6 6 6 6 6 # = 6 - - - $ o ",
"- 6 6 0 $ 6 6 6 6 6 , u F F F u < y 8 7 6 6 - & = # - 6 - - w w q 6 6 - # - w y.J 6 - 6 6 7 y G P P L y = - 6 6 6 6 - $ ",
"- 6 6 6 # 6 6 , < 5 m 5.8.e.e.7.t.Z.) t.^ / / / ( / ` +.+.V.F.V.V.+.( ( ^ ^ K E H J K J H W 7.L.'.'.J.5.b 9 r 6 - - - $ ",
"6 6 6 w U | &.G.`.'.$X$X$XoXP.U.U.`.R.R.R.T.).).).Q.G.S.@.@.D.F.G.G.Y.Y.Q.Y._ 2 4 G.H.m.J.L.U.@X*X*X@XU.I.Q.~.{ - - 6 * ",
"6 = 8 V.4X7XpXuXyXeXOXM.l.a.q.y.o.f p p r r r r e q q o   X e t t r q q 7 e p I / +.J 5 E f.h.K.+X=X:X:X;X=X{./.P 6 6 6 ",
"- $ S [.7XiXpXuXyXrXeX&XOX|.z.h.K.D.U s - = * - - 7 - X   $ - q q , - 7 a X.S.@.Y w q e : 5.p.a.s.k.K.U.$X*X+X_.&.w 6 - ",
"& : ^ *XwXtXtXtXrX{.5X5X8X8X:X;X>X,X8X{.W.$.o.} } } { I I R { { o.&.D.E.D.O.a * - t d d - x s.p.p.p.p.i.f.J.P.c.F.I * & ",
"- F A.,XuXuXuXyX0X/.>.,.<./.4X6X7XwXpXpXtX2X-X$X$X$X@X@X@X@X@XoXP.K.y.Y r * & & ' ] g d q 5 q.d.h.h.p.p.i.q.f.H.J.D.w + ",
"- J U.rXyXyXyXyX8X:.*.*.;.,.>.<.4XqXpXyX&XOXXX X X X X X}.}.n.x.j.p.w.a - % , q h g d p q < 6.p.p.p.p.p.p.i.i.i.f.I.O.* ",
", ^ '.rXyXyXyXrX{.-.*.=.,.<.,.<.4XqXuX,X.X.X.XN.N.n.n.n.v.v.x.z.h.p.q.F , % - * p t r t q % ! p.p.p.p.p.p.p.p.p.u.9.V.p ",
"w ) #XrXrXrXrXrX[.-.*.-.,.<.>.<.4XqXyX>X.X.XN.n.n.n.v.v.x.x.z.h.g.a.0.J e - - % e q t p q % Z p.i.i.i.i.i.i.p.p.u.3.) U ",
"w V.%XrXrXrXrX9X^.-.*.;.<.1X,.,.4XqXrXOXN.N.n.v.v.x.x.z.z.z.h.g.s.u.9.J q & & % , t d d q $ m p.i.i.i.i.i.i.i.i.0.2.~ P ",
"w C.%XrXrXrXrX9X!.-.*.;.3X3X,.,.(.rXeXXXn.n.v.x.x.z.z.z.z.h.h.g.a.q.9.K e $ o % d g r d e & m p.i.i.i.i.i.i.i.i.0.1.! f ",
"w C.%XeXeXeXeX:XW.=.*.;.3X<.,.,.(.0X@XK.n.n.v.x.x.z.z.z.z.l.h.g.a.q.4.K g d t - g d - r t = b i.i.i.i.i.i.i.i.i.9.1.! P ",
"w C.%X9X9X9X9X:XW.*.....,.;.*.-.(.<XL.k.n.n.v.x.x.z.z.z.z.l.h.g.a.q.4.J d d t - d t - t t - b 9.4.4.4.4.9.9.4.4.3.B Z a ",
": C.oX;X9X9X9X:X&.] h ] %. .[  ./.0X-X}.n.n.v.x.x.z.z.z.z.l.h.g.a.q.9.J q $ o $ g p , r t * b 9.9.4.3.3.3.3.4.9.2.N E a ",
", m.|.%X;X;X;X-X&.g g h ..[ ' ] ~.9X%X}.n.v.x.x.x.z.z.z.z.h.h.g.a.q.6.D * o X $ g d t s e * v 9.9.9.6.9.3.3.4.3.2.N E i ",
"8 ) K. X%X&X%X%X@.d d h  .| ' [ :.=XXXn.n.x.z.z.z.z.z.z.h.h.g.s.i.0.3.D * & $ & g d s t q % m 9.9.6.6.6.3.3.3.3.B N E w ",
"7 ^ K.M.XXXXXXXXV.d t g [  .' ..:.U.}.v.x.z.z.z.l.l.l.g.g.g.f.a.q.9.2.u - - & % g d p r q % M 3.3.3.3.3.2.2.2.2.B N K q ",
", T H.v.}.|.|.|.Z.f t d ] [ h ..=.J.b.x.l.l.l.h.g.g.g.g.f.a.a.q.0.6.A y - - & & g d p r - % M 2.2.2.2.2.A 2.2.3.B M T & ",
"* u y.v.n.n.n.n.c.I t g ] [ ] } o.y.k.f.r.r.r.8.8.8.8.8.8.7.5.5.2.B m w - - & & d d p r - : N 2.2.1.2.2.2.3.3.B c K a X ",
"& , ^ k.c.x.x.x.l._ o.$.&.D.F.I.R.U.R.T.Q.!.!.!.!.!.W.O.O.W.W.Q.D.S.+.R G w - $ t p p t * 1 B 2.2.2.3.9.w.5.n c x y $ o ",
"- 6 D @.O.r.a.J.U.'.=X'.`.I.H.y.A.Q.~.%... . ...%.*...- & [ *.-.;.;.:.:.&.O.R u 8 7 e q % b B 2.6.r.k.Z.t.m c b F 7 6 * ",
"- 6 i B.} ^ 6.Z.`.].U.y.7.B N Q I p r r q q e r t p r O . o - q q 7 - - , r P L Y Y 4 > z M 5.y.A.I.C.W c k x R L 6 6 - ",
"& & - F G a b n M Z W W Z M n C C H D C V D D D D D x z 2 2 z z z z z x x z 1 : 4 T m W Q ~ t.~ ! Z c c k T } U q 6 6 - ",
"X $ = 6 6 - : > > ; j k c c c k k b z 2 ; 1 1 1 1 1 1 1 3 3 z 2 1 3 2 2 2 2 5 H x ; 2 l l j M A.).).A.N v I P q 6 6 6 6 ",
"* 6 6 - - 6 6 6 6 - < 4 F I I Y u 4 8 - $ - 6 q 6 = = 6 6 6 6 7 - 6 6 6 6 6 i D : $ - - % > F #.$.$.R 5 > , 6 6 - - 6 - ",
"6 6 6 o $ 6 6 6 6 - = 6 6 6 = q q 0 6 - & 6 6 0 q - & 6 6 6 6 6 6 6 6 6 6 6 w w - o - 0 & & q e & 0 0 - $ 6 6 6 - & 6 - ",
"- - 6 o $ q 6 - 6 6 & 6 6 - = 6 6 - - 6 $ 6 6 6 6 & * 6 6 6 6 6 6 6 6 6 - 6 6 6 -   o & * $ 6 & $ 6 6 6 6 6 6 6 6 6 6 * ",
"o & 0 & # = = - 6 6 = 6 6 & $ 6 6 0 q 6 $ 6 6 6 - $ - 6 6 & - 6 6 6 6 6 6 6 6 6 +   $ . $ $ $ $ - 6 6 6 6 6 6 6 6 6 = + ",
"  $ 6 6 - - 6 6 6 & $ 6 6 & $ 6 q q 6 6 $ & & * $ o 6 6 6 $ - 6 6 6 6 6 6 6 6 -   o - @ $ - 6 6 6 6 6 6 6 - 6 6 & + $ o ",
"  X & 6 6 6 6 6 6 6 - 6 6 - & - 6 6 6 6 + $ & - * - - 6 6 - 6 6 6 6 6 6 6 6 6 6 $ + 6 6 6 6 - - 6 6 6 - - - - & . $ - * ",
"  o - 6 6 6 6 6 6 6 & 6 6 6 * & = = & o X & 6 & - 6 - 6 6 6 6 6 6 6 6 6 6 6 6 6 & + - 6 q 6 - & 6 6 6 6 6 e 0 X + 6 6 - ",
"o & * 6 6 6 6 6 6 6 - 6 6 6 6 6 - - & o $ - 6 - 6 6 6 6 6 6 6 - 6 - = 6 6 6 6 6 - # & - q 6 - + & - 6 6 q q 0 o - 6 6 6 ",
"- 6 - 6 6 6 6 & - 6 6 6 6 6 6 6 6 6 6 & & 6 6 6 6 6 6 6 6 6 6 6 6 * & 6 6 6 0 6 - # - 0 q q & & * $ - 6 6 6 0 $ 0 6 6 6 ",
"- - & - - - 6 & 6 6 6 6 = 6 6 6 6 6 6 * + 6 6 6 6 6 6 6 6 6 6 - = o + 6 6 6 q 6 - $ q q 0 0 & 6 6 - - 6 - & = & q q 6 6 ",
"6 - $ - 6 6 6 & q 6 6 - & 6 - - 6 6 6 - . - 6 6 6 6 6 6 6 6 6 &   X & 6 6 6 q 6 - + * = & & $ 6 6 6 6 6 6 - = & q 0 6 6 ",
"- - 6 6 0 6 6 o $ - - 6 - - = 6 - 6 6 - X - 6 6 6 6 6 - 6 6 6 - & $ 6 6 6 6 q 7 - & - - 6 6 - 6 6 - 6 6 q e 0 & - - 6 6 ",
"* 6 6 6 6 0 6 + $ 6 - 6 6 - & $ - 6 6 6 o * 6 6 6 6 6 6 6 6 6 - & $ - 6 6 6 6 6 & & 6 6 6 6 6 6 6 = - 6 0 q q q 6 6 6 * ",
"$ 6 6 - - q 6 * * q q q 6 6 6 = - 6 6 - o * 6 6 6 - - 6 6 6 6 6 - $ - 6 6 6 6 6 $ + & 6 6 6 6 6 6 * * 6 6 6 0 6 6 - & - ",
"& 6 6 6 0 6 6 - & 6 q q & & 6 6 6 - - 6 X * 6 6 - $ $ 6 6 6 6 6 6 6 6 6 6 6 6 0 # & 6 6 6 6 6 6 6 - * - - 6 6 - - $ $ q ",
"& 6 6 6 6 6 6 6 & & 6 6 $ $ 6 6 - = $ * X $ - 6 - - - 6 - - 6 6 6 6 & - 6 6 6 6 o = 6 6 6 6 6 6 6 & & & - 6 6 - * & 6 q ",
"o $ $ - - * - - & # - - o o $ - - & $ *     o - 6 6 6 6 - - 6 6 6 - $ $ - - - * X * 6 6 6 6 - * & $ $ & $ - 6 - = - - q "
};
