/* XPM */
static char *s79aznrTSc0c6fU_png[] = {
/* columns rows colors chars-per-pixel */
"60 60 223 2 ",
"   c #040405",
".  c #070809",
"X  c #0B0B0C",
"o  c #140C0D",
"O  c #0E0E11",
"+  c #140F11",
"@  c #0F1012",
"#  c #131315",
"$  c #1B1416",
"%  c #151619",
"&  c #1A171A",
"*  c #17181B",
"=  c #1A1A1D",
"-  c #280E0D",
";  c #360D0E",
":  c #231416",
">  c #2B1415",
",  c #211619",
"<  c #221B1D",
"1  c #2C1B1E",
"2  c #3A1617",
"3  c #341A1C",
"4  c #25201E",
"5  c #1D1D21",
"6  c #221E21",
"7  c #2D1F21",
"8  c #341F21",
"9  c #1F2023",
"0  c #222225",
"q  c #2A2325",
"w  c #272628",
"e  c #2C2B2C",
"r  c #322425",
"t  c #3B2325",
"y  c #3E2729",
"u  c #37292A",
"i  c #312D2E",
"p  c #312F30",
"a  c #3C2F31",
"s  c #2F3030",
"d  c #343233",
"f  c #3A3535",
"g  c #393738",
"h  c #373838",
"j  c #3C3B3C",
"k  c #460F0E",
"l  c #52120F",
"z  c #431414",
"x  c #491515",
"c  c #441C1C",
"v  c #4B1B1B",
"b  c #5B1412",
"n  c #591817",
"m  c #551C1B",
"M  c #661B17",
"N  c #6D1A16",
"B  c #741C18",
"V  c #7D1E1A",
"C  c #6D211E",
"Z  c #7A211F",
"A  c #432626",
"S  c #4B2625",
"D  c #45272B",
"F  c #432A2B",
"G  c #4A2C2C",
"H  c #532423",
"J  c #5B2322",
"K  c #582B2B",
"L  c #5B2B2C",
"P  c #4F2F30",
"I  c #5A2E32",
"U  c #433434",
"Y  c #4B3535",
"T  c #493A39",
"R  c #533434",
"E  c #5C3233",
"W  c #53393A",
"Q  c #5B3C3C",
"!  c #6B2927",
"~  c #742421",
"^  c #792926",
"/  c #6C312F",
"(  c #7C312F",
")  c #6B3635",
"_  c #773837",
"`  c #413F40",
"'  c #723F41",
"]  c #444243",
"[  c #4E4243",
"{  c #4C4B4B",
"}  c #584546",
"|  c #514F50",
" . c #555253",
".. c #5B5A5B",
"X. c #684949",
"o. c #774747",
"O. c #645758",
"+. c #765556",
"@. c #78605F",
"#. c #656464",
"$. c #686768",
"%. c #6E6B6C",
"&. c #726D6D",
"*. c #7B6969",
"=. c #716F70",
"-. c #757374",
";. c #7B7677",
":. c #7D7B7B",
">. c #811F1B",
",. c #83211C",
"<. c #8C231F",
"1. c #91241F",
"2. c #832421",
"3. c #8E2521",
"4. c #812C2A",
"5. c #8E2B28",
"6. c #922621",
"7. c #9A2721",
"8. c #912926",
"9. c #9C2923",
"0. c #952B28",
"q. c #9A2E2B",
"w. c #8A312D",
"e. c #843D3B",
"r. c #8C3939",
"t. c #983835",
"y. c #A52A25",
"u. c #AA2C26",
"i. c #A42E2A",
"p. c #AB2F2A",
"a. c #B12F28",
"s. c #A5312E",
"d. c #AD312D",
"f. c #B2332E",
"g. c #BC352F",
"h. c #A63835",
"j. c #B43632",
"k. c #B93733",
"l. c #BC3935",
"z. c #BA3C3A",
"x. c #C13A36",
"c. c #C43D3A",
"v. c #C93E3C",
"b. c #8B413F",
"n. c #9F423F",
"m. c #AE413E",
"M. c #B7423F",
"N. c #CB403D",
"B. c #D0413F",
"V. c #844646",
"C. c #8C4342",
"Z. c #8B4C4A",
"A. c #934344",
"S. c #9C4543",
"D. c #984B4A",
"F. c #9B4C4B",
"G. c #9D534F",
"H. c #875453",
"J. c #935957",
"K. c #985856",
"L. c #A84B47",
"P. c #B64A47",
"I. c #B1524F",
"U. c #A95957",
"Y. c #B75A57",
"T. c #8D615F",
"R. c #B8615E",
"E. c #866B6B",
"W. c #976A69",
"Q. c #887A7A",
"!. c #977776",
"~. c #AD6563",
"^. c #A26D6D",
"/. c #B36663",
"(. c #B46866",
"). c #BB6967",
"_. c #B56D6B",
"`. c #BC716E",
"'. c #A87979",
"]. c #BA7877",
"[. c #C54544",
"{. c #CA4343",
"}. c #CA4A49",
"|. c #D64745",
" X c #CC4F50",
".X c #CE5353",
"XX c #CB5C5B",
"oX c #D65B5B",
"OX c #C5625F",
"+X c #D45D60",
"@X c #C86663",
"#X c #CB6C6B",
"$X c #D76667",
"%X c #D36A6A",
"&X c #CD726E",
"*X c #CD7571",
"=X c #CA7A78",
"-X c #D67978",
";X c #D57C7A",
":X c #E16A6A",
">X c #E47978",
",X c #817F81",
"<X c #838182",
"1X c #998686",
"2X c #A78584",
"3X c #BF8989",
"4X c #A79A9A",
"5X c #C88282",
"6X c #D68686",
"7X c #DC8484",
"8X c #CF9593",
"9X c #D89898",
"0X c #E28382",
"qX c #E78B8B",
"wX c #E48C8B",
"eX c #E7908E",
"rX c #E39393",
"tX c #EA9493",
"yX c #E49B9A",
"uX c #EC9B9A",
"iX c #E29FA0",
"pX c #D6A5A6",
"aX c #EBA2A4",
/* pixels */
"d = = * * 5 % X X X X # # & 5 5 5 5 = X # # # # X o $ 1 r r r r r r q 6 = .     # # O * * X X   # = # X # # # # # X X X ",
"0 5 * * = 5 5 * % # # = = 5 5 5 5 5 = X = 5 = 8 G / _ C.C.A.A.A.A.C.e.) I 8 o   # # # = 5 = % X = 5 * # 5 5 5 5 5 = = * ",
"0 % # = = 5 5 = % * % 5 5 5 5 5 5 5 = O 0 D K _ S.L.M.[. XXX$X$X%X%X#X).Y.F./ 2 < = * 5 5 5 = # 5 0 5 % 5 5 5 5 5 5 5 5 ",
"5 # % 5 5 5 5 5 5 = * 5 5 5 5 5 5 = # O I o.o.z.x.c.{..X%X-X7XwXwXwXwXwXqX>X`.^.o.0 5 5 = 5 5 = 9 0 0 = * = 9 5 5 5 5 = ",
"* = 5 5 0 0 0 5 5 = % 5 5 = 5 5 5 = # # U | V.z.v.}.XX%X;X7X7XwXwXwXeXtXuXuX9X4X1Xp = = # % 5 5 5 5 0 5 # = 9 5 * 5 5 = ",
"= 5 = = = 0 0 0 5 = = 5 5 5 5 5 5 5 = $ U ( s.x.N.}.XX%X;X7X7XwXwXwXwXtXtXuXyXpX4Xj 5 = = * = = 5 = = # X * 5 0 0 5 = = ",
"5 5 5 5 # 5 0 0 5 5 5 5 5 % = % % * @ - C 8.s.x.v.}..X%X-X7X7X0XwXqXwXtXtXuXyXaX9XQ = 5 = = 5 = = 5 5 5 # * 5 5 5 = = 5 ",
"5 5 0 0 % % % = 5 5 5 5 5 % = = 5 5 O ; Z U.m.x.v.}..X$X*X;X;X;X6X7XwXeXtXtXrXuXuXo.= 5 = = 5 * * 5 5 5 * = 5 = 5 # % 5 ",
"5 5 5 0 # 5 = 5 5 = # = = % 0 0 0 9 # ; ^ `.P.j.h.C.o.X.X.+.*.E.E.W.!.].5X6X9XtXeXZ.< 5 5 5 5 5 5 5 5 5 # = 5 = 5 = 5 5 ",
"5 5 5 5 O 0 9 0 5 = * # X % 0 0 5 % $ k ( =XU.) f d d d h { #.$.$.$.$.$.&.Q.].qX0XU.3 5 5 5 5 5 5 5 5 5 = 5 5 5 5 5 = * ",
"5 5 5 # X 9 w 0 5 5 5 = % * 5 0 9 * 2 l ( /._.[ w w e d d ] O.$.$.$.#.#.#.;.3X>XoXY.m * * = 5 5 5 % = 5 5 5 5 5 5 = #   ",
"= 5 % X # = 5 = = 5 5 5 = = 5 5 5 5 c b ^ n._.} d g j ` ] { $.%.%.%.%.$.$.Q.5XoX}.Y.~ q = % = 5 5 5 5 5 5 5 5 5 5 = #   ",
"X # X O = = = = 5 5 5 5 5 5 5 % % 0 S b ~ w.(.X.] {  . ...#.:.<X<X:.-.&.%.,X6X[.z.XX^ r 5 * % 5 5 % % 5 5 5 5 5 5 5 #   ",
"X # = 5 5 5 5 5 5 5 5 5 % % # #   0 K b N 2.R.+.{ {  .{ { ..-.:.<XQ.<X:.-.1X-Xj.d.Y.4.u 9 % O 5 5 % 5 = 5 = % # # 5 = X ",
"# 5 5 5 5 5 5 5 5 5 5 % # = # # # 5 L b M V U.H.] j ` ` ] | %.-.-.=.&.&.-.2X%Xp.i.I.^ r 5 = % 5 5 % 5 = 5 = 9 = X = = * ",
"= 5 % 5 5 5 5 % = 5 5 # 5 0 % % 5 e K l K ! I.J. .#...{ { ..=.-.-.:.,X:.,X3X$Xi.A.I.~ q 5 = % 5 5 % * = 5 5 5 = . * 5 5 ",
"= 5 * = 5 5 5 # = 5 5 # 0 9 = # 5 0 c b S Q U.G.X.*.E.E.!.!.'.2X2X1X1X1X1X8XoXD.X.Y.! q 5 % % 5 5 5 5 5 5 5 5 = % 5 5 = ",
"5 5 5 5 5 5 = # = = = % 0 5 = # = = 2 n S f '.L.h.P.OX-X7X7X=X7XwXrXrX9X9XyX*X} W @X_ < 5 5 = 5 5 5 5 5 5 5 5 5 5 5 # X ",
"= 5 5 5 5 5 * = 5 5 5 * 5 5 = O 5 5 1 x S d !.L.j.c.{..X$X@XS.#X0XqXtXuXaXaX'.e W R.L * 5 5 5 5 5 5 5 5 5 5 5 5 5 = # # ",
"= 5 5 5 5 5 % O 5 5 5 5 5 5 = @ 9 5 < x A w *.L.s.l.c.v.{.c.h.[. XoX:X>XrXiX@.w T ).L # % 5 5 5 5 5 5 = * = 5 5 5 5 5 = ",
"= 5 5 5 5 5 % # 5 5 5 5 5 5 = O = 5 5 z A w &.G.s.l.l.c.c.v.c.v.v.B.|.|.%X9X[ * T R.t * = 5 5 5 = = = * = % 5 5 5 = 5 5 ",
"# # * = 5 = # = 5 5 5 5 = = 5 # = 5 5 z A w &.K.q.j.l.l.c.c.c.c.c.N.|.|.+X5Xf * T /.t 5 5 5 5 = O # # X % % & 5 = = % = ",
"X O % 5 5 = = # # % 5 5 = % = # = 5 5 z A w &.K.q.j.l.l.l.l.x.x.c.v.N.|..X].f * U /.y 5 5 5 5 % % = = = 5 5 * 5 = = # % ",
"X = 5 5 5 5 5 # * # 5 5 5 # % % 5 5 5 z A p &.J.q.j.j.l.l.l.l.l.x.c.v.B..X_.d * U (.y 5 5 5 5 % = 5 5 5 5 5 5 5 5 = % = ",
"# 5 5 5 5 5 5 % = = % = 5 5 5 5 5 5 6 z A d -.J.0.j.j.l.l.l.l.l.l.c.v.B..X_.d = U (.y * 5 5 % * = = 5 5 5 5 = % # = 5 5 ",
"# 5 5 5 5 5 = % 5 5 = = 5 = = 5 5 % & z A j ;.J.0.j.j.k.l.l.l.l.l.x.c.N..X(.f = f (.y % = 5 5 = 5 5 5 5 = = 9 5 O = 0 5 ",
"# 5 5 = = 5 * = 5 5 5 5 5 % % 5 5 O # x t e O.H.0.d.j.k.k.l.l.l.l.l.c.N..X(.i * u ~.F * 5 5 5 5 5 5 5 5 = 5 0 0 O = 0 5 ",
"# 5 5 = # 5 = = 0 5 5 5 5 = = 5 5 % 6 x > X q V.0.d.f.j.j.j.j.k.l.l.x.v..X~.= . $ ~.F 5 5 5 = 5 5 5 = % = = 5 5 # = 5 * ",
"X = 5 5 = 5 = * 9 5 5 = = 5 5 5 5 5 6 x > X d V.8.d.d.j.j.j.j.j.j.k.x.c. X~.<   o U.D = 5 5 5 5 = = = = * * 5 5 5 5 5 = ",
"X # 5 5 5 = = % = 5 5 # = 5 5 5 = # & x > 9 %.Z.8.s.d.f.f.f.f.f.j.j.l.x.}.~.q # , ~.R = 5 5 5 5 5 5 = # # = 5 5 5 5 5 5 ",
"X X # * = % 5 5 0 5 5 # = = 5 5 % % , x 3 s :.Z.3.i.s.d.d.d.d.d.f.j.k.x.[.~.e w u (.' 5 5 5 5 5 = % % % = 5 5 5 5 5 = = ",
"# # # = 5 5 5 5 5 5 5 = = 5 = = 5 5 , z 3 d Q.C.3.9.i.p.p.p.p.p.d.f.f.g.z.~.i w U /.E 5 5 5 5 = * = 5 5 5 5 5 5 5 5 5 5 ",
"5 0 % 5 5 5 5 5 5 5 5 5 5 5 % = 5 = & x 3 d Q.e.<.6.9.y.y.y.y.y.y.p.d.f.j.Y.f w U (.E 5 5 5 5 # # * 5 5 5 5 5 5 5 % = 5 ",
"5 5 5 5 5 5 5 5 5 5 0 5 5 5 = = 5 % # z 3 d Q.( ,.<.6.7.9.7.7.9.9.y.y.u.p.Y.T = U /.F 5 5 5 5 % 5 = = 5 5 = = 5 5 5 5 = ",
"* 5 5 5 5 5 5 5 5 5 0 5 5 5 5 5 5 = $ z 3 e E.L J C ~ ,.2.<.<.3.3.3.8.5.4.F.} * U ~.y 5 5 5 5 5 = 5 5 5 5 * * 5 = 5 5 = ",
"# = 5 5 5 = 5 = = 5 5 = = 5 5 5 = 5 6 x 3 d E.u 0 q r u F G G G A F y u w X.+.# U ~.y 5 5 5 5 = = 5 5 5 5 # # = # # 5 5 ",
"# = 5 5 5 = = % = = 5 % # * = = = 5 6 x 3 f +.4 = = * # # w d d * 0 0 = = U J.< U ~.t 5 5 5 5 = 0 5 = 5 = # 5 5 % O O % ",
"= 5 5 5 5 5 5 5 5 5 = # * * % O = 5 6 z 1 } R 0 * & * # X = g 0 X * & & # 6 H.U T U.t 5 5 5 5 = 5 5 = = # = 5 5 5 = O * ",
"5 5 5 % * 5 5 % O @ @ 5 5 5 5 O % t A c , X.7 # # # # X . # i = # $ * = = # Q X.F ( F Y W 0 9 5 = 5 5 = # = 5 5 5 5 % 5 ",
"& = = % # 5 5 # * = % 5 5 5 5 % % 1 m H , I & * = 6 < 6 < & 0 = * $ * 0 w # r o.r 2 4.r.P 0 5 5 5 5 5 5 % 5 5 = = 5 5 5 ",
"# = = = = 5 5 % 0 0 * 5 5 5 5 5 = = 7 v Y G w d d g g j j g d j d 0 w d ] j = X.W S H q 5 5 5 5 5 5 = 5 5 5 5 % % 5 5 = ",
"# = 5 5 5 5 = % 0 5 = 5 5 5 = 5 5 = < x ) 8 w i d d d d e w w i d w w i T T w F Z.K.r % = 5 5 5 5 = = 5 5 = 5 # = 5 5 = ",
"X # = = = 5 * # 5 5 5 5 5 5 5 5 = * < m m < e i e e e i w = = 6 d d w e d d e q / D.8 * * = 5 5 5 5 % = 5 5 = @ 5 5 5 = ",
"# 5 0 0 0 0 = # = 5 5 5 5 5 5 5 * # : n J & 0 w w w e e i e e d d d e e e e e < ! S.1 5 5 = = 5 5 5 = 5 5 5 = X = = 5 = ",
"% 0 0 0 0 5 5 5 5 5 5 = = % # = 5 # - n ! 2 $ # # * = = 0 w w w = = = = 5 = & c t.S.3 5 5 = = % = 5 = 5 5 5 5 % 5 5 5 5 ",
"# 5 0 5 5 5 5 5 5 5 # # # # # O = 6 z M 4.B n x 2 > : , , , & $ $ $ > 3 c J ^ p.h.L.v 5 5 = % = 5 5 % = 5 5 = 5 5 5 = = ",
"# % 5 0 5 5 % # 5 5 O = 5 5 = @ * w _ ~ r.,.>.V ,.,.Z Z Z Z ~ 2.2.3.8.9.y.p.u.u.P.I.! 5 5 5 5 5 5 5 5 5 5 # # 5 5 = * # ",
"5 * 5 0 5 = = * 5 = O = 5 5 = # 5 d W.e.b.5.,.,.,.<.6.6.6.6.9.y.y.y.y.u.a.p.u.s.OXR.Z.0 5 5 5 = * 5 5 5 5 X X 5 5 5 5 = ",
"5 * % 5 5 5 5 = 5 5 * % 5 5 5 5 5 d W.b.e.n.<.,.,.<.3.6.6.1.7.y.y.y.y.u.a.a.y.M.*X#XK.0 5 5 5 = % 5 5 = O   X 5 5 5 5 = ",
"5 = = 5 5 5 5 5 5 5 5 # = 5 5 5 5 d W.e.^ U.3.,.,.,.3.6.<.1.7.y.y.y.y.u.a.p.u.Y.;X@XJ.0 5 5 5 5 5 5 5 = X O # = = 5 5 5 ",
"5 5 5 5 5 = 5 5 5 5 5 = = 5 5 5 5 w ) ~ n F.q.,.,.,.<.3.<.<.7.y.y.y.y.u.a.u.s.@X-XP._ 5 5 5 5 5 5 5 5 5 % = = = % 5 5 5 ",
"5 5 5 5 5 = = 5 0 0 5 = = 5 5 5 5 6 n M b ( t.<.,.,.<.3.<.<.7.y.y.y.y.u.u.y.h.*X-Xt.m = 5 5 5 5 9 = 5 = 5 5 5 5 % = 5 5 ",
"5 5 = 5 5 0 % 9 0 5 = = % * 5 5 5 5 2 H b M w.6.,.,.<.<.<.<.7.y.y.y.y.u.y.y.I.*X*X_ 3 5 5 5 5 = = 5 5 5 5 5 5 5 % % 5 % ",
"# # O = 5 0 5 5 0 % # # 5 5 5 5 5 5 1 O.H b M <.<.,.<.<.<.1.7.y.y.y.y.y.y.s.OX&X].} + 5 5 5 5 5 5 5 5 5 5 5 5 = # # 5 = ",
"= # X % 5 5 = = = # 5 = 5 5 5 5 5 5 5 [ Y n b N 3.,.,.<.1.1.9.y.y.y.u.u.9.P.P._.!.} X = 5 5 5 5 5 5 % % 5 = % @ # = 5 = ",
"5 =   # = 5 5 = % # = = 5 5 = 5 5 5 5 w T R m b V ,.,.<.<.<.7.y.y.y.u.y.h.P.L.!.O.w X = 5 5 5 5 5 5 5 5 5 = X % 5 5 = = ",
"5 5 O % 5 5 5 5 5 X # 5 5 5 % = 5 5 5 5 6 u y v M B B V V >.<.1.1.7.7.9.L.D.+.T w * X # 5 5 5 5 5 5 5 5 9 = O 5 5 5 5 5 ",
"= % = = 5 5 5 5 = O 5 0 0 0 9 5 5 5 5 % * 5 = a ) M N N N N V V >.,.<.S.T.U q 5 5 = X # = 5 5 5 5 5 5 5 * % # % % 5 5 5 ",
"= # 5 5 5 * = = = O 5 0 0 w 5 = 5 5 5 # * 5 5 5 a G R E E L / ) _ o.o.Q < = 5 5 5 = O % = 5 5 5 5 5 = 5 # 5 5 # # 5 = 5 ",
"] 5 5 5 = # * = = # = 0 0 0 = * 5 5 = X # 5 5 5 = 5 * w w w w e e w w O X % = 5 * # O = 5 5 = = 5 5 * = % 5 5 % % = 5 0 "
};
