/* XPM */
static char *s75asBJpy9X5fLD_png[] = {
/* columns rows colors chars-per-pixel */
"60 40 229 2 ",
"   c None",
".  c #0D0D0D",
"X  c #010203",
"o  c #170E0E",
"O  c #151414",
"+  c #1A1719",
"@  c #1D1B1C",
"#  c #1B1517",
"$  c #231314",
"%  c #211D1D",
"&  c #2D1B1C",
"*  c #341C1D",
"=  c #351618",
"-  c #3D0C0C",
";  c #1E1F20",
":  c #2A1F20",
">  c #242323",
",  c #2A2525",
"<  c #2D2B2B",
"1  c #292827",
"2  c #3A2324",
"3  c #322D2D",
"4  c #3E2B2B",
"5  c #352425",
"6  c #343333",
"7  c #3A3434",
"8  c #3B3B3B",
"9  c #2E2F30",
"0  c #540E12",
"q  c #5E0E11",
"w  c #4D1114",
"e  c #4C1B1C",
"r  c #441819",
"t  c #531215",
"y  c #5D1316",
"u  c #541619",
"i  c #5B1619",
"p  c #54191B",
"a  c #5B1B1C",
"s  c #4E0D0F",
"d  c #670C0D",
"f  c #640E10",
"g  c #690F12",
"h  c #7A0E11",
"j  c #750E10",
"k  c #611215",
"l  c #691619",
"z  c #7B1619",
"x  c #77181B",
"c  c #6E1E20",
"v  c #741F20",
"b  c #7B1E20",
"n  c #442527",
"m  c #592628",
"M  c #493334",
"N  c #523B3C",
"B  c #583435",
"V  c #642224",
"C  c #6A2527",
"Z  c #712224",
"A  c #792628",
"S  c #6C3B3C",
"D  c #653637",
"F  c #763335",
"G  c #7D2F31",
"H  c #7B3C40",
"J  c #444443",
"K  c #4C4B4B",
"L  c #494747",
"P  c #5A4A4A",
"I  c #504A49",
"U  c #555454",
"Y  c #5C5B5B",
"T  c #654344",
"R  c #6B4346",
"E  c #6A4B4D",
"W  c #744444",
"Q  c #7A4B4C",
"!  c #7E5353",
"~  c #685A58",
"^  c #6D605F",
"/  c #666566",
"(  c #6B696A",
")  c #6A6667",
"_  c #766869",
"`  c #747273",
"'  c #7B797A",
"]  c #797575",
"[  c #716F70",
"{  c #861113",
"}  c #8D1215",
"|  c #89171A",
" . c #931316",
".. c #9C1417",
"X. c #9D1618",
"o. c #97191C",
"O. c #800F12",
"+. c #A11517",
"@. c #A51619",
"#. c #AD161A",
"$. c #AB191C",
"%. c #A61C1E",
"&. c #B4171A",
"*. c #B4191D",
"=. c #BA191C",
"-. c #951E21",
";. c #851F21",
":. c #AC1D22",
">. c #B41E22",
",. c #BA1E22",
"<. c #832D2E",
"1. c #8C2326",
"2. c #972B2D",
"3. c #9E2A2D",
"4. c #972427",
"5. c #912F31",
"6. c #9F2E30",
"7. c #8C3334",
"8. c #8E3A3B",
"9. c #8A3538",
"0. c #93393C",
"q. c #9C3A3C",
"w. c #963134",
"e. c #A5292C",
"r. c #A62427",
"t. c #B32023",
"y. c #BC2125",
"u. c #BD2428",
"i. c #BD2B2E",
"p. c #B3282D",
"a. c #A7383A",
"s. c #B53639",
"d. c #B12F34",
"f. c #C01B1E",
"g. c #C21D21",
"h. c #C22226",
"j. c #C5252A",
"k. c #C9262B",
"l. c #CC292D",
"z. c #CA2226",
"x. c #D12A2F",
"c. c #D1262A",
"v. c #C52D33",
"b. c #D52C31",
"n. c #DB2D34",
"m. c #C33338",
"M. c #DB323B",
"N. c #D7363C",
"B. c #E53239",
"V. c #E12F37",
"C. c #953E42",
"Z. c #A93E41",
"A. c #B43E43",
"S. c #C73F42",
"D. c #DB3C44",
"F. c #F13B45",
"G. c #844E4E",
"H. c #8B4D4E",
"J. c #8D4243",
"K. c #9A4548",
"L. c #865252",
"P. c #8B5353",
"I. c #865C5D",
"U. c #945352",
"Y. c #9B5254",
"T. c #975859",
"R. c #AB4C4D",
"E. c #A74648",
"W. c #B84449",
"Q. c #AB4E51",
"!. c #A35354",
"~. c #AC5252",
"^. c #A6595B",
"/. c #B85758",
"(. c #A65D60",
"). c #8C6668",
"_. c #9B6463",
"`. c #946C6D",
"'. c #946768",
"]. c #807D7E",
"[. c #8A7879",
"{. c #9A7D7E",
"}. c #A56567",
"|. c #BB6565",
" X c #A47779",
".X c #AE6F72",
"XX c #C44648",
"oX c #DB454A",
"OX c #C5595B",
"+X c #CC585A",
"@X c #D5595B",
"#X c #DF4F56",
"$X c #E1464C",
"%X c #E24D53",
"&X c #EA4E55",
"*X c #E6545B",
"=X c #C35D60",
"-X c #EB5F65",
";X c #CA6767",
":X c #D86767",
">X c #D77878",
",X c #D07274",
"<X c #E56569",
"1X c #E86D72",
"2X c #EB7A7C",
"3X c #E37577",
"4X c #F46D75",
"5X c #DD7E80",
"6X c #EB7E81",
"7X c #F97D80",
"8X c #8B8384",
"9X c #948A89",
"0X c #BC8687",
"qX c #AE8F8E",
"wX c #CA8285",
"eX c #DC8788",
"rX c #D99597",
"tX c #CB9495",
"yX c #EF8184",
"uX c #E4878A",
"iX c #F38386",
"pX c #F28689",
"aX c #F58B8D",
"sX c #F88B8D",
"dX c #F58E91",
"fX c #FB8D90",
"gX c #F89698",
"hX c #F79EA1",
"jX c #EAA1A1",
/* pixels */
"                                                                                                                        ",
"                                                                                                                        ",
"                                                                                                                        ",
"                                                                                                                        ",
"                                                                                                                        ",
"                                                                                                                        ",
"                                                                                                                        ",
"                                                                                                                        ",
"                                                                                                                        ",
"                                                                                                                        ",
"                                                                                                                        ",
"                                                                                                                        ",
"                  u y F _._.P.V s -       c D                                   u u p V V V i s                         ",
"              E E m d z 7.0.7.x l l k i p e r 0 0 t t t w t t w t t t t t t t t u y q f f g g f q q 0 r 5               ",
"            R B m k f x 7.q.w.1.x p e V B * 5 * & & & * & & $ o $ 5 4 2 2 2 2 2 2 n m x h | 1.q.E.Z.4.b N H             ",
"            m a d x 5.a.a.r.o.{ w @ > , 2 n D T P P U U U U 8 O ; K U K L J J I ~ ! 0.3.a.W./.;X;XOXs.:.9.Q 0.          ",
"          n u d j o.r.X... .} z = ; < < < @ % 4 B W H.T.'.).I.T R ).`.`.`.'._.}.|././.~.!.T.P.! J.v.l.k.v.s.5.          ",
"          C d { .... .} } } } j $ > < 6 6 @ O @ @ n z | -.4.4.4.4.3.3.3.e.e.p.p.i.q.E P I L 8 9 B i.n.n.n.b.d.F         ",
"        F z {  . .} }  . . . .g # > < 6 6 @ O @ @ e  .X.$.:.>.t.y.y.u.u.u.j.k.l.b.E.) K J K 8 1 7 a.N.D.D.M.m.9.        ",
"        C h {  . . . .........k + > < 6 6 @ O @ % a ..$.>.y.y.y.j.j.j.j.l.l.l.b.D.=X_ K K U J < 7 K.%X#X%XoXN.a.        ",
"        C h } ....X.X.X.X.X.X.y @ 1 3 6 7 % . O % l +.$.,.y.h.j.j.k.k.l.l.x.b.n.&X,X^ J L U J 6 6 H.<X<X<X*XD.Z.        ",
"        Z h  .X.X.X.X.X.X.X.X.u @ < 1 < 7 @ . . > c @.*.,.y.j.j.k.l.l.l.x.b.b.M.<X5X_ K K Y K 8 8 L.3X2X2X1X#XA.        ",
"        Z O. .+.X.X.X.X.+.+.X.u @ < > > 6 @ @ , 3 v @.*.,.y.j.j.k.l.l.l.x.b.n.v.+X>X[.Y Y ( Y K U ).3X6X6X2X<XW.        ",
"        A } +.#.&.#.#.#.#.&.$.u @ < > 1 6 > < 6 7 v @.*.,.y.j.j.k.l.l.l.x.b.n.m.OX>X[.` ` ].[ / / `.2XyXyXyX1XW.        ",
"        <. .#.&.&.&.&.&.*.*.*.i @ < < 3 6 @ O @ 3 v @.*.,.y.j.j.k.l.l.x.b.b.n.$X2XuX[.` ' 8X` / ) `.6XiXiXpX1XW.        ",
"        7. .#.&.&.&.&.&.&.&.*.k + 1 6 3 , + O O , v #.*.,.h.j.k.l.l.x.b.b.n.V.&XiXuX8X` ' ].` / ( .XyXpXpXpX1XW.        ",
"        8...&.=.&.&.&.&.&.&.*.l + 1 < > > @ @ @ , Z &.,.h.k.l.x.x.b.b.n.n.V.B.-XfXeX9X` ' ' ( / ( .XpXaXaXaX1XE.        ",
"        K.e.#.=.=.=.=.=.=.=.=.z % 1 < < 6 > @ @ > V *.g.z.c.x.b.n.n.V.B.B.B.F.4XgXrX8X` ] ` ( / _ ,XaXaXdXaX3XC.        ",
"          ^.s.t.&.&.=.=.f.f.f.o.& 1 6 8 J , @ @ > m ,.k.b.N.oXoXoX$X$X%X&X*X4XdXhXtX9X].' ` ( / _ eXgXgXgXfX:X8.        ",
"          G.A.m.s.t.&.=.=.f.f.%.* 1 6 8 6 @ % 4 T H.R.Q.!.!.Y.Y.Y.^.^.(.}..XwXrXgXuXeXwX0X0X{.[. XuXgXgXgXpXW.G         ",
"            U.XX@X+XS.i.y.=.=.=.a > < > , M W Q R N M 3 3 < > O @ < < < < < 7 P I.OXD.D.%X-X3X5XuXdXgXgXrX0XK.          ",
"            I. X,X>X3X:X@XXXi.y.-.r 2 B S S M 3 ; @ > , 1 , O X . % > > > > > < 3 N C.:.*.h.N.*X7XfXgXjXqX X            ",
"              ).`./.+X:X:X:X+XXXs.a.w.!.B = D L.L.L.G.G.G.Q S D W G.L.P.U.U.U.Y.!.!.~.W.S.oX@X@X:X;X|.`.]               ",
"                  C 1.a.;X;XW.2.A <.7.8.Z x <.E.R.~.~./.~././.!.~.~.Q.R.R.E.E.E.q.a.5.2.6.3.2.1.Z                       ",
"                                          6.                                                                            ",
"                                                                                                                        ",
"                                                                                                                        ",
"                                                                                                                        ",
"                                                                                                                        ",
"                                                                                                                        ",
"                                                                                                                        ",
"                                                                                                                        ",
"                                                                                                                        ",
"                                                                                                                        ",
"                                                                                                                        ",
"                                                                                                                        ",
"                                                                                                                        ",
"                                                                                                                        ",
"                                                                                                                        ",
"                                                                                                                        ",
"                                                                                                                        ",
"                                                                                                                        ",
"                                                                                                                        ",
"                                                                                                                        ",
"                                                                                                                        ",
"                                                                                                                        ",
"                                                                                                                        ",
"                                                                                                                        ",
"                                                                                                                        ",
"                                                                                                                        ",
"                                                                                                                        ",
"                                                                                                                        ",
"                                                                                                                        ",
"                                                                                                                        ",
"                                                                                                                        ",
"                                                                                                                        ",
"                                                                                                                        "
};
