/* XPM */
static char *s75a3UeNwCgJlUN_png[] = {
/* columns rows colors chars-per-pixel */
"60 60 228 2 ",
"   c None",
".  c #0D0D0D",
"X  c #010203",
"o  c #170E0E",
"O  c #151414",
"+  c #1A1719",
"@  c #1D1B1C",
"#  c #1B1517",
"$  c #231314",
"%  c #211D1D",
"&  c #2D1B1C",
"*  c #341C1D",
"=  c #351618",
"-  c #3D0D0D",
";  c #1E1F20",
":  c #2A1F20",
">  c #242323",
",  c #2A2525",
"<  c #2D2B2B",
"1  c #292827",
"2  c #352425",
"3  c #3A2324",
"4  c #322D2D",
"5  c #3E2B2B",
"6  c #343333",
"7  c #3A3434",
"8  c #3B3B3B",
"9  c #2E2F30",
"0  c #590E11",
"q  c #4D1114",
"w  c #4C1B1C",
"e  c #441819",
"r  c #541215",
"t  c #5D1316",
"y  c #551619",
"u  c #5B1619",
"i  c #54191B",
"p  c #5B1B1C",
"a  c #4E0D0F",
"s  c #670C0D",
"d  c #640E10",
"f  c #690F12",
"g  c #7A0E11",
"h  c #750E10",
"j  c #611215",
"k  c #691619",
"l  c #7B1619",
"z  c #77181B",
"x  c #6E1E20",
"c  c #741F20",
"v  c #7B1E20",
"b  c #432527",
"n  c #592628",
"m  c #493334",
"M  c #523B3C",
"N  c #583435",
"B  c #642224",
"V  c #6C2123",
"C  c #662A2C",
"Z  c #712224",
"A  c #792628",
"S  c #6C3B3C",
"D  c #673839",
"F  c #763335",
"G  c #7D2F31",
"H  c #7B3C40",
"J  c #444443",
"K  c #4C4B4B",
"L  c #494747",
"P  c #5A4A4A",
"I  c #504A49",
"U  c #555454",
"Y  c #5C5B5B",
"T  c #654344",
"R  c #6B4749",
"E  c #744444",
"W  c #7A4B4C",
"Q  c #7E5353",
"!  c #685A58",
"~  c #6D605F",
"^  c #666566",
"/  c #6B696A",
"(  c #6A6667",
")  c #766869",
"_  c #747273",
"`  c #7B797A",
"'  c #797576",
"]  c #716F70",
"[  c #861113",
"{  c #8D1215",
"}  c #89171A",
"|  c #931316",
" . c #9C1417",
".. c #9D1618",
"X. c #97191C",
"o. c #800F12",
"O. c #A11517",
"+. c #A51619",
"@. c #AD161A",
"#. c #AB191C",
"$. c #A61C1E",
"%. c #B4171A",
"&. c #B4191D",
"*. c #BA191C",
"=. c #951E21",
"-. c #851F21",
";. c #AC1D22",
":. c #B41E22",
">. c #BA1E22",
",. c #832D2E",
"<. c #8B2326",
"1. c #972B2D",
"2. c #9E2A2D",
"3. c #972427",
"4. c #962E30",
"5. c #8D3334",
"6. c #8C373A",
"7. c #923A3C",
"8. c #9C3A3C",
"9. c #963134",
"0. c #A5292C",
"q. c #A62427",
"w. c #B32023",
"e. c #BC2125",
"r. c #BD2428",
"t. c #BD2B2E",
"y. c #B3282D",
"u. c #A7383A",
"i. c #B53639",
"p. c #B12F34",
"a. c #C01B1E",
"s. c #C21D21",
"d. c #C22226",
"f. c #C5252A",
"g. c #C9262B",
"h. c #CC292D",
"j. c #CA2226",
"k. c #D12A2F",
"l. c #D1262A",
"z. c #C52D33",
"x. c #D52C31",
"c. c #DB2D34",
"v. c #C33338",
"b. c #DB323B",
"n. c #D7363C",
"m. c #E53239",
"M. c #E12F37",
"N. c #953E42",
"B. c #A93D41",
"V. c #B43E43",
"C. c #C73F42",
"Z. c #DB3C44",
"A. c #F13B45",
"S. c #844E4E",
"D. c #8B4D4E",
"F. c #8D4243",
"G. c #9A4548",
"H. c #865252",
"J. c #8B5353",
"K. c #865C5D",
"L. c #945352",
"P. c #9B5254",
"I. c #975859",
"U. c #A34545",
"Y. c #A54C4D",
"T. c #AB4C4E",
"R. c #AC4347",
"E. c #B84449",
"W. c #AB4F51",
"Q. c #A35354",
"!. c #AC5253",
"~. c #A6595B",
"^. c #B85758",
"/. c #A65D60",
"(. c #8C6668",
"). c #9B6463",
"_. c #946C6D",
"`. c #946768",
"'. c #807D7E",
"]. c #8A7879",
"[. c #9A7D7E",
"{. c #A56567",
"}. c #BB6565",
"|. c #A47779",
" X c #AE6F72",
".X c #C44648",
"XX c #DB454A",
"oX c #C5595B",
"OX c #CC585A",
"+X c #D5595B",
"@X c #DF4F56",
"#X c #E1464C",
"$X c #E24D53",
"%X c #EA4E55",
"&X c #E6545B",
"*X c #C35D60",
"=X c #EB5F65",
"-X c #CA6767",
";X c #D86767",
":X c #D77878",
">X c #D07274",
",X c #E56569",
"<X c #E86D72",
"1X c #EB7A7C",
"2X c #E37577",
"3X c #F46D75",
"4X c #DD7E80",
"5X c #EB7E81",
"6X c #F97D80",
"7X c #8B8384",
"8X c #948A89",
"9X c #BC8687",
"0X c #AE8F8E",
"qX c #CA8285",
"wX c #DC8788",
"eX c #D99597",
"rX c #CB9495",
"tX c #EF8184",
"yX c #E4878A",
"uX c #F38386",
"iX c #F28689",
"pX c #F58B8D",
"aX c #F88B8D",
"sX c #F58E91",
"dX c #FB8D90",
"fX c #F89698",
"gX c #F79EA1",
"hX c #EAA1A1",
/* pixels */
"                                                                                                                        ",
"                                                                                                                        ",
"                                                                                                                        ",
"                                                                                                                        ",
"                                                                                                                        ",
"                                                                                                                        ",
"                                                                                                                        ",
"                                                                                                                        ",
"                                                                                                                        ",
"                                                                                                                        ",
"                                                                                                                        ",
"                                                                                                                        ",
"                                                                                                                        ",
"                                                                                                                        ",
"                                                                                                                        ",
"                                                                                                                        ",
"                                                                                                                        ",
"                                                                                                                        ",
"                                                                                                                        ",
"                                                                                                                        ",
"                                                                                                                        ",
"                                                                                                                        ",
"                                                                                                                        ",
"                                                                                                                        ",
"                                                                            0.                                          ",
"                      V <.1.2.2.1.4.u.8.R.U.U.T.T.W.!.!.!.^.^.!.^.!.T.Y.U.,.z V 7.5.,.A 1.E.-X-Xu.-.V                   ",
"              ' _.}.-X;X+X+XXXC.E.!.Q.Q.P.L.L.L.J.J.S.E D S W S.S.S.H.J.H.D = N Y.9.u.i..X+X;X;X;XoX^._.(.              ",
"            |.0XhXfXdX6X&Xn.d.&.;.N.M 4 < > > > > > % . X O 1 < 1 > @ ; 4 m D S N 3 e 3.e.z..X+X;X2X:X>X|.K.            ",
"          G.9XeXfXfXsXyX4X2X=X$XZ.Z.oXK.P 7 < < < < < + O > < 4 4 m M R W E m , 1 < > u *.*.*.e.t.C.OX+X.XL.            ",
"        G E.iXfXfXfXyX|.].[.9X9XqXwXsXfXeXqX X{./.~.~.P.P.P.Q.Q.W.T.D.T 5 @ + 7 8 6 1 * $.a.a.*.*.%.w.i.v.V.S.          ",
"        6.;XdXfXfXfXwX) ^ / _ ` '.8XrXgXsX3X&X%X$X#X#XXXXXXXn.x.g.:.n > + + 1 J 8 6 < & X.a.a.a.*.*.%.%.w.i.!.          ",
"        N.2XaXsXaXaX>X) ^ / _ ' _ 7XeXfX3XA.m.m.m.M.c.c.c.k.l.j.s.&.B > + @ > 6 < < < % l *.*.*.*.*.*.*.*.@.0.G.        ",
"        R.<XpXpXpXiX X/ ^ / ` ` _ 8XwXdX=Xm.M.c.c.c.x.k.k.h.g.d.>.%.Z 1 @ + + 1 1 < < + k &.%.%.%.%.%.%.*.%. .6.        ",
"        E.<XiXiXiXtX X/ ^ _ '.` _ 7XyXuX%XM.c.x.x.k.h.h.g.f.d.>.&.@.c , O O # 1 4 6 < + j &.%.%.%.%.%.%.%.@.| 5.        ",
"        E.<XiXuXuX5X_.( ^ _ 7X` _ ].yX1X#Xc.x.x.k.h.h.g.f.f.e.>.&.+.Z 4 @ O @ 7 4 < < @ u &.&.&.%.%.%.%.%.@.| ,.        ",
"        E.<XtXtXtX1X_.^ ^ ] '._ _ ].:XoXv.c.x.k.k.h.h.g.f.f.e.>.&.+.c 7 7 < 1 7 1 > < @ y #.%.@.@.@.@.%.@.O.{ A         ",
"        E.,X1X5X5X2X(.U K Y / Y Y ].:XOXz.c.x.k.h.h.h.g.f.f.e.>.&.+.c 4 1 @ @ 7 1 > < @ y ..O.O.........O.| o.Z         ",
"        V.@X<X1X1X2XH.8 8 L Y L L ) 4X,Xb.c.x.k.h.h.h.g.f.f.e.>.&.+.x > . . @ 8 < 1 < @ y ................| g Z         ",
"        B.Z.&X,X,X,XD.7 6 J U L J ~ >X%Xc.x.k.h.h.g.g.f.f.d.e.:.#.O.k % O . % 8 6 4 < @ t ............ . .{ g Z         ",
"        u.n.XX&X$X$XG.7 < J U K L ) *XZ.x.h.h.h.f.f.f.f.e.e.e.:.#. .p % + O @ 7 6 < 1 + j  . . . .| | | | [ g C         ",
"        6.v.b.Z.Z.n.u.7 < 8 K J K ( R.x.h.g.f.r.r.r.e.e.w.:.;.#...| w ; @ O @ 7 6 < 1 # f | | | | { { | | [ l F         ",
"        F p.x.c.c.c.t.N 9 8 L I P R 8.t.y.y.0.0.2.2.2.3.3.3.3.=.} l b @ @ O @ 6 6 < > $ h { { { { |  . .[ s C           ",
"          5.i.z.g.h.z.F.Q J.I.Q.!.^.^.}.{.).`._._._.(.R T K.(.`.I.D.E N 5 % + < < < ; = l { |  ...q.X.h s y b           ",
"          7.W 6.;.i.oX-X-X^.R.u.2.7.Q ! I J J L K U K ; O 8 U U U U P P T D b 3 , > @ q [ X.q.u.u.4.z s p n             ",
"            H M v 3.B.Y.8.<.} g z n b 3 3 3 3 3 3 5 2 $ o $ & & * & & & * 2 * N C w i z <.9.8.5.z d j n N T             ",
"              2 e 0 0 0 d f f d d 0 t y r r r r r r r r q r r q r r r r a e w i u j k k z 5.7.5.l s n R R               ",
"                        a u B B B i i i                                   C x       - a B J.).).F t y                   ",
"                                                                                                                        ",
"                                                                                                                        ",
"                                                                                                                        ",
"                                                                                                                        ",
"                                                                                                                        ",
"                                                                                                                        ",
"                                                                                                                        ",
"                                                                                                                        ",
"                                                                                                                        ",
"                                                                                                                        ",
"                                                                                                                        ",
"                                                                                                                        ",
"                                                                                                                        ",
"                                                                                                                        ",
"                                                                                                                        ",
"                                                                                                                        ",
"                                                                                                                        ",
"                                                                                                                        ",
"                                                                                                                        ",
"                                                                                                                        "
};
