/* XPM */
static char *s63a27yxx3DVXQz_png[] = {
/* columns rows colors chars-per-pixel */
"60 60 155 2 ",
"   c None",
".  c #030202",
"X  c #0C0704",
"o  c #0E0E0E",
"O  c #120806",
"+  c #110F0E",
"@  c #0F100F",
"#  c #0F181C",
"$  c #121211",
"%  c #1F1510",
"&  c #10171A",
"*  c #1E1D1D",
"=  c #37261A",
"-  c #38271C",
";  c #111A20",
":  c #1A242B",
">  c #252524",
",  c #2A2B2A",
"<  c #392C24",
"1  c #262D35",
"2  c #3C3C3C",
"3  c #32363B",
"4  c #533B2B",
"5  c #2D3542",
"6  c #29414E",
"7  c #30424D",
"8  c #3F494D",
"9  c #2C4455",
"0  c #2F4857",
"q  c #2E4758",
"w  c #2F4958",
"e  c #344553",
"r  c #364956",
"t  c #3A4A54",
"y  c #304759",
"u  c #334B5C",
"i  c #384E5D",
"p  c #37515E",
"a  c #3B505F",
"s  c #364E62",
"d  c #3A4F61",
"f  c #3C5163",
"g  c #3B5468",
"h  c #444444",
"j  c #574A43",
"k  c #52514F",
"l  c #434D55",
"z  c #404F5D",
"x  c #46535E",
"c  c #4A545E",
"v  c #525455",
"b  c #51565B",
"n  c #5C5C5C",
"m  c #795E4D",
"M  c #625F5B",
"N  c #796152",
"B  c #435565",
"V  c #4D5C67",
"C  c #415A6E",
"Z  c #495A69",
"A  c #505A61",
"S  c #505F6B",
"D  c #465E73",
"F  c #4E616B",
"G  c #55626D",
"H  c #5A636C",
"J  c #5D6D6F",
"K  c #466175",
"L  c #4A6276",
"P  c #476478",
"I  c #4C667B",
"U  c #4E697D",
"Y  c #546573",
"T  c #5C6B73",
"R  c #556779",
"E  c #51697D",
"W  c #596A78",
"Q  c gray40",
"!  c #6F6862",
"~  c #6A6B6B",
"^  c #6C716D",
"/  c #7A716C",
"(  c #676E74",
")  c #627278",
"_  c #6A747E",
"`  c #757475",
"'  c #777778",
"]  c #95694B",
"[  c #A67450",
"{  c #A87A56",
"}  c #877A75",
"|  c #8A8165",
" . c #86806E",
".. c #9A8D67",
"X. c #938377",
"o. c #B08D75",
"O. c #D2A35D",
"+. c #556C81",
"@. c #5A6F85",
"#. c #597081",
"$. c #677481",
"%. c #737E88",
"&. c #83878B",
"*. c #8B8A89",
"=. c #838383",
"-. c #978982",
";. c #979592",
":. c #989395",
">. c #999895",
",. c #B59987",
"<. c #BB9B83",
"1. c #B3A196",
"2. c #BFA593",
"3. c #B6A799",
"4. c #BEAEA3",
"5. c #C19B81",
"6. c #D4A88C",
"7. c #CDAB94",
"8. c #C6AB9A",
"9. c #CDAF9B",
"0. c #C2A593",
"q. c #D0AC94",
"w. c #D6B19C",
"e. c #DDB799",
"r. c #DFB89B",
"t. c #E1B99F",
"y. c #C7B4A7",
"u. c #CBB2A1",
"i. c #D4B6A2",
"p. c #DEBBA6",
"a. c #D2B9A8",
"s. c #DEBFAA",
"d. c #E3BCA4",
"f. c #E6BCA8",
"g. c #E8BFA8",
"h. c #DFC3AD",
"j. c #DBC1B1",
"k. c #EBC2A7",
"l. c #E3C1A9",
"z. c #ECC4AC",
"x. c #EEC9AF",
"c. c #F0C7AD",
"v. c #F3C8AE",
"b. c #EAC6B3",
"n. c #E6C8B5",
"m. c #EFCBB3",
"M. c #F6CEB6",
"N. c #F6CEB5",
"B. c #F3CBB3",
"V. c #F8CFB7",
"C. c #F8CFB4",
"Z. c #F6CFB9",
"A. c #F9D0B6",
"S. c #F5D2BC",
"D. c #F8D2BB",
/* pixels */
"                                                                                                                        ",
"                                                                                                                        ",
"                                                                                                                        ",
"                                                                                                                        ",
"                                                                                                                        ",
"                                                                                                                        ",
"                                                                                                                        ",
"                                                          T ^ )                                                         ",
"                                                    L L I  .O...W E                                                     ",
"                                                E I I I P J | ^ K D L                                                   ",
"                                              Y E K C D C g s s u s L                                                   ",
"                                                  Z f y 9 9 e l b v                                                     ",
"                        Q Q `                     m N -.} X.,.7.5.<.                                                    ",
"                          n ~                     ] [ v.z.o.e.r.<.a.                                                    ",
"                          n n =.                  5.{ k.B.w.x.t.7.n.                                                    ",
"                          *.M ~ '                 w.6.z.M.z.t.d.c.D.                                                    ",
"                          j.8.! ~ '               i.z.M.M.M.N.B.z.S.                                                    ",
"                          w.d.0./ '                 S.B.l.9.2.u.                                                        ",
"                        u.q.z.B.s.3.                4.*._ W Y R @.                                                      ",
"                      n X.l.Z.M.V.                  R K K P U U E E #.                                                  ",
"                        M 8.V.M.M.S.              I K P U U I I U E E                                                   ",
"                          9.m.M.M.V.D.          f D U U U U U U U E E +.                                                ",
"                            d.B.M.M.V.D.      ;.z f U U U U U U U U I +.                                                ",
"                              z.M.M.M.V.B.p.Z.m.' 9 K U I I I L D D I E                                                 ",
"                              p.B.M.M.M.z.d.M.A.1.e s I I L L D L L I E                                                 ",
"                                f.B.M.M.B.B.M.A.h.A 9 C L L I I U E U                                                   ",
"                                  d.B.M.M.M.b.y.>.Y s D I U U I U U E                                                   ",
"                                    d.d.g.l.:.R D U E E U U U I I U E                                                   ",
"                                              I D E E E U U U U U U +.                                                  ",
"                                              +.D I E E E E I I P E                                                     ",
"                                              R L P E E E E E U I +.                                                    ",
"                                              1 c %.$.B B B f d B 5                                                     ",
"                                              7 x _ H : ; # & 3 ( l                                                     ",
"                                            i u u w q 9 q 9 l ( V H                                                     ",
"                                          u u u u q q 9 u u S T r c &.                                                  ",
"                                      p u y u u u q 9 q u u i F G G Y                                                   ",
"                                    a u y y u u w 9 6 q u u u u u 9 u                                                   ",
"                                  d u u y u y q q u   i u u u u u q q                                                   ",
"                                i u u u u y 9 w i       i u u u u q q                                                   ",
"                              s y u u y q q y p         i u u u u y q f                                                 ",
"                              s y y u q 9 u               u u u u y q i                                                 ",
"                              f y y u 9 y i               i u u u y 9 i                                                 ",
"                              s u u u 9 y i               i u u u u 9 i                                                 ",
"                                u u u 9 y i                 u u u u 9 y f                                               ",
"                                i u u 9 y i                 i u u u 9 y f                                               ",
"                                i u u q y i                   u u u q 0 s                                               ",
"                                i u u q y i                   i u u y q i                                               ",
"                                s u u q y i                     i u y 9 y                                               ",
"                                  q 9 9 9 q                     i u u 9 y f                                             ",
"                                  t 8 8 t u                       q q 9 9 u                                             ",
"                                  < - = <                         u u r t l                                             ",
"                                k + . . *                           j 4 4 4                                             ",
"                          2 , , > $ o > 2                             % O X >                                           ",
"                          Q Q n n n                                   , o . @ , > , 2                                   ",
"                                                                      2 h 2 h v n ~                                     ",
"                                                                                                                        ",
"                                                                                                                        ",
"                                                                                                                        ",
"                                                                                                                        ",
"                                                                                                                        "
};
