/* XPM */
static char *s63aoxvuJZoVOCt_png[] = {
/* columns rows colors chars-per-pixel */
"60 60 155 2 ",
"   c None",
".  c #030202",
"X  c #0C0704",
"o  c #0E0E0E",
"O  c #120806",
"+  c #110F0E",
"@  c #0F100F",
"#  c #0F181C",
"$  c #121211",
"%  c #1F1510",
"&  c #10171A",
"*  c #1E1D1D",
"=  c #37261A",
"-  c #38271C",
";  c #111A20",
":  c #1A242B",
">  c #252524",
",  c #2A2B2A",
"<  c #392C24",
"1  c #262D35",
"2  c #3C3C3C",
"3  c #32363B",
"4  c #533B2B",
"5  c #2D3542",
"6  c #29414E",
"7  c #30424D",
"8  c #3F494D",
"9  c #2C4455",
"0  c #2F4857",
"q  c #2E4758",
"w  c #2F4958",
"e  c #344553",
"r  c #364956",
"t  c #3A4A54",
"y  c #304759",
"u  c #334B5C",
"i  c #384E5D",
"p  c #37515E",
"a  c #3B505F",
"s  c #364E62",
"d  c #3A4F61",
"f  c #3C5163",
"g  c #3B5468",
"h  c #444444",
"j  c #574A43",
"k  c #52514F",
"l  c #434D55",
"z  c #404F5D",
"x  c #46535E",
"c  c #4A545E",
"v  c #525455",
"b  c #51565B",
"n  c #5C5C5C",
"m  c #795E4D",
"M  c #625F5B",
"N  c #796152",
"B  c #435565",
"V  c #4D5C67",
"C  c #415A6E",
"Z  c #495A69",
"A  c #505A61",
"S  c #505F6B",
"D  c #465E73",
"F  c #4E616B",
"G  c #55626D",
"H  c #5A636C",
"J  c #5D6D6F",
"K  c #466175",
"L  c #4A6276",
"P  c #476478",
"I  c #4C667B",
"U  c #4E697D",
"Y  c #546573",
"T  c #5C6B73",
"R  c #556779",
"E  c #51697D",
"W  c #596A78",
"Q  c gray40",
"!  c #6F6862",
"~  c #6A6B6B",
"^  c #6C716D",
"/  c #7A716C",
"(  c #676E74",
")  c #627278",
"_  c #6A747E",
"`  c #757475",
"'  c #777778",
"]  c #95694B",
"[  c #A67450",
"{  c #A87A56",
"}  c #877A75",
"|  c #8A8165",
" . c #86806E",
".. c #9A8D67",
"X. c #938377",
"o. c #B08D75",
"O. c #D2A35D",
"+. c #556C81",
"@. c #5A6F85",
"#. c #597081",
"$. c #677481",
"%. c #737E88",
"&. c #83878B",
"*. c #8B8A89",
"=. c #838383",
"-. c #978982",
";. c #979592",
":. c #989395",
">. c #999895",
",. c #B59987",
"<. c #BB9B83",
"1. c #B3A196",
"2. c #BFA593",
"3. c #B6A799",
"4. c #BEAEA3",
"5. c #C19B81",
"6. c #D4A88C",
"7. c #CDAB94",
"8. c #C6AB9A",
"9. c #CDAF9B",
"0. c #C2A593",
"q. c #D0AC94",
"w. c #D6B19C",
"e. c #DDB799",
"r. c #DFB89B",
"t. c #E1B99F",
"y. c #C7B4A7",
"u. c #CBB2A1",
"i. c #D4B6A2",
"p. c #DEBBA6",
"a. c #D2B9A8",
"s. c #DEBFAA",
"d. c #E3BCA4",
"f. c #E6BCA8",
"g. c #E8BFA8",
"h. c #DFC3AD",
"j. c #DBC1B1",
"k. c #EBC2A7",
"l. c #E3C1A9",
"z. c #ECC4AC",
"x. c #EEC9AF",
"c. c #F0C7AD",
"v. c #F3C8AE",
"b. c #EAC6B3",
"n. c #E6C8B5",
"m. c #EFCBB3",
"M. c #F6CEB6",
"N. c #F6CEB5",
"B. c #F3CBB3",
"V. c #F8CFB7",
"C. c #F8CFB4",
"Z. c #F6CFB9",
"A. c #F9D0B6",
"S. c #F5D2BC",
"D. c #F8D2BB",
/* pixels */
"                                                                                                                        ",
"                                                                                                                        ",
"                                                                                                                        ",
"                                                                                                                        ",
"                                                                                                                        ",
"                                                                                                                        ",
"                                                                                                                        ",
"                                                        ) ^ T                                                           ",
"                                                    E W ..O. .I L L                                                     ",
"                                                  L D K ^ | J P I U I E                                                 ",
"                                                  L s u s s g C D C K E Y                                               ",
"                                                    v b l e 9 9 y f Z                                                   ",
"                                                    <.5.7.,.X.} -.N m                     ` Q Q                         ",
"                                                    a.<.r.e.o.z.v.[ ]                     ~ n                           ",
"                                                    n.7.t.x.w.B.k.{ 5.                  =.n n                           ",
"                                                    D.c.d.t.z.M.x.6.w.                ' ~ M *.                          ",
"                                                    S.z.B.N.M.M.M.z.i.              ' ~ ! 8.j.                          ",
"                                                        u.2.9.l.B.S.                ' / 0.d.w.                          ",
"                                                      @.R Y W _ *.4.                3.s.B.z.q.u.                        ",
"                                                  #.E E U U P K K E                   V.M.Z.l.X.n                       ",
"                                                  E E U U U U U L K I               S.M.M.V.8.M                         ",
"                                                +.E E U U U U U U U D g           D.V.M.M.m.9.                          ",
"                                                +.U U U U U U U U U g z ;.      D.V.M.M.B.d.                            ",
"                                                E I D D L I I I U K 9 ' m.Z.p.B.V.M.M.M.z.                              ",
"                                                E U L L D L L I U s e 1.A.M.d.x.M.M.M.B.p.                              ",
"                                                  U E U I I L L C 9 A h.A.M.B.B.M.M.B.f.                                ",
"                                                  E U U U U U U D d Y >.y.b.M.M.M.B.d.                                  ",
"                                                  E U I I U U U E E U D E :.l.g.d.d.                                    ",
"                                                  +.U U U U U U E E E D I                                               ",
"                                                    E L I U E E E E U D +.                                              ",
"                                                    +.U U E E E E E L L R                                               ",
"                                                    5 B d f B B B $.%.c 1                                               ",
"                                                    l ( 3 & # ; : H _ x 7                                               ",
"                                                    H V ( l 9 0 9 0 w u u u                                             ",
"                                                  &.c r T S u u 9 0 q u u u u                                           ",
"                                                  Y G G F i u u 0 9 0 u u u y u p                                       ",
"                                                  u 9 u u u u u 0 6 9 w u u y y u a                                     ",
"                                                  0 0 u u u u u u   u 0 0 y u y u u d                                   ",
"                                                  0 0 u u u u u       i w 9 y u u u u i                                 ",
"                                                f 0 y u u u u u         p y 0 0 y u u y d                               ",
"                                                u 0 y u u u u               r 9 q u y y d                               ",
"                                                u 9 y u u u u               u y 9 u y y f                               ",
"                                                u 9 u u u u u               u y 9 u u u d                               ",
"                                              f y 9 u u u u                 u y 9 u u u                                 ",
"                                              f y 9 u u u u                 u y 9 u u u                                 ",
"                                              d 0 0 u u u                   u y 0 u u u                                 ",
"                                              u 0 y u u u                   u y 0 u u u                                 ",
"                                              y 9 y u u                     u y 0 u u d                                 ",
"                                            f y 0 u u u                     q 9 9 9 q                                   ",
"                                            u 9 9 0 0                       u t 8 8 t                                   ",
"                                            l t r r u                         < = - <                                   ",
"                                            4 4 4 j                           * . . + k                                 ",
"                                          > X O %                             2 > o $ > , , 2                           ",
"                                  2 , > , @ . o ,                                   n n n Q Q                           ",
"                                    ~ n v h 2 h 2                                                                       ",
"                                                                                                                        ",
"                                                                                                                        ",
"                                                                                                                        ",
"                                                                                                                        ",
"                                                                                                                        "
};
