/* XPM */
static char *s79afIwN5NhuydQ_png[] = {
/* columns rows colors chars-per-pixel */
"60 60 179 2 ",
"   c #020203",
".  c #070807",
"X  c #070709",
"o  c #070809",
"O  c #0B0B0C",
"+  c #1A110B",
"@  c #0E0E11",
"#  c #100F12",
"$  c #0F1012",
"%  c #121315",
"&  c #161619",
"*  c #18171B",
"=  c #17181B",
"-  c #1A1A1E",
";  c #24150D",
":  c #2E1F15",
">  c #20211F",
",  c #2E221B",
"<  c #151A20",
"1  c #1D1D21",
"2  c #201F24",
"3  c #1F2024",
"4  c #1A252C",
"5  c #1C2832",
"6  c #212225",
"7  c #232529",
"8  c #28272B",
"9  c #25282E",
"0  c #2A2A2D",
"q  c #312720",
"w  c #312C2D",
"e  c #262B32",
"r  c #2D2E33",
"t  c #2E3035",
"y  c #27313C",
"u  c #2D333B",
"i  c #323233",
"p  c #3B3634",
"a  c #34363A",
"s  c #3B3B3D",
"d  c #523F2F",
"f  c #433E3D",
"g  c #4B443E",
"h  c #544134",
"j  c #2D3741",
"k  c #2E3943",
"l  c #2E3E4E",
"z  c #323A44",
"x  c #3A3F46",
"c  c #333E4A",
"v  c #2F3F53",
"b  c #2E404F",
"n  c #3F4041",
"m  c #34414D",
"M  c #3B434C",
"N  c #334554",
"B  c #3B4552",
"V  c #364857",
"C  c #3C4955",
"Z  c #354758",
"A  c #384758",
"S  c #374A5A",
"D  c #384A5B",
"F  c #3E505B",
"G  c #3D4E61",
"H  c #3F5164",
"J  c #434343",
"K  c #484643",
"L  c #4D4842",
"P  c #47484A",
"I  c #4C4C4C",
"U  c #514A47",
"Y  c #5B524E",
"T  c #404752",
"R  c #454B53",
"E  c #4E4F54",
"W  c #434E59",
"Q  c #44515D",
"!  c #4E545E",
"~  c #545454",
"^  c #5D5752",
"/  c #5B5857",
"(  c #505458",
")  c #5A5A5C",
"_  c #7B5D45",
"`  c #625A57",
"'  c #695F59",
"]  c #435363",
"[  c #495663",
"{  c #455769",
"}  c #485668",
"|  c #46596C",
" . c #4B5B6C",
".. c #535D66",
"X. c #5A5D63",
"o. c #515E6E",
"O. c #4C5E72",
"+. c #56646E",
"@. c #5C656C",
"#. c #4E6275",
"$. c #526376",
"%. c #5B6673",
"&. c #5D6973",
"*. c #53667A",
"=. c #54687C",
"-. c #586879",
";. c #686566",
":. c #6F6A65",
">. c #62666B",
",. c #656C6F",
"<. c #6D6D6D",
"1. c #736B64",
"2. c #786C64",
"3. c #786F6A",
"4. c #6A726D",
"5. c #777669",
"6. c #7E726A",
"7. c #616A72",
"8. c #6C6E75",
"9. c #747271",
"0. c #72777C",
"q. c #856045",
"w. c #9A785C",
"e. c #857C76",
"r. c #8A7F79",
"t. c #93896D",
"y. c #878271",
"u. c #8E8075",
"i. c #8F8279",
"p. c #938274",
"a. c #93867D",
"s. c #9F8C7F",
"d. c #AB907B",
"f. c #DAAE68",
"g. c #697683",
"h. c #747A80",
"j. c #898580",
"k. c #83868B",
"l. c #8B8688",
"z. c #9F9086",
"x. c #A28E81",
"c. c #A49184",
"v. c #AB9484",
"b. c #AA9688",
"n. c #AF9C8E",
"m. c #B19783",
"M. c #BE9E85",
"N. c #B39D8C",
"B. c #BA9E8A",
"V. c #A79E97",
"C. c #B7A192",
"Z. c #BDA696",
"A. c #B0A498",
"S. c #C9A68B",
"D. c #C3AA9A",
"F. c #C9AF9B",
"G. c #D3AF94",
"H. c #CEB197",
"J. c #CEB09D",
"K. c #D2B49C",
"L. c #C4B4A6",
"P. c #CAB2A2",
"I. c #CBB9A8",
"U. c #D6B7A1",
"Y. c #D7B8A0",
"T. c #DABAA4",
"R. c #D2B9A9",
"E. c #DFBFAB",
"W. c #E1BFAB",
"Q. c #DDC2AC",
"!. c #E2C3AC",
"~. c #E3C6B1",
"^. c #E6CAB5",
"/. c #EBCBB5",
"(. c #EECEB8",
"). c #F0CDB7",
"_. c #F0CFB9",
"`. c #F0D0B7",
"'. c #F2D1BA",
/* pixels */
"6 1 - = = - 1 = - = - 1 - - 1 1 1 @ % = 1 1 = @ O - 6 a M u 6 - 1 % = 1 1 1 1 - O = 1 1 - = 6 6 6 6 % = - - % - 1 1 - r ",
"1 - 1 = % 1 1 % - - 1 1 1 1 1 - - @ - 1 1 1 1 % O 0 W 4.t.,.] z 1 @ - 1 1 1 1 - @ - 1 1 1 - 7 6 7 6 % = 1 - = - 1 1 = = ",
"1 1 1 = = % = = - 1 1 1 1 1 1 1 % o = 1 1 1 1 % 9  .=.t.f.y.*.#.D 9 1 1 1 - 1 - % 1 1 1 1 1 6 6 6 6 % = 1 1 1 1 1 * - = ",
"1 1 1 1 1 % = 3 1 1 1 1 1 1 1 1 = O = 1 1 1 1 - B #.O.&.5.+.#.*.=.#.x 3 1 = = 1 - 1 1 1 1 = 1 1 1 - O - 1 1 1 1 - O - 1 ",
"- - 1 1 = O - 1 1 1 1 1 1 1 1 1 1 @ - 1 1 1 1 1 r ] G G ] | O. . .=. .9 1 - = 1 1 1 1 1 1 - 1 1 - - % % - 1 1 - - X % 1 ",
"- - - = $ % - 1 = = 1 1 1 1 1 1 1 O = = 1 1 1 1 9 B m l l v S ] { Q u 1 1 1 1 1 1 1 1 7 1 1 1 1 1 1 = = 1 - 1 1 - O $ - ",
"- 1 = % - 1 - 1 1 - 1 1 1 1 1 1 1 % o % 1 1 1 1 7 ^ p.e.;.! C W E t 1 1 - - 1 1 1 1 s ) a 1 1 6 = % % 1 3 - 3 1 1 % $ % ",
"= 1 = % 1 1 1 1 1 1 1 - - 1 1 1 1 = O - = = 1 1 - Y M.T.K.m.Z.B._ w - - = = 1 1 = - ~ ;.J 1 - = = - - 6 6 - 1 6 1 - 1 1 ",
"1 1 - % 1 1 1 1 - 1 - 1 1 1 1 1 - - - 1 - - 1 1 - ` N.H.K.d./.G.q.w % = - 1 1 1 = r ;.~ 0 1 1 1 - 1 3 6 1 - - 1 1 1 1 1 ",
"1 1 1 = - - 1 = 1 1 1 1 1 1 1 1 - - 1 1 1 1 1 1 1 3.F.Y./.K.(.S.w.g o - - - 1 1 1 ) <.J 1 1 1 1 = 1 1 1 1 1 1 - 1 1 1 1 ",
"1 1 1 - - % % O - 1 1 1 1 1 - 1 1 1 1 1 1 1 1 1 = i./.Y.Y.!.`.G.S.b.= = 1 1 1 1 i 9./ P r 1 1 1 % - 1 1 1 1 1 1 1 1 - 1 ",
"- 1 1 1 1 % X O - 1 1 - - 1 1 1 1 - = - 1 1 1 - - z.`./.!./._./.U.6.1 1 1 1 1 6 ~ ;.:.e.P 1 1 1 - = 1 1 - - 1 1 1 - & 1 ",
"- 1 1 1 1 % o - 1 1 1 * - 1 1 1 1 = O = 1 1 1 1 6 a.~./.`././.`.c.- - 1 1 1 1 s <.1.P.R.f = 1 1 1 $ = 1 1 = - 1 6 3 = 1 ",
"% = - 1 1 = @ 1 - 1 - 1 1 1 1 1 1 - % = 1 1 1 1 1 i ^ j.n.D.Q.'.a.= 1 1 1 1 6 ) 9.b.T.J.' = 1 1 3 @ = 1 = % - 1 3 6 = % ",
"- - 1 1 1 - - 1 1 * 1 1 - = = 1 1 - % = 1 1 1 1 1 7 M o.$.&.0.V.r.1 - 1 1 1 = / L.^./.J.u.- % % % % - 1 1 1 1 1 1 6 6 % ",
"- 1 1 1 - 1 1 1 1 - 1 1 = 1 = 1 1 1 = - 1 1 1 1 7 Q =.=.*.#.#.$...7 1 1 1 - @ 8 C.'.`.Q.a.s = - - 1 1 1 1 1 1 3 6 6 6 - ",
"- 1 - 1 @ = 1 1 1 - 1 1 1 - = 1 1 1 1 1 1 1 1 1 B =.=.*.*.*.#.O.$.M 1 1 - % O 7 N.`.`.Q.:.i 1 1 1 1 1 1 % = 6 6 6 6 6 - ",
"- - - 1 @ = 1 1 1 % - 1 1 1 - - = 1 1 1 1 1 - 7  .=.=.*.*.*.=.*.O.} r - O % % 6./.`.`.Z.J 3 1 1 1 1 1 1 = % 1 1 - - = O ",
"- 1 1 1 % 1 - 1 1 - = 1 1 1 1 - = 1 1 1 1 1 - e *.=.=.=.=.=.=.=.*.H B 1 O 6 2./.`.(./.s.8 1 - 1 1 1 1 6 - = 1 1 1 1 - % ",
"- 1 1 = % 1 1 1 1 - - 1 1 1 1 1 1 1 1 1 1 1 1 u *.*.=.=.=.=.=.=.#.A 0.J $ 1.^.`.(._.T.U - 1 1 1 1 = 1 6 - - 1 1 - - 1 = ",
"1 1 1 - - 1 1 = 1 1 1 1 1 1 1 1 1 1 1 1 - 1 1 u $.#.$.#.*.*.*.=.] W I.P.a.!.`._._.).x.1 = - 1 1 1 = - 1 = - 1 - % - - = ",
"1 * 1 1 1 1 - % - 1 1 - 1 6 1 1 1 1 1 = % % - r $.O.| O.#.#.*.*.Z >.^.`.T./._._._.E.Y = % - 1 1 1 % O O % 1 1 1 % - 1 1 ",
"- # - 1 1 1 - % * - 1 1 - 1 1 1 1 1 1 1 1 $ % 9 #.*.*.$.O.#.*. .l j.`._.!./._._._.b.8 - @ % = - = = - 1 1 1 1 1 1 1 1 1 ",
"= @ @ = 1 1 = - 1 - 1 6 - 1 1 1 - 1 1 1 1 = O 1 [ *.*.*.*.$.O.D N A.'._.(.(._._.W.` 1 - - - = % % 1 1 - = - 1 1 1 1 - = ",
"- - % @ - = % 1 1 1 1 - - 1 1 1 1 1 1 1 1 = = 1 C *.*.*.*.*.*.{ G k.L.^.`._.`./.v.0 1 - - 1 1 - * 1 1 - = 1 - 1 1 1 - % ",
"- 1 1 - 1 - = 1 1 1 1 1 1 1 1 1 1 - - 1 1 - - 1 z =.*.*.=.=.=.*.*.#.*.l.D.T.Y.v.p % - 1 1 1 1 1 1 3 3 1 1 1 1 1 1 1 1 - ",
"- 1 1 1 1 - = 1 1 1 = - * 1 1 1 1 1 - = 1 1 1 1 t $.=.*.=.=.=.*.=.#.#.R w f f 7 % % % 1 1 - 1 1 1 6 1 1 1 1 1 1 1 1 1 1 ",
"1 1 = 1 1 1 1 1 1 1 = = $ - 1 1 1 1 1 = 1 1 - * = } *.*.*.=.=.=.=.#.$.x 1 % @ = 1 - = 1 - = - 1 1 1 1 1 1 1 1 1 1 - 1 6 ",
"1 1 1 1 1 1 1 1 1 1 1 = = - 1 1 1 1 1 1 1 - @ % o W *.$.*.*.=.*.=.O.$.u 1 % % 1 1 - - 6 1 - 1 - - 1 1 1 1 1 1 1 1 = % - ",
"- - 1 1 1 1 1 1 = = % - 1 1 1 1 1 1 1 1 1 - X   # T =.*.=.=.=.=.*.O.$.a r 1 = 1 1 - = = 1 1 - - % - 1 6 6 1 = - - % o X ",
"1 - 1 1 1 1 - % % = - 1 1 1 1 1 1 - 1 1 1 =     % z } O.$.$.$.-.g.%.z 0 7 1 = 1 1 - % & 1 1 1 - = - 1 1 = - - - 1 - - o ",
"- 1 1 1 1 1 - = - - - - 1 1 1 1 - * 1 1 = O o   o 3 R u < 1 1 x k.8.u 9 1 - = 1 2 3 1 1 1 1 1 1 = 1 1 1 - = 1 1 1 1 1 @ ",
"% 1 1 = - 1 - - = = 1 - 1 1 - 1 1 1 1 1 % = - o o ( h.X.9 4 5 k [ ] D m 7 - % 1 2 6 - - 1 1 - 1 1 1 1 6 1 = 1 = = 1 1 = ",
"- 3 - @ 1 6 1 - 1 1 1 1 1 1 1 1 - 1 1 1 = 3 6 % 8 >.C 7...D S N N S D D z - o % - - @ - 1 - & - 1 1 1 1 1 = 1 - = 1 1 = ",
"1 6 1 @ 1 6 1 - 1 1 1 1 - 1 1 1 = - 1 1 = 1 1 % i @.N +.+.D S N N S S S D u % = = % % - 1 - = 1 1 - 1 1 - % 1 1 1 1 1 = ",
"1 1 1 @ = - - 1 1 1 - - = = 1 1 = 1 1 1 - - - - t @.7.&.Q D S N N S D D D C e 1 1 1 1 1 1 1 1 1 1 = - - * - 1 1 1 1 1 = ",
"1 - 1 - 1 1 1 1 1 1 1 1 = - 1 1 1 1 1 1 1 1 1 1 u N F D D D D N b S D D D D N 9 1 1 1 1 - = = - 1 1 * = = - 1 1 1 1 1 % ",
"= % - * 1 - 1 1 1 - 1 - % 1 1 1 1 1 1 1 - = 1 1 k N S S D D D k m N Z D S D D m 6 1 1 1 % = % - 1 1 - % % - 1 1 1 1 = o ",
"= % - - 1 * = = @ @ % @ = 1 1 1 1 1 1 1 = = 1 1 z N D D D D D e e N N Z D S D D z 1 1 1 % 1 1 - 1 1 1 - - = = 1 1 = % @ ",
"1 - - - 1 1 = - = = - = - 1 1 1 - 1 1 1 = - 1 6 m N D D D D N = % u V N Z D D D D u 1 1 @ % - 1 1 1 1 1 - = - 1 1 1 1 1 ",
"- 1 1 1 1 1 - = - 1 1 1 1 1 1 - % - 1 1 % - 1 7 N N D S D D k - 1 1 j Z N Z D D D Z 9 1 % = 1 1 1 1 1 1 % @ 1 1 1 1 1 1 ",
"% = - 1 1 1 1 1 1 1 1 1 1 1 1 1 = = 1 - % - - 9 Z N S S S S u 1 1 1 1 z S N S D D D e 3 % = 1 1 - 1 1 1 - = 1 1 1 1 1 1 ",
"o % - 1 1 1 1 1 1 1 1 1 1 1 1 1 - % $ O O % % e Z N S S D V 9 1 1 1 1 7 m N Z D D B 7 - % = 1 2 - - - 1 % % 1 - 1 1 1 1 ",
"- 1 1 - - 1 1 1 1 1 1 1 1 - = 1 1 1 - = % - 1 k S N D S D m 3 1 - 1 1 1 k Z N D S Z 6 1 = = 1 6 - - 1 1 % - 1 1 1 = 1 1 ",
"1 1 - O = 1 1 1 1 - * 1 1 = = 1 1 1 1 - = 1 1 c Z Z D D D k 1 1 1 1 1 1 c S N D D c 1 1 - % 1 6 = = 1 1 = - 1 1 1 = 1 - ",
"- - - o - 6 1 1 - 1 = 1 1 = - 1 1 - - - % 1 6 m N Z D S S e 1 1 1 1 1 3 m S N D D k @ % - % - - % 1 1 1 1 1 1 1 1 1 1 - ",
"O - 1 % % = - 1 - 1 = 1 1 % % 3 1 6 6 1 % 1 7 B N Z D S N 1 - 1 1 1 1 3 N Z Z D D y % X @ % % % - 1 1 1 1 1 1 1 1 1 - % ",
"  = 1 1 - - 1 1 1 = % 1 1 = % 1 6 6 1 1 % % 3 V N Z D S j = - 1 1 1 1 7 N Z Z D D e - % % - 1 1 1 1 1 1 1 - - 1 = $ $ O ",
"  @ = 1 1 1 1 1 1 1 - 1 1 - % - 1 1 1 1 @ % 9 D N D D S e - 1 1 1 1 1 7 Z Z Z D D e - 1 1 1 1 - 1 1 1 1 = - - = O O - - ",
"  % - 1 1 1 1 1 1 - = 1 1 1 - = = = % O o % u S N S D N 6 1 1 1 1 1 - 9 S Z Z D Z 1 = 1 6 1 1 = 1 1 1 1 1 7 6 % o - 1 1 ",
"% = - 1 1 1 1 1 1 1 - 1 1 1 1 1 - - = O % - u Z N D D k 1 1 1 - 1 1 = e D Z V D Z = = - 6 2 1 @ % = - 1 6 6 6 % % 1 1 1 ",
"1 1 - 1 1 1 1 & 1 1 1 1 1 1 1 1 1 1 1 % = 1 c N Z D D e 1 1 1 1 1 - % e S N N S m % - 3 6 6 - % - % = 1 1 - 3 = - 6 1 1 ",
"1 - = 1 * 1 - = 1 1 1 - = 1 1 1 1 1 1 * O 1 m N V S m 3 1 1 1 - % O O r Z N N N j $ 1 6 1 1 = - 1 - - 1 1 & = % 3 6 1 1 ",
"1 - = 1 1 1 - = 6 1 1 - = 1 - - 1 1 1 = X 1 m N N N u 1 1 1 1 = . o % 9 z P L K 9 @ = = = = & - 1 1 1 1 2 1 1 % 1 3 1 1 ",
"1 - 1 6 3 1 - O % - - 1 - - = 1 1 1 1 - o 6 M C C N 7 - 1 1 1 1 = % 1 1 6 , : , 6 = - 1 1 1 1 1 1 1 - 1 1 6 6 - = - 1 1 ",
"- 1 1 - 1 3 - O = 3 - 1 1 - = % - 1 1 - O 6 d h h 0 1 1 1 1 1 - = % = 1 6 %     0 i 6 1 1 1 1 1 1 - = 1 1 6 6 6 3 1 1 - ",
"= 1 1 - 1 6 1 = - 6 6 3 1 - - - - 1 1 3 - > + ; q 2 - 1 1 1 1 1 - % - 1 8 i O   = i 6 0 1 1 1 1 1 - = 1 1 1 1 1 1 1 = = ",
"- 1 1 1 1 1 1 - = 3 6 3 = - 1 1 1 7 8 0 n %   X 6 % % 1 1 1 1 1 1 1 1 1 6 s s i i i s P i 1 1 1 1 - = - - 1 1 1 - = O 1 ",
"- 1 1 1 1 1 1 1 = = 1 1 % = 1 1 7 J J 7 > O o 7 r - 1 1 - = 1 1 1 1 * = 1 8 0 r i a n J t 1 1 1 1 - % = = 1 1 1 = - = 6 ",
"o @ % - = = = - % % - = o o % - 6 i P ~ I J a J 8 1 1 1 - - 1 1 1 - % O = = = = o % 1 - - 1 - = % % O % O = 1 1 % - = 3 "
};
