/* XPM */
static char *s95a6LahUkFEwEQ_png[] = {
/* columns rows colors chars-per-pixel */
"60 60 175 2 ",
"   c #030303",
".  c #0A0404",
"X  c #080807",
"o  c #070608",
"O  c #0C0C0D",
"+  c #140F0E",
"@  c #180F0A",
"#  c #19120D",
"$  c #0E0F11",
"%  c #100F14",
"&  c #0F1012",
"*  c #131315",
"=  c #1B1513",
"-  c #1B1917",
";  c #161619",
":  c #18171B",
">  c #17181B",
",  c #1B1B1D",
"<  c #1D1D21",
"1  c #201F23",
"2  c #1F2024",
"3  c #1D2429",
"4  c #212225",
"5  c #282426",
"6  c #23252A",
"7  c #282628",
"8  c #26292E",
"9  c #2B2B2C",
"0  c #3A2B20",
"q  c #352F2E",
"w  c #262B32",
"e  c #2B2D33",
"r  c #282F38",
"t  c #302F32",
"y  c #2F3034",
"u  c #2B323B",
"i  c #333234",
"p  c #393535",
"a  c #363539",
"s  c #383739",
"d  c #3C3B3C",
"f  c #48301F",
"g  c #4C3728",
"h  c #443E3E",
"j  c #493F39",
"k  c #4C4037",
"l  c #70543D",
"z  c #263540",
"x  c #2C3641",
"c  c #2E3842",
"v  c #2F3E4C",
"b  c #333A45",
"n  c #3B3F44",
"m  c #323D4A",
"M  c #2F3F52",
"N  c #2F404E",
"B  c #34424E",
"V  c #3C424B",
"C  c #2F4152",
"Z  c #334454",
"A  c #3B4653",
"S  c #364856",
"D  c #3E4955",
"F  c #364758",
"G  c #37495A",
"H  c #384A5B",
"J  c #3B4D61",
"K  c #3F5164",
"L  c #464546",
"P  c #4C4645",
"I  c #4F4947",
"U  c #464749",
"Y  c #484748",
"T  c #4B4B4D",
"R  c #524C4B",
"E  c #57514D",
"W  c #424A57",
"Q  c #434E5A",
"!  c #46505B",
"~  c #4C535C",
"^  c #545354",
"/  c #5A5A5D",
"(  c #795841",
")  c #645C5A",
"_  c #685F58",
"`  c #71635C",
"'  c #425365",
"]  c #4B5765",
"[  c #45576B",
"{  c #4A576A",
"}  c #45586C",
"|  c #4B5B6C",
" . c #545B63",
".. c #5D5F62",
"X. c #545E68",
"o. c #5A5F68",
"O. c #4A5D71",
"+. c #4D5E72",
"@. c #5B6364",
"#. c #57626E",
"$. c #5C646B",
"%. c #5C686F",
"&. c #4E6275",
"*. c #526376",
"=. c #526679",
"-. c #53667A",
";. c #55687C",
":. c #616161",
">. c #666667",
",. c #696662",
"<. c #6C6A68",
"1. c #746A64",
"2. c #796A63",
"3. c #756F6D",
"4. c #7C756A",
"5. c #7D7A6A",
"6. c #646B72",
"7. c #6E6F70",
"8. c #636E7C",
"9. c #747371",
"0. c #7F7775",
"q. c #74787E",
"w. c #82756E",
"e. c #9F7F65",
"r. c #8B7E74",
"t. c #807D7D",
"y. c #907C71",
"u. c #8A846F",
"i. c #868072",
"p. c #8D8077",
"a. c #958374",
"s. c #918379",
"d. c #9B897F",
"f. c #D0A96A",
"g. c #7A7D84",
"h. c #737C88",
"j. c #978F87",
"k. c #988D88",
"l. c #998E8B",
"z. c #959392",
"x. c #A39087",
"c. c #A89687",
"v. c #A19388",
"b. c #B29681",
"n. c #B89C85",
"m. c #B19B89",
"M. c #BC9D88",
"N. c #BBA391",
"B. c #B6A89B",
"V. c #BDAC9C",
"C. c #C5A286",
"Z. c #CDA78C",
"A. c #C1A595",
"S. c #CEAD95",
"D. c #CBAF9E",
"F. c #D6B59B",
"G. c #D3B39D",
"H. c #D5B89D",
"J. c #C0B2A5",
"K. c #CFB5A1",
"L. c #D2B3A0",
"P. c #D6BAA5",
"I. c #DBBBA6",
"U. c #D0BDAF",
"Y. c #DEC2AE",
"T. c #DCC4B1",
"R. c #E3C4AC",
"E. c #E4C5B2",
"W. c #E5C8B0",
"Q. c #ECCCB6",
"!. c #EECEB8",
"~. c #F0CEB7",
"^. c #F0CFB9",
"/. c #EED0B9",
"(. c #F1D0B9",
/* pixels */
", , , , , , , , , , , , , , , , , , , , , , , , , , , , , , , , , , , , , , , , , , , , , , , , , , , , , , , , , , , , ",
"4 i , , > , , ; * ; * ; * ; , < , , , ; * ; ; ; * * ; > , , 2 w u 8 , , > O O * ; * > , ; * O * , ; * - ; ; ; ; * * * , ",
", 6 < , > , < , * ; O ; > , , < < < < O * , , , > * , < 2 e D $.4.@.m 6 , $ o O > $ > , , ; X ; < > * , , , , , ; ; * > ",
", 4 > ; , , < < > ; ; , < < < < 2 2 < * , < < < < , < w A O.=.i.f.u.=.Q 8 < * O , ; , < < < * , 1 < ; < < < < < < < > > ",
", 2 * ; < < < < < < ; , < < < < < < > O , < < < < < u | =.=.&.%.5.%.O.O.V < ; O 4 , < < < < : < 4 4 < > , < < < < < ; > ",
", > , < < 4 4 4 < < ; , < < < < < , ; * < < < < < < D =.O.| | } ' J J H 8 < ; & < < < ; * < < < < 4 4 * , 4 < , < < ; > ",
", , < , , , 4 6 2 < , , < < < < < 4 6 ; < 4 < < < < 6 A ' K G M v B A V 6 < ; $ < < < , , , , < < , ; X ; < 4 < < , , , ",
", , < < < * < 2 4 < < < < , ; , < T ^ , < 4 < < < , O ; Y ~ !  .3.s.a.R 2 < ; X , < < , , , , : < < < ; > < < < , , , , ",
", < < 4 4 ; ; ; < < < < < , , < 6 ^ :.9 < 4 < < < ; X - l M.D.b.F.F.n.P < < , O , < < < , < , ; < < < , , < , , ; > , , ",
", < < 1 < * < , < < ; ; , ; < 4 4 d :.^ < 2 < < < > * 6 ( Z.Q.b.H.S.m.R , < < * > < < < < < < < < < < ; , < , < , < , > ",
", 2 < < , $ 4 4 4 < , : * $ < 4 4 6 ^ 9.a < < < < , , R e.C.!.P.W.G.K.) , < < * * , , , < < < < < , < < < < < < , > * > ",
", , < < $ O 4 6 < < < < , ; < < 9 Y Y >.^ 1 < < < < 4 d.S.F.(.R.P.R.!.1.; < * X $ ; > > , , < < , : < < < < < < , *   ; ",
", > , * X ; , , , < < < < , < < 6 0.k.,.>.a < < < < < I A.!.!.!.Q.W.!.4., > $ * < < < < , ; < < , , < < < < < < , $   ; ",
", O * * ; < < , < < < < < , < ; , x.Y.c.<./ 6 < < < < < w./.!.R.R.P.N.E ; ; ; * < 4 4 < , * , < ; ; < < < , , < < ; o ; ",
", * , < < < < < < < < < > * * $ 7 N.G.Y.v.9.e < < < < , 1.T.B.k.t...7 < < < , * < 4 < < < * , < , < < < : , ; $ < > $ > ",
", > < , < < < < < < < , * < , , E N.E.^.Q.1.4 , < < < < ^ q.*.&.*.*.! e < < , * < , < < < ; < < > , , < < 4 , X , , , , ",
", , < ; , < < , * < < > ; 4 < < ^ V.(.^.E.P , < < < < 6 ] &.O.&.=.=.;.| e < < ; < < 2 < , * < < , , < < < < , $ , < < , ",
", , < , , < < , * < < , , 4 < * 9 r.Q.^.!.w.4 < < < 2 A +.&.=.=.=.=.=.;.W , > % ; > , < < ; < < < < < < < < < , < , ; > ",
", , < < < < , ; ; < , , , < < * ; _ R.^.^.E.1.4 < < u ' &.;.;.;.;.;.;.;.{ < * O * ; * < < < < < < < < < < < < < , * O ; ",
", , < < < < < ; ; < < < < < < ; > p N.!.!.(.E.1.< 6  .H &.;.;.;.;.;.;.;.O.6 , ; < < > > < < < < < < < , < < < < < , > > ",
", , < < < < < * * < < < < < < * ; < 2.R.^.^.(.E.w.p.J.] ' ;.=.=.=.=.=.*.O.6 ; ; < < , ; < < < < < , , , ; < < < < < , , ",
", ; > , < < , > < < < < < , , ; * < p A.^.!.^.^.I.!.Q.7.G *.=.&.&.O.[ +.| 6 ; , < < < < < < < * * ; $ > ; , < , ; , , > ",
", O O ; < < , > ; ; , < < , , , * < < 2.E.^.!.!.I.!.(.j.Z | =.O.O.&.*.=.' 2 ; , < < < < < < > ; > ; ; , , : < , , * ; > ",
", + , < < < < < ; ; ; < < , * * : < < i A.~.^.!.!.!.(.V.A H O.&.=.=.=.;.D < , < < < < < < < , ; < < < < < < < , , ; , , ",
", * , < < < < , ; , , ; < < < < < < < < ` R.(.(.(.!.U.z.' ' *.=.=.=.=.=.b , < < < < , , < : ; ; , < < < < , ; * < < < , ",
", * , < < < < > , < < : < < : < < , > ; 7 y.L.I.D.k.8.&.=.=.=.;.=.&.=.*.w , , ; < < ; > < < , , < < < < , < < $ < 4 < , ",
", * , < , , < > , < < < < , * , < ; & , : : q h p b O.&.;.;.;.;.=.=.;.| 6 4 < , < < , , < < < < < < < , < 4 4 $ , 4 , > ",
", * < < , ; < > , 4 < < < < , < < , < 4 < ; * < , w O.&.;.;.;.;.=.=.=.H $ < > ; < < < < < , < < < , ; , , < , ; < < ; : ",
", O , < < , < ; , < < < , < < < < < < 4 < , ; < < 6 | +.=.;.;.;.=.*.*.x   O * , < < > < < < < < , , , > > < < < < 1 , , ",
", X ; , < , > , > < < , ; , < < < * * < < , > < 9 i ] +.=.;.;.;.;.;.=.w   o , < < < , < < < < < < , * * , < < < < , < , ",
", O X * , , > < 4 4 < , ; , , < , > ; < < , ; , < 4 w X.h.*.{ { ] ] D <   X , < < < < < < < < < > ; ; , < < < < < , , , ",
", , > ; < < < < < < < < , < < : < 4 , < < , $ , < 8 c o.g.n ; ; ; n ^ , * * < < < < < < < < > ; , < < < < < < < , < < , ",
", < 1 , < < < < < < < < < < , ; < < ; < , ; * , 6 m H H H v z z m 6.6.T < , < , ; < < < < < ; ; , , < < < < < < : < , , ",
", , < < < < < < < < < 4 < < < < < , & * * , < < b H H G Z Z G H #.X.Z ..e < < < , , < < < < , , , , < < , > < < < < , , ",
", ; < < < < < < < < < < , < < < < < , , , < < x H H H G Z Z G H X.$.~ $.e > , < < , < < < < < < < < < < ; ; < ; < < , , ",
", * ; < < < , , ; , < < ; , < < , , < < < < e H H H H G Z Z H H H | #.Q 6 * , < < < < < < < , , < < < < ; > , * $ > , , ",
", > < < < < < < , < < , * ; > ; , < < < < 8 Z H H H G Z N N G H H H S Z 6 O > < < < < , < < , < 2 , < > ; < < < ; O ; , ",
", , < < , < < < , ; ; ; , < , ; % , < < 6 B H H G G Z Z b u G H H H G Z u ; & > < < < < < < < , < < , * , < < < , ; < , ",
", > < , * ; < < * * * ; < < < > ; ; < 4 m H H H G Z Z m 6 2 Z H H H G Z x , , ; , < < < < < < < < < < ; , < < , < < < , ",
", * , , : , < , > 4 < , < < < < , : < u H H H G Z Z B 6 < < v H H H H Z m < < < < < < < < < < < < , < , < < ; ; < < , , ",
", ; , < < < < , : 4 < , < < , < < , < m H G H Z Z Z 6 , < < u H G G G Z m 4 < < < < , , < < < < , : < < < < ; , < < , , ",
", O * , , < < ; ; 4 < < < < < < < , < m H H F Z S w < < < ; 2 S H H G Z Z 6 < < < < , ; , < < < < ; , < < , * < < < , , ",
", ; , 4 4 < < : * < < < < < < < < * , b H H S Z Z 4 < < < ; < B H H H Z S w < < < < < < < , < < < , , < < > $ < , < , , ",
", ; 4 6 4 4 < < < < < < , , ; > < ; * u H H S Z Z 4 < < < ; > c H H H Z G u < < , < < < , , , , < < < < < < ; < < < , > ",
", * < 4 < < < < < < , * * * * $ ; < , u H H S Z S 2 < < < , * w G H H Z S x < < * ; < < < ; , , < , , < < , < < < , > > ",
", ; ; < 4 < < ; ; < , $ < < < ; * , , w H H F Z S 6 , < , < < 6 Z H H Z S m < < * > , < < < < < < < < < ; * < < < > * > ",
", , > , 4 < , > , < ; * < < < , , < ; 6 S H F Z A w ; , , , > < c H H S Z B 2 < * $ , < < < , : , < < , O O < < < < > > ",
", , > ; < < < < , < < ; , < < < < < , 6 Z H G Z H w % , < , > < w G H G Z S 6 < , ; < < < < , ; < < < $ o O < < < < , > ",
", < < , < < < < < < < , ; < < < < < , < m H G Z H 3 O 4 < < < < 4 Z H G Z S 6 < < < < < < , < < < < < $ * * , , < < , , ",
", < < < < < , < < < < < > < < < < < < , b H G Z H 6 O 4 < < < < < x H H Z S w < < < , < < < < < < , < , , , , > < < < , ",
", < < < < < , : < 4 2 < , , < < < < < ; w Z Z C S w , 4 < < < < < 6 S H Z S w , , > , < < < , < , < < < < < < * , < , , ",
", , , > < < 4 , 4 4 , ; ; , , < < < < > 6 B S S Z u < < < < < > < 4 m S Z Z u , * X , < < < < , < < < < < < < ; ; , ; > ",
", ; * $ , < < , 2 < ; ; , 4 < < < < < < < p k j y 6 < < < < < , < < r Z Z Z m < * O ; < < < < < < , , < , , > * ; < , , ",
", < > X ; < < , , ; ; < < , < < < < < < 4 = @ # , < ; , , < < < < < 6 b U Y h < , ; * < < < < < < , , < , & & , < > , , ",
", < , X ; , < < < ; $ ; < < , , < 2 6 i s X   ; 6 < * * < , , < < < < 5 g f 0 4 < * * < < < < < < < < < , $ , < < , , > ",
", , , ; , < < < < , $ < 4 4 < , < 9 9 , , O ; i 6 < ; ; < ; * < < < , ; + .   7 a ; * ; < < < < < < < < > & , , < < , , ",
", , * < < < , < < > * 4 6 6 6 < 4 d Y d s s i a 4 < * * , ; * < < < < * 1 O   ; 7 , i 6 < < < < < < , * , , * ; < < < , ",
"4 t : < < , * , , , * 4 6 6 4 > < < 4 ; * < < < < , * , , , * < < < , O 4 t 4 i d L T a < < , < < , , ; < < ; > < , 4 4 ",
"4 i 1 , , , > , , , > , , < , , , , , > > , , , , , > , , , > , , , , ; > 6 6 9 7 6 , , , , , , , , , , , , , > , , 6 6 ",
", , , , , , , , , , , , , , , , , , , , , , , , , , , , , , , , , , , , , , , , , , , , , , , , , , , , , , , , , , , , "
};
