/* XPM */
static char *s79amrQ9rViG48p_png[] = {
/* columns rows colors chars-per-pixel */
"60 60 218 2 ",
"   c #040405",
".  c #060708",
"X  c #0B0C0D",
"o  c #0E0F11",
"O  c #0F0D18",
"+  c #100F12",
"@  c #0F1012",
"#  c #121315",
"$  c #161619",
"%  c #18171C",
"&  c #17181B",
"*  c #1A1A1E",
"=  c #23191E",
"-  c #2F211F",
";  c #1D1D21",
":  c #191926",
">  c #201F22",
",  c #211E29",
"<  c #1F2024",
"1  c #212225",
"2  c #2B2425",
"3  c #232429",
"4  c #2A272A",
"5  c #27282A",
"6  c #2B292C",
"7  c #382C2C",
"8  c #36312E",
"9  c #232532",
"0  c #2D2E32",
"q  c #322F31",
"w  c #3B2E30",
"e  c #2E3037",
"r  c #2E3038",
"t  c #353134",
"y  c #3A3335",
"u  c #33333A",
"i  c #38343B",
"p  c #3E3B3C",
"a  c #422E29",
"s  c #463837",
"d  c #433B3C",
"f  c #533E39",
"g  c #49423F",
"h  c #57413B",
"j  c #353943",
"k  c #443D41",
"l  c #474447",
"z  c #4B4344",
"x  c #4C494B",
"c  c #544543",
"v  c #574B4A",
"b  c #534B4C",
"n  c #5E514C",
"m  c #494B52",
"M  c #494C58",
"N  c #4F5053",
"B  c #565353",
"V  c #5D5252",
"C  c #54525B",
"Z  c #5B595B",
"A  c #664C44",
"S  c #754D43",
"D  c #64534C",
"F  c #6C554C",
"G  c #75574D",
"H  c #645854",
"J  c #6C5C55",
"K  c #6D5C5B",
"L  c #725A54",
"P  c #7C5D54",
"I  c #6A635D",
"U  c #75615C",
"Y  c #7B6358",
"T  c #49536F",
"R  c #555864",
"E  c #5B5D63",
"W  c #635E66",
"Q  c #6B6564",
"!  c #676569",
"~  c #786463",
"^  c #746B65",
"/  c #7B6963",
"(  c #746C6C",
")  c #7D6E69",
"_  c #7D7067",
"`  c #7A726D",
"'  c #7C7373",
"]  c #7E7873",
"[  c #777679",
"{  c #7C747D",
"}  c #846255",
"|  c #876458",
" . c #8C6A5C",
".. c #92695B",
"X. c #97725D",
"o. c #A6745C",
"O. c #826A64",
"+. c #8A6C64",
"@. c #936E61",
"#. c #8A756B",
"$. c #8C756D",
"%. c #967163",
"&. c #9B7564",
"*. c #99796B",
"=. c #887771",
"-. c #827A76",
";. c #8B7C74",
":. c #837A7A",
">. c #977775",
",. c #A37E6B",
"<. c #8A8078",
"1. c #98867A",
"2. c #B3866F",
"3. c #B2886F",
"4. c #A78877",
"5. c #AB8A76",
"6. c #A58A7B",
"7. c #B28C75",
"8. c #B68F7D",
"9. c #B8927A",
"0. c #C08F78",
"q. c #C6977D",
"w. c #4C5783",
"e. c #565D86",
"r. c #57618B",
"t. c #5A628F",
"y. c #5C6591",
"u. c #5E6896",
"i. c #686782",
"p. c #746F87",
"a. c #7B7787",
"s. c #626A94",
"d. c #646E9A",
"f. c #6B739D",
"g. c #737695",
"h. c #787C9A",
"j. c #7079A7",
"k. c #837881",
"l. c #907F81",
"z. c #7A85B4",
"x. c #8D8384",
"c. c #998B84",
"v. c #9F9386",
"b. c #9C908C",
"n. c #8D899B",
"m. c #A28E85",
"M. c #A39183",
"N. c #AC9383",
"B. c #A3958B",
"V. c #AD9A8D",
"C. c #B79988",
"Z. c #A49B96",
"A. c #AC9C94",
"S. c #A39A9D",
"D. c #B29F92",
"F. c #B5A38F",
"G. c #ABA197",
"H. c #B7A597",
"J. c #B3A59A",
"K. c #BBAC9C",
"L. c #8A94BA",
"P. c #9295B1",
"I. c #B6AAA3",
"U. c #BBADA4",
"Y. c #AFABB3",
"T. c #C59D84",
"R. c #C89D84",
"E. c #C8A38A",
"W. c #D2A78A",
"Q. c #C7AA96",
"!. c #CBAD94",
"~. c #D3AE93",
"^. c #D3B49B",
"/. c #D8B59A",
"(. c #E3BB9D",
"). c #C5B5A6",
"_. c #C3B8AC",
"`. c #D3BBA5",
"'. c #D9BAA1",
"]. c #C9BEB3",
"[. c #E6BEA1",
"{. c #DBC1A9",
"}. c #CDC2B3",
"|. c #CDC3BD",
" X c #D5C5B3",
".X c #D4C9B9",
"XX c #D6CABA",
"oX c #DDD1BE",
"OX c #E4C1A6",
"+X c #E9C3A4",
"@X c #E4C3A9",
"#X c #E6C9AC",
"$X c #EDCBAE",
"%X c #F1CDAF",
"&X c #E4CCB4",
"*X c #E6CFBA",
"=X c #EBD2B6",
"-X c #ECD4BA",
";X c #F2D5B6",
":X c #8D99C6",
">X c #99A6D0",
",X c #B6B9C8",
"<X c #A6B3D8",
"1X c #B7C1DB",
"2X c #D4D1CE",
"3X c #C4C7D6",
"4X c #DCDAD9",
"5X c #E9D9C6",
"6X c #E5DBCA",
"7X c #F2DEC4",
"8X c #E3DCD1",
"9X c #F1E1CD",
"0X c #EDE5D3",
"qX c #E6E3D9",
"wX c #F0E5D3",
"eX c #F2E9D6",
"rX c #F4ECDB",
"tX c #F7F2E2",
/* pixels */
"0 ; * * $ * ; * & & * ; * * ; ; ; # # $ * ; & # X & 5 i t & & * ; $ & ; ; ; ; & X * ; ; * * 1 1 1 ; # * * * # * ; ; ; l ",
"; * ; * # * ; $ * ; * ; ; ; ; * * @ & ; ; ; ; $ X l [ { [ E j 1 & @ * ; ; ; ; * o * ; ; * * 3 1 3 1 o * * * $ ; ; ; # ; ",
"; ; ; * # $ $ $ * ; ; ; ; ; ; ; $ X $ ; ; ; ; ; C a.:.] ] ] [ E r @ ; ; ; * ; * $ ; ; ; ; < 1 1 1 1 o * ; ; ; ; ; * $ * ",
"* ; ; ; ; $ # ; 1 ; ; ; ; ; ; ; $ X # ; ; ; ; C [ ' -.x.x.` Q E R j ; ; ; $ * ; * ; ; ; * $ ; ; < * X * ; ; ; ; * o * ; ",
"* * ; ; ; o $ ; ; ; ; ; ; ; ; ; ; # $ ; ; ; 3 ! ( ' :.x.b.Q y d x M r ; ; * $ ; ; ; ; ; ; * ; ; * * # $ ; ; ; * $ . * ; ",
"* * ; * # o $ ; * $ * ; ; ; ; ; ; + $ & ; * 0 ! ^ ' :.x.' K *.N.4.d j ; ; ; ; ; ; ; ; ; ; ; ; ; * ; $ $ * * ; ; & . $ ; ",
"* ; * @ & ; ; ; ; * ; ; ; ; ; ; ; # X # ; ; u Z I ( :.' V 5.$X%X+XF 9 < ; ; ; ; ; ; ; ; ; ; ; 1 $ # # < ; * < ; * o @ # ",
"# * * # ; ; ; ; ; ; ; * * ; ; ; ; * . $ * $ u N B Q ( b P T.OX+XW.G : ; $ $ ; ; $ * ; ; ; ; & $ $ & * 1 1 * < ; ; * ; * ",
"* ; ; # * ; ; ; ; ; * ; ; ; ; ; ; * * ; * & r m b Z B d G &.~.~.X.f : * * ; ; ; $ & ; ; ; ; ; * * ; 1 1 ; $ * ; ; ; ; ; ",
"; ; ; * * * ; * * ; * < ; ; ; ; * * ; ; ; ; e m x Z B s h E.OX7. .n : * ; * ; ; * * ; ; ; ; ; * & ; ; ; ; ; * * ; ; ; ; ",
"* ; ; * * $ $ X & ; ; ; ; ; * ; ; ; ; ; ; ; 0 m x B x } R.$X%X(.q.f : & * ; ; ; ; ; ; ; ; ; ; * $ ; ; ; ; ; ; ; ; ; ; ; ",
"* ; ; ; ; $ . . $ ; ; * * ; ; ; ; ; & * ; ; u x l B l  .[.$X%X(.q.w ; ; ; ; ; ; ; ; * ; ; ; ; ; $ & ; ; * ; ; ; ; & $ ; ",
"$ ; ; ; ; $ . $ ; ; ; * $ ; ; ; ; * X $ ; 1 M x l b k S W.+X(.R.F , ; ; ; ; ; ; ; * * ; $ * ; ; * @ * ; * * * ; 1 ; $ ; ",
"# $ * ; ; * X * ; ; * ; ; ; ; ; ; * $ # 3 M R z z b y 7 o.q.9.D * ; ; ; ; ; ; ; ; * * * # * ; < < X * ; # # * ; 1 < $ $ ",
"$ * * ; ; ; * ; ; * ; ; ; * $ ; ; * # * M R z z z z 4 - 2.0.S = ; ; * ; ; ; $ ; ; ; ; * @ $ $ # # # * ; * ; ; ; ; 1 ; o ",
"& ; ; ; * ; ; ; ; * ; ; $ * $ ; ; ; * j N z z g z y 1 A R.[.2...+.z ; ; ; * @ ; ; * $ ; & @ # * * * ; ; ; ; ; < 1 3 1 $ ",
"* ; ; ; # $ ; ; ; ; ; ; * * $ ; ; ; 6 m d d d d i b 1.`.&X$X(./.^.A.y * * # X ; ; ; # $ ; ; ; ; ; ; ; * $ * 1 1 1 3 1 & ",
"* * * ; # # ; ; ; $ * ; ; ; * * * ; u p 8 2 2 : y  X7X7XeX9X-X-X&X2XQ $ o # o ; ; ; & * ; ; ; ; ; ; ; ; # $ ; * * ; $ X ",
"* * ; < # * ; ; ; ; $ ; ; ; ; * # * 0 t 1 $ % O g -X-X#XwXrXrXeX0X0X}.x X * # ; ; ; * ; ; ; ; ; ; ; ; 1 $ $ ; ; ; ; * # ",
"* ; ; ; @ ; ; ; ; * * ; ; ; ; ; ; ; 1 4 2 ; ; O v @X(.W.7XtXrXeX0X6XoX:.@ & * ; ; ; ; * ; ; ; ; ; & ; 1 $ * ; ; * ; ; # ",
"; ; ; ; $ ; ; * * ; ; ; ; ; ; ; ; ; ; > 1 1 : # D @X~.5.XX0X6XXX_.J.b.b * * ; ; ; ; * $ & ; ; ; ; $ ; ; $ ; ; $ $ * * $ ",
"; * ; ; ; ; ; $ $ ; ; ; ; < ; ; ; ; ; $ & 1 : : J @XW.L B.).J.c.<.=.K 3 & ; ; ; ; ; * & # * ; ; ; # o X # ; ; * # * ; * ",
"; $ $ ; ; ; ; # $ * * ; % ; ; ; ; ; ; ; 1 3 9 9 / OXT.a Y Q.C.6.,.,.P 2 * ; ; ; ; ; ; * o $ * * $ $ * * ; ; ; ; ; ; ; ; ",
"$ # X & ; ; * $ ; * * 1 * ; ; ; * ; ; ; 6 3 ; ; ;.[.5.2 h '.OX/.T.3. .q ; ; ; ; ; ; ; * * & & # # ; * * $ * ; ; ; ; * $ ",
"* ; # X & * # * ; ; ; * * ; ; ; ; ; ; ; ; ; # ; M./.#.; 3 F.;X#XE.3.%.c ; ; ; ; ; ; ; * ; ; ; * * ; ; * $ ; * ; ; ; * X ",
"* ; ; * * * # ; ; ; ; ; ; ; ; ; ; ; * ; ; * * 3 F.~.U ; 4 N.=XOXT.,.X.} q ; ; * $ $ * ; ; ; ; ; ; < ; ; ; ; ; ; ; ; ; $ ",
"* ; ; ; ; ; $ ; ; ; * * * ; ; ; ; ; * * ; ; ; 0 ).Q.n 6 1.{.@X~.7.&.+.$.F 1 ; & # # # ; ; * ; ; ; 1 ; ; ; ; ; ; ; ; ; ; ",
"* ; % * ; ; ; ; ; ; & * # * ; ; ; ; ; $ * ; * p {.!.c b }.oX*X`.C.N.m.=.$.s @ & ; * $ ; * $ ; ; ; ; ; ; ; ; ; ; ; * > > ",
"* ; ; ; ; ; ; ; ; ; ; $ # * ; ; ; ; ; ; ; ; o z *XQ.~ A.0X6X6X|.Y.Y.P.n.:.J 2 ; ; * * 1 * * ; * * ; ; ; ; ; ; ; ; $ * * ",
"* * ; ; ; ; ; ; % $ $ * ; ; ; ; ; ; ; ; ; * . V *XH.c.6XeX0X8X,X:XL.j.e.p./ K q ; * * & ; ; * * # ; ; 1 1 ; & * * # . . ",
"; * ; ; ; ; ; $ @ $ * ; ; ; ; ; ; * ; ; ; *   ^ *XC.A.0XqX4X3X>Xj.f.t.e.g.' =.l ; * @ $ ; ; ; ; $ ; < ; & * & * * * $ . ",
"* ; ; ; ; ; * $ * * * * ; ; ; ; ; $ ; ; * o X v.&XN.S.4X3X<X>Xz.e.r.u.s.f.p.O.n 1 ; ; ; ; ; ; * $ ; ; ; & & ; ; ; ; * . ",
"# ; ; * & ; ; * & $ ; * ; ; * ; ; ; ; ; $ # B 6X&XV.S.4X1X<X:Xz.y.T w.t.s.p.@.| 6 1 * ; ; ; ; ; ; ; ; 1 * * ; $ * ; ; # ",
"$ ; > # * 1 ; * ; * ; ; ; ; ; ; * ; ; ; $ * -.9X5XXXU.qX2X,XL.z.f.y.e.y.s.{ %.} 4 * o * ; * $ ; ; ; ; ; * & ; * & ; ; # ",
"; ; 1 + * 3 < * ; ; ; ; ; ; ; ; $ * ; ; $ * ' ).V.1.1.K.XXXXY.P.f.d.t.y.i.L } G * # # ; ; * $ ; ; * ; ; & $ ; ; ; ; ; # ",
"; ; > # # * * ; ; ; ; * & * * ; $ * ; ; * * c.&X5.@.O.N.}.]._.S.h.d.t.g.:.b 4 t ; ; ; ; ; ; ; ; * $ ; * $ * ; ; ; ; ; # ",
"; * * * * ; ; ; ; ; ; ; $ * * ; ; ; ; ; ; * I '.X.| Y C.5.U._.J.S.f.t.a.( 6 ; ; ; ; ; ; * & $ ; ; ; $ & $ ; ; ; ; ; ; # ",
"* # $ % ; * ; ; ; * ; ; $ * ; ; ; ; ; ; * $ q 6.&.c n T.7.6.A.I.S.g.i.{ l # ; ; * ; ; ; # $ # * ; ; $ # # * ; ; ; * $ . ",
"$ $ * * ; * $ $ # X # o $ ; ; ; ; ; ; ; * $ ; p L 4 I ^.7.%.l.b.Z.x.O.~ 6 # * * ; ; ; * # 1 ; * ; ; ; * * $ % ; * $ @ X ",
"* ; % * ; ; * * & $ * $ * ; ; ; * ; ; ; $ & ; ; ; * ] 7XE.>.k p =.+.| K ; X * ; $ * ; * o $ * ; ; ; ; ; * & * ; ; ; ; * ",
"* ; ; ; ; ; * $ * * ; ; ; ; ; * # * ; ; # & ; ; ; * ` 7X/.>.1 & h | %.V ; # # * # * ; < # * ; ; ; ; ; ; o # ; ; ; ; ; * ",
"$ & * ; ; ; ; ; ; ; ; ; ; ; ; ; * $ ; * # * ; ; ; * ` 7X'.) * ; A &.*.k ; * # # o * ; 1 # & ; ; * ; ; ; * & ; ; ; ; ; ; ",
". X $ ; ; ; ; ; ; ; ; ; ; ; ; ; ; # @ X . # # * ; * c.-X!.b ; 4 } 8.$.t ; ; ; ; # # * * # & ; 1 & * * ; # $ ; ; ; ; ; ; ",
"& * ; * * ; ; ; ; ; ; ; ; * $ ; ; ; * & # * ; 1 ; p  X#XN.q * t *.8.+.u ; ; ; ; & o * ; $ $ ; 1 $ * ; ; # ; ; ; * * ; ; ",
"; ; ; @ # ; ; ; ; * % ; ; * # ; ; < ; ; $ ; ; < 1 <.=X!./ ; ; 8 5.C.+.u ; ; ; ; * X * < & $ 1 1 # * ; * # * ; ; ; $ ; * ",
"* * ; X # 1 ; * ; * & * ; * & ; ; * * ; # ; ; ; 1 B.{.5.v ; ; 4 4.Q.6.i & ; ; ; * . X $ * # ; & # ; ; ; ; ; ; ; ; ; ; & ",
"X $ 1 $ o * & * ; ; * * ; $ # ; ; ; 1 ; # ; ; ; ; M.^.&.z $ & q 4.Q.C.C ; ; ; ; # . # . # @ # # * ; ; ; ; ; ; ; ; ; * o ",
"  # ; ; * * ; ; ; & # * ; & # ; < 1 ; ; # $ $ & $ 1./.5.d # & z Q.`.H.k.1 ; ; * . . * # # * ; ; ; ; ; ; ; * ; ; $ @ # . ",
"  . $ ; ; ; ; ; ; ; * ; ; ; $ * ; ; ; ; # @ $ * * 1.^.N.p * ; q b._.B.B ; ; ; ; # X ; ; ; ; ; * ; ; ; ; * * * $ . @ * & ",
"  X * ; ; ; ; ; ; ; $ ; ; ; * $ $ & $ o . # ; $ 4 F.`.H.W ; ; ; D ;.U t ; ; ; ; * o * ; 1 ; * $ ; ; ; ; ; 3 1 X X * ; ; ",
"X $ & ; ; ; ; ; ; ; * ; ; ; ; ; * * $ o # * ; * 6 G. XU.W ; ; * D $.K t ; ; ; ; * o $ * 1 ; * o $ * ; ; 1 1 1 X & ; ; ; ",
"& ; ; ; ; ; ; $ * ; ; ; ; ; ; ; ; ; ; $ # ; ; ; ; Q 1./ y ; ; 1 J $.~ x ; ; < ; * o * < 1 1 & $ & # $ ; ; ; 1 # ; > ; ; ",
"* * $ * * * ; $ ; ; ; ; & ; ; ; ; ; ; * X * ; ; ; ^ 1./ t ; ; 1 ) V.B.k.t ; 1 ; * o ; 1 < < $ * ; * * ; * # & $ 1 1 ; ; ",
"* * $ * ; ; ; $ ; ; ; * $ ; * * ; ; ; * . % ; ; ; ) 1.=.k ; ; * J A.J.J.B.b 1 ; * o & & $ $ # * ; ; ; ; ; ; * # 1 < ; ; ",
"* * ; ; 1 ; ; X # * * ; * * & ; * ; ; * X & ; ; ; -.K.A.( 6 ; > H D.K.F.M.#.t ; * $ * ; ; ; * ; ; * * ; < 1 1 $ * * ; ; ",
"& ; ; ; ; < ; # # 1 * ; ; * $ # & ; ; ; X & ; ; ; I H.J.U.` 1 * 4 K c.1.#./ d ; $ $ ; ; ; ; ; ; ; * & ; ; 1 1 1 ; ; ; & ",
"# ; ; ; * 1 ; & & 1 1 1 ; ; ; & * ; ; ; X & ; ; ; b K.).D.m.x ; * & d H z t 1 ; $ X $ ; ; ; ; ; ; * $ ; ; ; < ; ; * $ * ",
"$ ; ; ; < ; ; * & ; 1 1 % $ ; ; ; ; * ; X & ; ; * 1 ;.V.1.$.H < ; ; ; ; ; ; ; < # # ; ; ; ; ; ; ; * $ * * ; ; * * # # 1 ",
"$ ; ; ; ; ; ; ; * $ ; ; $ # ; ; * & @ & . X * ; ; * b _ n d 6 ; ; ; % & ; ; ; ; o $ ; ; ; ; ; ; ; $ # $ & ; ; * & & * 1 ",
". + # & * $ & * $ X * * X . # * * $ @ & .   . & ; ; > 1 * & * ; ; * # X & & & & . $ ; ; ; ; * $ $ # X $ X & ; * $ * * 3 "
};
