/* XPM */
static char *s63aMPjGv6xG24K_png[] = {
/* columns rows colors chars-per-pixel */
"60 60 206 2 ",
"   c None",
".  c #15151C",
"X  c #1D181F",
"o  c #261B1F",
"O  c #1C1A23",
"+  c #191724",
"@  c #241F26",
"#  c #232122",
"$  c #292424",
"%  c #2A252C",
"&  c #2A292D",
"*  c #382C2D",
"=  c #212233",
"-  c #292733",
";  c #332D32",
":  c #383637",
">  c #402D2D",
",  c #453B3B",
"<  c #42363B",
"1  c #55403C",
"2  c #64453C",
"3  c #7B4E3F",
"4  c #353547",
"5  c #483F41",
"6  c #3B414F",
"7  c #4C4243",
"8  c #4D4A4C",
"9  c #474347",
"0  c #514C4C",
"q  c #544443",
"w  c #555253",
"e  c #5E5B5B",
"r  c #5E5356",
"t  c #4B4D56",
"y  c #78554B",
"u  c #695959",
"i  c #755B55",
"p  c #6C4C44",
"a  c #7D675D",
"s  c #575C69",
"d  c #525D73",
"f  c #586171",
"g  c #6E6867",
"h  c #776261",
"j  c #726B6B",
"k  c #7A6969",
"l  c #676D78",
"z  c #71697F",
"x  c #7D7776",
"c  c #865F51",
"v  c #81524A",
"b  c #88614F",
"n  c #8C6256",
"m  c #9C6C5C",
"M  c #91665A",
"N  c #99664F",
"B  c #A56D5A",
"V  c #AE725A",
"C  c #846B65",
"Z  c #886863",
"A  c #936D62",
"S  c #956D67",
"D  c #8A7165",
"F  c #8C746D",
"G  c #87726A",
"H  c #9E7363",
"J  c #91746C",
"K  c #92796E",
"L  c #817573",
"P  c #8B7273",
"I  c #847B7A",
"U  c #897D7A",
"Y  c #877677",
"T  c #957C73",
"R  c #997C7A",
"E  c #A57966",
"W  c #A37C6D",
"Q  c #AB7865",
"!  c #A37976",
"~  c #B37E68",
"^  c #9C8476",
"/  c #9E887D",
"(  c #AE806C",
")  c #B3836C",
"_  c #BE886F",
"`  c #A58D7E",
"'  c #AB8677",
"]  c #B58975",
"[  c #AF927F",
"{  c #BE937C",
"}  c #BF9277",
"|  c #C28D73",
" . c #C5977C",
".. c #C58469",
"X. c #495682",
"o. c #545D8B",
"O. c #53608F",
"+. c #5E6994",
"@. c #5D699A",
"#. c #576495",
"$. c #6D6D8C",
"%. c #647383",
"&. c #697788",
"*. c #7C7787",
"=. c #646A92",
"-. c #626F9E",
";. c #6C79A8",
":. c #9C7D8B",
">. c #887C86",
",. c #7987B6",
"<. c #8B8386",
"1. c #938582",
"2. c #9C8986",
"3. c #87899A",
"4. c #978D97",
"5. c #9E9292",
"6. c #89939E",
"7. c #A68C81",
"8. c #AB8D83",
"9. c #A68587",
"0. c #B58F8D",
"q. c #AB9588",
"w. c #B29B8C",
"e. c #B79584",
"r. c #AA9A93",
"t. c #A49298",
"y. c #B29F95",
"u. c #B49A9B",
"i. c #B1939C",
"p. c #A68793",
"a. c #BAA495",
"s. c #B3A29C",
"d. c #BDAA9C",
"f. c #B7A599",
"g. c #8990A0",
"h. c #9496A4",
"j. c #8A8CA9",
"k. c #A799A9",
"l. c #9EA1B9",
"z. c #BBA7A1",
"x. c #BDB0A7",
"c. c #A8A9BA",
"v. c #C59D85",
"b. c #CA9C86",
"n. c #C29C90",
"m. c #C5A28A",
"M. c #DDA584",
"N. c #D6A589",
"B. c #CAAB94",
"V. c #C5A997",
"C. c #D5AD93",
"Z. c #D3AD99",
"A. c #D8AE95",
"S. c #CEB39E",
"D. c #DBB69C",
"F. c #D6B59C",
"G. c #E2A98A",
"H. c #E5B494",
"J. c #EABC9C",
"K. c #E4BC9F",
"L. c #F1BC9A",
"P. c #CDBCAC",
"I. c #C3B4A8",
"U. c #DFBCA2",
"Y. c #D1BFAE",
"T. c #C5BEBF",
"R. c #E2BDA2",
"E. c #E9BEA0",
"W. c #F1C29F",
"Q. c #D3C4B5",
"!. c #D5CABC",
"~. c #DECDBB",
"^. c #DAD0BE",
"/. c #D5C4B3",
"(. c #E4C2A5",
"). c #EAC3A6",
"_. c #F2C3A2",
"`. c #F4CAA9",
"'. c #F8CFAE",
"]. c #E6CCB5",
"[. c #F2CFB2",
"{. c #E5D0BB",
"}. c #F2D5B9",
"|. c #F5D4B8",
" X c #8294C5",
".X c #8DA0D4",
"XX c #A6B0CF",
"oX c #A0ADD1",
"OX c #AEBAD8",
"+X c #A1B3E0",
"@X c #BFC8E0",
"#X c #DCD6CA",
"$X c #CACDD7",
"%X c #D3D2D2",
"&X c #E5D7C5",
"*X c #E5DAC9",
"=X c #F5DDC5",
"-X c #F5DEC7",
";X c #E3DDD6",
":X c #EAE0CE",
">X c #F7E3CB",
",X c #EDE4D2",
"<X c #F3E9D5",
"1X c #F4EAD8",
"2X c #F8F0DE",
"3X c #F7F2E1",
/* pixels */
"                                                                                                                        ",
"                                                                                                                        ",
"                                                                                                                        ",
"                                                              6.h.                                                      ",
"                                                          3.*.x I <.                                                    ",
"                                                      &.l j x U U x x g.                                                ",
"                                                    d t 9 : j 5.1.L k x                                                 ",
"                                                    6 i ^ D u U 1.L j j                                                 ",
"                                                    < b.'.`.] u I L g e %.                                              ",
"                                                    < _ J.J. .y r j e w %.                                              ",
"                                                    ; b { H.E 2 , e w 8 %.                                              ",
"                                                    ; H ) _.C.3 q w w 8 &.                                              ",
"                                                    - ~ L.`.`.G.y 0 0 8 &.                                              ",
"                                                    4 y M.W._.G.p 8 8 7 l                                               ",
"                                                      % c M.M.V * 7 0 7 s                                               ",
"                                                      = X y ..B o < q 7 7 f                                             ",
"                                                      P v B H._ > % 7 7 7 7 s                                           ",
"                                                    z.Z.N.H.`.).m.a 4 < , , , s                                         ",
"                                                    !.{.[.|.>X<X}.=XY + @ $ * 9                                         ",
"                                                  #X:X,X1X1X2X-X).|.` . + . # :                                         ",
"                                                  x.!.&X,X1X3X{.N._.8.. + O $ &                                         ",
"                                                  U 1.r.z.Q.&XV.( J.e.O + # $                                           ",
"                                                    A J T q.V.C y H.m.% = #                                             ",
"                                                  c Q | b.A.A.1 2 G.B.: 4 %                                             ",
"                                                  M Q  .E.[.B.;   N.F.,   - -                                           ",
"                                                  M Q | R.[.m.    v.U.                                                  ",
"                                                A A m ) N.).R.a.  { R.                                                  ",
"                                              J K R 8.e.F.].{.Y.  n.(.                                                  ",
"                                              C >.j.l.c.T.&X:X*Xy.8.(.-X                                                ",
"                                            P C $.o.,. XoX#X<X<XQ.7.U.-X                                                ",
"                                            G *.;.o.-.@. XOX$X;X*X8.D.-X                                                ",
"                                          E Z $.@.#.o.X.;..X+X@X$X2.Z.=X                                                ",
"                                          B m *.+.O.X.+.;.,.XX$X%Xs.].>X<X                                              ",
"                                          m m k =.#.@.-.,.c.Q.^.P.q.I.Y.~.                                              ",
"                                            A h *.+.@.;.h.I.Q.Y.W Z H B.=X                                              ",
"                                              k 1.=.@.3.s.I.d.e.] S N N.}.                                              ",
"                                                4.z =.4.f.y.[ ]  .' m }                                                 ",
"                                                  Z P 5.r.t.H } D.  (                                                   ",
"                                                  S n J     ! C.-X                                                      ",
"                                                  ! m n     0.K.-X                                                      ",
"                                                  R Q H     u.D.=X                                                      ",
"                                                  :.( (       Z.}.                                                      ",
"                                                  :.E { E     n.(.=X                                                    ",
"                                                  p.{ v.      9.m.].                                                    ",
"                                                  i.v.v.      R ) (.                                                    ",
"                                                  u.B.S.8.    9.{ R.                                                    ",
"                                                  2.f.d.      9.v.D.                                                    ",
"                                                  i C D       k.V.(.                                                    ",
"                                                  i C D       t.f.P.                                                    ",
"                                                  Y F K       h C `                                                     ",
"                                                r.r.y./       h D `                                                     ",
"                                              q.a.d.a.T       Y 2.w.                                                    ",
"                                              F T 8.q./       y.f.f.                                                    ",
"                                              C C ^         w.d.I.a.                                                    ",
"                                                          T K ` w.w.                                                    ",
"                                                            G T 7.                                                      ",
"                                                                                                                        ",
"                                                                                                                        ",
"                                                                                                                        ",
"                                                                                                                        "
};