/* XPM */
static char *_856093c99514f4ebaea4dfe5c822042ACXD5GZjgEIox8YA[] = {
/* columns rows colors chars-per-pixel */
"60 60 217 2 ",
"   c None",
".  c #010101",
"X  c #0A050A",
"o  c #0A0A0A",
"O  c #06070B",
"+  c #120D0D",
"@  c #060D14",
"#  c #190A16",
"$  c #180A16",
"%  c #09111D",
"&  c gray8",
"*  c #1B1C17",
"=  c #10170C",
"-  c #200F1A",
";  c #251B1A",
":  c #0D240B",
">  c #0F2A0D",
",  c #11250F",
"<  c #10320E",
"1  c #143A11",
"2  c #122C11",
"3  c #28221B",
"4  c #232319",
"5  c #31241F",
"6  c #25381A",
"7  c #071521",
"8  c #390A27",
"9  c #0E2335",
"0  c #122537",
"q  c #372925",
"w  c #323022",
"e  c #2E3D34",
"r  c #42052D",
"t  c #4D0735",
"y  c #4E113D",
"u  c #54083B",
"i  c #473A2F",
"p  c #48372E",
"a  c #493532",
"s  c #4D3D34",
"d  c #533F33",
"f  c #563237",
"g  c #285B1A",
"h  c #257B1D",
"j  c #39482A",
"k  c #314B32",
"l  c #2C6724",
"z  c #544234",
"x  c #5E4A3D",
"c  c #5F503B",
"v  c #4A4431",
"b  c #516D3A",
"n  c #537A36",
"m  c #477330",
"M  c #163A4D",
"N  c #590F41",
"B  c #661447",
"V  c #781D52",
"C  c #513642",
"Z  c #683747",
"A  c #752956",
"S  c #6A2F55",
"D  c #5B3962",
"F  c #74397B",
"G  c #7B2C70",
"H  c #1D475E",
"J  c #274C48",
"K  c #3E5249",
"L  c #184961",
"P  c #254060",
"I  c #355F73",
"U  c #525754",
"Y  c #654E40",
"T  c #685644",
"R  c #735B48",
"E  c #735948",
"W  c #7A4B4C",
"Q  c #577345",
"!  c #5E6146",
"~  c #7B664C",
"^  c #656653",
"/  c #7E6A51",
"(  c #677350",
")  c #424960",
"_  c #795374",
"`  c #50757F",
"'  c #66676F",
"]  c #757675",
"[  c #832F5F",
"{  c #8B176A",
"}  c #B41B7E",
"|  c #902D70",
" . c #A8377B",
".. c #AF2979",
"X. c #854A5B",
"o. c #934E5E",
"O. c #8C6A57",
"+. c #8D795E",
"@. c #99765C",
"#. c #96745A",
"$. c #854965",
"%. c #974A62",
"&. c #904D70",
"*. c #A15A6B",
"=. c #AA5477",
"-. c #966B67",
";. c #8D7768",
":. c #9C7A64",
">. c #9A7669",
",. c #847D78",
"<. c #946E7B",
"1. c #A37D66",
"2. c #A47B6C",
"3. c #B1766F",
"4. c #B4667B",
"5. c #B77A74",
"6. c #AC7071",
"7. c #248C1E",
"8. c #1DA914",
"9. c #28A819",
"0. c #26B617",
"q. c #32B71B",
"w. c #2B8923",
"e. c #378E2A",
"r. c #2D9C22",
"t. c #2A9423",
"y. c #359925",
"u. c #329829",
"i. c #37A62C",
"p. c #3AB42C",
"a. c #3BBA2E",
"s. c #36B527",
"d. c #3EB633",
"f. c #3CAA31",
"g. c #40952F",
"h. c #4E9536",
"j. c #63983F",
"k. c #50A032",
"l. c #42BB34",
"z. c #41B635",
"x. c #41A928",
"c. c #42C534",
"v. c #42C935",
"b. c #5C8542",
"n. c #788849",
"m. c #799249",
"M. c #748278",
"N. c #918258",
"B. c #A2905E",
"V. c #8A847E",
"C. c #978877",
"Z. c #9D927E",
"A. c #A48566",
"S. c #AD856A",
"D. c #AC8A6C",
"F. c #A98564",
"G. c #B48A6C",
"H. c #B4856D",
"J. c #B6966D",
"K. c #AB8571",
"L. c #B48E72",
"P. c #BC8C74",
"I. c #BA8574",
"U. c #BC9372",
"Y. c #B99474",
"T. c #AC9170",
"R. c #C1887A",
"E. c #C29675",
"W. c #C49874",
"Q. c #C2937A",
"!. c #C0926C",
"~. c #3C7699",
"^. c #5B4587",
"/. c #5B4F94",
"(. c #604182",
"). c #6D489D",
"_. c #436488",
"`. c #4F7694",
"'. c #6D6D8D",
"]. c #B51D83",
"[. c #B91E8B",
"{. c #B41F8D",
"}. c #BB1D91",
"|. c #9A2D84",
" X c #9A3685",
".X c #8A3895",
"XX c #AC298C",
"oX c #A72B87",
"OX c #B4228C",
"+X c #B82689",
"@X c #A73288",
"#X c #B8348D",
"$X c #AD2A93",
"%X c #B52493",
"&X c #BC2294",
"*X c #B42C95",
"=X c #BD2699",
"-X c #B42A99",
";X c #BC2B9C",
":X c #B92993",
">X c #A43293",
",X c #AF3391",
"<X c #BC349C",
"1X c #B53395",
"2X c #BD2CA1",
"3X c #BE34A0",
"4X c #C01D94",
"5X c #C1249C",
"6X c #C12E9E",
"7X c #C02794",
"8X c #C1329B",
"9X c #C32DA2",
"0X c #C226A0",
"qX c #A94386",
"wX c #907C85",
"eX c #7F838F",
"rX c #89938A",
/* pixels */
"                                                    ].&X=XOX                                                            ",
"                                                  [.&X-X=X=X,X  |.oX*X;X6X<X                                            ",
"                                              OX=X;X%X%X$X&.( Q | *X;X;X6X9X                                            ",
"                                            ].=X-X%X}.XX^ r.8.b @X1X;X*X6X9X<X                                          ",
"                                            OX-XOX&X*X^ 9.9.k.A.R.5.4.@X6X9X<X                                          ",
"                                          OX;X-X&X=X$.9.0.j.J.W.W.W.U.=.6X;X                                            ",
"                                        ].=X-X&X5X-XQ 0.h.G.U.U.E.E.W.6.1X*X                                            ",
"                                        OX;X$X[.0X@Xy.0.+.L.C.;.D.W.U.:.qX*X                                            ",
"                                        :X9X-X&X5X Xr.g.K.Z.rXrXZ.E.L.C.wX,X    1X                                      ",
"                                        =X2X;X5X2X|.e.b.>.U I ` M.Y.T.M.'  X;X<X                                        ",
"                                        {.$X=X4X0XoX! T Z S ^.'.<.5.<.'._ | XX                                          ",
"                                        &X-X-X5XOXS f a Z V r u B  .| y N { $X                                          ",
"                                      &X9X;X;X4X| d f a +.%.t t B 5.o.r t { 1X                                          ",
"                                    } 5X-X;X}.%XZ z d C ] P.*.%.6.P.H.X.[ XX>X                                          ",
"                                      [.-X-X{.A d Z D F ' U.W.3.$.X.%.H.&..X>X                                          ",
"                                      [.9X$X=.E Z >X)./.' @.U.3.[ A o.-.F ^.                                            ",
"                                      =X<X4.E.I. .$XG _ D.#.O.1.-.O.n.Q (.^.                                            ",
"                                      +X4.E.W.*.G C a / E.S.@.T q w g y.(                                               ",
"                                    ..4.E.W.G.W s i i ~ J.T.N.v 3 3 4 j h.q.                                            ",
"                                    3.U.W.E.H.P.R i Y S.B.A.D.i 3 ; q v $.x.                                            ",
"                                    U.E.U.G.U.W.#.z 1.Q.E.P.G.p 3 z 1.m.                                                ",
"                                    U.U.G.U.W.!.#.+.Q.Q.E.P.U.z d D.W.m.9.s.                                            ",
"                                      5.I.I.3.W 3 q E / x a s s @.W.E.                                                  ",
"                                        ..#XoX8 . $ X . $ X . q G.E.E.                                                  ",
"                                        } 7X#X8 X # . X # . . 5 G.E.U.                                                  ",
"                                          7X#X  X 4 * # X . . ; G.W.U.                                                  ",
"                                        +X8X#X    6 = . . . . ; S.W.U.                                                  ",
"                                        #X        + . . . . X q S.E.                                                    ",
"                                                  O.~ R R ~ O.#.G.E.                                                    ",
"                                                K Y R R R T c c F.E.                                                    ",
"                                              M J q - # ; j j k :.E.                                                    ",
"                                            o 9 M J k e e J H H ;.E.                                                    ",
"                                          o . @ 9 M L M 0 9 7 O Y W.:.                                                  ",
"                                        o . . . O @ O O . . . . q U.;.                                                  ",
"                                      o . . . . . . . . . . . . + :.'.) 2.                                              ",
"                                    o . . . . . . . . . . . . . % _.`.'.L.                                              ",
"                                o . . . . . . . . . . . . . . . % P wXeXL.O.                                            ",
"                                o . . . . . . . . . . . . . . . . 9 _.' z +                                             ",
"                                  . . . . . . . . . . . . . . . . O % + . . . &                                         ",
"                                    o . . . . . . . . . . . . . . . . . . . o &                                         ",
"                                        o . . . . . . . . . . . . . . o & &                                             ",
"                                            * , < > : : : > < 1 2 o                                                     ",
"                                                i.u.h w.e.u.f.f.                                                        ",
"                                                c.v.s.a.v.v.c.z.                                                        ",
"                                                z.v.p.a.v.c.l.                                                          ",
"                                                d.c.a.a.v.v.z.                                                          ",
"                                                  c.c.p.c.v.l.                                                          ",
"                                                  l.v.s.c.v.c.                                                          ",
"                                                  z.v.a.a.c.c.l.                                                        ",
"                                                  d.c.c.s.c.c.i.                                                        ",
"                                                    t.r.w.t.7.h b                                                       ",
"                                                    n n m l m n.A.                                                      ",
"                                                    U.U.A.    E.U.                                                      ",
"                                                    U.E.1.    U.U.1.                                                    ",
"                                                    U.U.:.      E.S.                                                    ",
"                                                    U.G.        U.G.                                                    ",
"                                                    U.S.        L.G.                                                    ",
"                                                    V.,.        C.V.                                                    ",
"                                                    ,.            ]                                                     ",
"                                                  ~.`.            ~.                                                    "
};
