/* XPM */
static char *s63ainchO8xg9mT_png[] = {
/* columns rows colors chars-per-pixel */
"60 60 170 2 ",
"   c #1B2D13",
".  c #1D3414",
"X  c #1F3518",
"o  c #203715",
"O  c #223B17",
"+  c #20341A",
"@  c #233B1B",
"#  c #283A20",
"$  c #264117",
"%  c #25421A",
"&  c #29451C",
"*  c #2C4C1D",
"=  c #304E1F",
"-  c #2D501D",
";  c #31541E",
":  c #34581D",
">  c #395A1F",
",  c #3C621F",
"<  c #274321",
"1  c #2B4522",
"2  c #2E4C22",
"3  c #2E4D2A",
"4  c #314D24",
"5  c #334728",
"6  c #334C2A",
"7  c #2E5021",
"8  c #345424",
"9  c #395622",
"0  c #365A24",
"q  c #3A5C25",
"w  c #35542A",
"e  c #39552B",
"r  c #36592A",
"t  c #3B5C2B",
"y  c #365531",
"u  c #3B5531",
"i  c #375832",
"p  c #3C5D31",
"a  c #3D6225",
"s  c #3E622C",
"d  c #3E6232",
"f  c #3F6930",
"g  c #415E2D",
"h  c #415E32",
"j  c #426427",
"k  c #436B26",
"l  c #42642D",
"z  c #446B2C",
"x  c #496D2E",
"c  c #467027",
"v  c #46712C",
"b  c #4A732E",
"n  c #4D792E",
"m  c #51762C",
"M  c #517B2E",
"N  c #436533",
"B  c #4B6636",
"V  c #456B33",
"C  c #4A6D34",
"Z  c #436439",
"A  c #4A663C",
"S  c #466B39",
"D  c #4A6D3A",
"F  c #516C33",
"G  c #516E39",
"H  c #477033",
"J  c #4C7334",
"K  c #4E7933",
"L  c #47703B",
"P  c #4D733B",
"I  c #4F793B",
"U  c #517534",
"Y  c #527B34",
"T  c #597E35",
"R  c #51763B",
"E  c #537B3B",
"W  c #597E3B",
"Q  c #4B6F40",
"!  c #536F41",
"~  c #4E7441",
"^  c #4E7942",
"/  c #527642",
"(  c #547C42",
")  c #597D42",
"_  c #577648",
"`  c #547C49",
"'  c #5B7D4B",
"]  c #54832E",
"[  c #558235",
"{  c #598335",
"}  c #5C8A36",
"|  c #56823B",
" . c #5A833C",
".. c #57883B",
"X. c #5D8A3D",
"o. c #608335",
"O. c #628D37",
"+. c #618739",
"@. c #628C3C",
"#. c #62933B",
"$. c #69993C",
"%. c #568143",
"&. c #5B8444",
"*. c #5E8A43",
"=. c #57824A",
"-. c #5B844A",
";. c #5E894A",
":. c #5F8750",
">. c #5F8B53",
",. c #608444",
"<. c #628C45",
"1. c #628749",
"2. c #61854C",
"3. c #61864F",
"4. c #638B48",
"5. c #62894A",
"6. c #658B4A",
"7. c #618F4A",
"8. c #648F49",
"9. c #628B4C",
"0. c #658A4F",
"q. c #638C4D",
"w. c #658F4E",
"e. c #649040",
"r. c #649244",
"t. c #679445",
"y. c #689642",
"u. c #699444",
"i. c #6C9A44",
"p. c #649048",
"a. c #65934A",
"s. c #67914C",
"d. c #69934E",
"f. c #69964C",
"g. c #69944E",
"h. c #6D9B4A",
"j. c #6D9B4B",
"k. c #719945",
"l. c #71964C",
"z. c #618852",
"x. c #648A50",
"c. c #668F50",
"v. c #648D52",
"b. c #669151",
"n. c #6A9452",
"m. c #6C9550",
"M. c #6C9653",
"N. c #6B9456",
"B. c #6B9853",
"V. c #6C9952",
"C. c #669158",
"Z. c #6A935B",
"A. c #709B53",
"S. c #709956",
"D. c #719D54",
"F. c #709858",
"G. c #739D5B",
"H. c #72985D",
"J. c #74A44D",
"K. c #76A256",
"L. c #7BA851",
"P. c #75A259",
"I. c #7BA55E",
"U. c #7CA55D",
"Y. c #7DA85A",
"T. c #79A95C",
"R. c #7EAA63",
"E. c #7FAC63",
"W. c #80AE5A",
"Q. c #83AA68",
/* pixels */
"h.Y 7.<.8. .q.N.&.R 4.R z =.P ( P ! 1.E =.` R E C ( z J ;.E V =.C V ( S L =.P &.&.A.d.C C l N R n.E P &.V P <.f.R.S.0.&.",
"<.} *.;.P s.;.B.&.S =.S V x.P L ~ ( &.l ;.*.J ;.R E E V V I | H.( D 9.N P ( P %.V W E l R C P ( 7.W E 6.V E ;.I.p.Y.Q.M.",
"Y E E &.E 8.&.&.z.P V P R P L P P H L V p.Y z ~ ( &.Y V L P 7.G.4.3.( V I | E J ) 8.E E P z z z d.U.8.4.E V | P.X.L.&.P ",
"E *.b H *.Y C P ( &.E V R E H s P P ( ;.S.%.` S S 7.*.( &.E q.w.E E P L z @.e.B.*.R E C ) &.l <.S.4.P ;.9.c.V.p.t.y.*.&.",
" .X.J s U z P z V I E V P P V L ~ ( %.N./ E I D d b.E P c.&.-.&.s N -.R J  .X.4.t D E R C E *.s.f.E ( q.G.S.&.Y <.&.T.E.",
"K.f.8.N j l V 8 t V J t ` p Z P ^ I E e.V z E P s C.&.J ( &.n.7.P P E K V z [ E l I ;.4.D D -.b.M.P R q.;.;.P N P 9.B.p.",
"f.r.4.,.C S ` S S d z 8 ~ t S -.E &.E J I a J | I ;.E 0 &.E n.| | N Y P l E  .&.2 P &.&.8.&.&.;.*.K q.x.R 1.D S S &.;.x.",
"n.K  .W V ( / t P E a N P 0 V p.p.p.p.Y V 0 l Y *.K a 8 *.<.I J ( R | %.V ;.D.S 1 ~ 4.4.| P A ( V S &.%.;.` L =.( &.L -.",
"V.f.| P V ;.&.J J &.K E L S l h.f.r.E z  .q t I E E J C <.*.J s ( p s &.N E | S S ( N.E I S S ( I I V S %.E | b.b.%.-.( ",
"J r.*.a E 9.I s Y J | v | J J f.B.;.*.a J V s q z X.E &.s z E V | t V N N L ( D Z J E S ( &.( V I P d =.^ ( P %.&.^ 7.&.",
"| | *.X.&.` ( V  . .&.J b K z p.7.I | z a E E ( | X.*.s.8 q V V I E ( d P %.9.V w Z S d x.1.R E c.' D ~ / ` ` ;.I V | | ",
" .K a r.E l N ;.| T *.&.R E Y @. .Y *.| t v  .J &.| J.<.P l C P 7.( &.E ( ;.J s d Z P 3.' ( ` =.=.L L ;.-.&.-.( H V <.*.",
"J C q *.z a z h.W.X.X.D.K.h.O.{ <.J | E b z z I q J X.J J %.&.=.n.E V C E | P r V V s.c.d d L S V J %.` L ( ( r s %.7.C ",
"V ( J  .a a z e.h.X.Y E *.z J Y X.} v n K a t V l 0 z &.P L V S J Y | L C z E V w P q.( V Z d w S ~ I P Z ( I E P P ;.C ",
"I / l K z P 8 b y.J z I [ k q q b ] ] z I <.@.z l V E 4.V Z ~ Z 8 V I q./ s V P ~ C.:.s d N i p ` I s N V f E P L L ;.P ",
"s t 0 [ X.=.h q X.E J X.i.[ V z Y z n U C 1.) a K X.V.&.s w S P P N s L ( N S 8 P c.Z d P I S D / l p D S s 8 S E E R ( ",
"z t a | K V ) | Y s Y t.Y b t t V 8 r <.W N S V N <.8.I t t t E &.V d &.E P P 2 V q.V V P H P V N d P N s d d ( E L Z Z ",
"E ( 8 ( X.<.K Y n Y t.Y * z r C K t V <.y.N 4 e E V.E a 8 Z s I V 2 t C V V N % 2 | ;.( =.V V q P V V l 2 t S C J R D D ",
"V J V P I p.*.} n X.K z k K E r.<.V z E @.E 4 e e.Y 8 t C N t s j 8 w | L V ` t 4 H ;.r &.%.J J 8.S t V 2 8 P R J E ;.V ",
"N d & ; K } Y  .Y Y  .*.z s J C l z n | z V s t  .z t Z t l 8 l V C C C N V 8 d S s H w I E P z J P Z P V & J &.l A ( E ",
"2 V w N | X.z x R W h.D.*.( t 2 ( I ; z * w V s N L P N Z V E ( E V * l N S 1 s S t 8 V E J V V r S t e t q V E 8 e S l ",
"Z P s L f.| K T R l e. .| R 8 8 N ;.t R z q &.P R q - E l z B.<.X.P t %.N p 8 8 d s * t E z z q s ( 8 @ w S s D s e ( h ",
"W E I | ..r.b l V C  .{ C V q J q V t E T Y <.<.z k z E s H *.| I J 8 | S t & V ( P l 0 J v z b J P V h P S ~ R l Z t 4 ",
"V *.| | X.p.[ s w p 8 a P C q z a P I K { Y *.R X.[ } &.w t z | Y %.C *.( P V I ;.Z E J Y X.z q C q s ` t s P | 4 ` Z 6 ",
"q E p.| r.X.[ P &.p s t q C Z J H N ;.Y V J T l E X.} V q r l E K V C V 9.;.l P ( ( I ( | %.r.z 0 0 s C & ; l I l P d s ",
"q q &.7.X.#.| %.c.S p ( 8 S d 2 s d A l s Y R C J K E E s s P ( J J P V J V V s E z I  .q 0 l f.E q J N 8 P D Z j C P t ",
"d q s ( P z H ( q.J P ` 2 d P 4 p ~ d t t V P C t 2 8 J L V ` / C 8 t I P t P R a 4 J V 8 2 o E &.P J l z V p 8 q &.( 4 ",
"V Z P P ~ S w L %.s L N N Z P w 6 d s w ( V I t 1 w t I L r >.-.P t N V q ( <.I J z Y K b z U l t ( g q C Z S E z a t & ",
"E ` ^ ` S P K I L S N 8 w 8 t S p Z w w w t s Z d d 2 i t t ` 9.C P E J P E J a V l | T n a @.J q J C e p 8 q C N t V 2 ",
"V t V P ^ V *.E t S P S P V S S ~ Z 1 s 4 q w p p < @ w 3 d d E * E ) e s L R 0 p 2 L J z Y | n.R C R e 4 8 8 I S N V N ",
"S p E t d V P L V d t t -.S P d E q & S E Z w < 1 1 < i p H * q 8 ;.Z 2 0 q V J S 2 P R 4 b z C R J ) e N 8 l J R N P ( ",
"1 i V r d P z s P V d E E V ( V 8 8 2 P P N 1 1 y 3 w Z S V s z Z r.J 0 , > ; N t 8 q j z | <.E a j K z C V s 8 P l l R ",
"Z V d d -.P z a s  .E E l s q L S r r S t t 8 p Z r V 8 d N l ; t K a 0 l = 0 V / l z q I Y  .V & a s j N t q s 2 z K J ",
"d ` L S L C H 0 V ( C a N C 8 K ( a V J L 8 r Z t Z V * L P L ( K z b z s e P R ) J q J R z x e 8 %.N * q V 8 P P K [ n ",
"s c.I q w V z 0 l s.E V -.E q C J 8 z | E t w w 2 8 w & P S D &.Z C Y { J * E E P l 8 C R 8 N g R R <.R C t & % J I j z ",
"V / l 8 8 H b J a 7.*.| V ( 3.R s % V E | P d 6 e % 2 p %.t t P e N E l  .U @.C C e e C J 8 4 & e B R u.E * 2 & z I C K ",
"S P J w Z s b Y v @.h.f.J L E ` I s %.E J ` t & N N 8 P &.N h N 2 j t O U  .W l N % e B 1 & t V T a q U l & q N Z V / l ",
"&.P z ; l  .n v z n n &.S t Z ' ;.E E K t P V 8 q 8 s C J 4 N J l z j O 8 U C l C q C C 1 t V | *.V t l 0 4 t t t e h P ",
"8 J E s 8 J ] n b [ O.W / t 2 ` R E P  .j P b z = % Z S t 8 s s l J s * x z W  .8.E N C N ( d s ( ;.N q z z 4 q q q P J ",
"8 C *.;.f.f.r.i.r.} @.J z 8 6 D <.n.8.@.C V 8 z 8 & 4 w ( C P J | E z q X.z C W J R Z d d t & 2 V n.0.q z q 8 % 8 ;.-.P ",
"j 8 J E 7.E  .#.[ [ v : q w 1 6 ( f. .K E V C E b l & & J l s l R z z @.| ( C W W N l N N t h e C ( S t V E s r J ( C z ",
"E N b P V * s [ v K s s s D t N C D.y.} J J Z / J 0   V y.z V l t j j b J N D t R g t V ( / / g -.E P Z 8 S p 8 q V I S ",
"*.E V R V 8 z #.X.f.p.&.E Z.I I s ;.&.*.l 8 . p P w l f.&.0 V l 0 j s q z N t Z N t C *.R C B h ( E ( V 2 V w & 2 P ( q ",
";.&.P P S C E b b | I v S Z.V V d Z s N t g 0 s I x J | N 2 t V 8 l b J | E 8 g N V z 2 C U U C P S t V N N i 1 t ;.( N ",
"n l z z t d t V C N * C d / p R I V 8 V D l q X.x {  .V 8 8 V s 4 2 8 L E &.e t S N N 4 d E @.q J P d S S t L w w d S D ",
"I E x.%.( u P K I s r ( t Q Z S E z ; 8 s ; 8 Y U n z t t z t % O 1 w V *.) t &.V 2 2 C e R U j s J t r 8 % w H S w + w ",
"S b.( P ` p d t b a J &.s d t q s D t e q s 4 P b a 4 e E <.I e 1 h h ) &.C l S p 2 2 P R E z N J  .E P P 7 O s N e 6 t ",
"8 P d V ~ ( E J a U } V V l C V 8 r r 4 2 0 e J z t 1 1 3.) x P V t Z E E G ) t 1 8 4 t J a J g K a t e ( V l t q q 8 2 ",
"N %.s w V J  .V * J | J | z C J P s r s q a l W { z $ O ( s l 8 V w t t t t h p p 6 t 8 t q K q z 8 & N J Z | I t s & 2 ",
"Z / s 8 J [ [ l l l J z | E s E W 8 1 t J E t C K q * j J s 4 1 t P N s t 4 4 t 4 D e 8 t E U C V t t p ) w.;.C E E 2 C ",
"V 8 V S P *.Y E S L / a  .<.I P C 8 t s a U k ; * w s b 8 t 1 1 i i N t * & 5 # X Z 8 z V E J 8 z C I ) F.n.z V E C t C ",
"s 8 h N P | z x E E P J n K Y V * 8 q q q c [ a V ~ 4 b t 8   @ 1 3 d t q 8 ! 5 4 t 4 C E W Y 9 z C E E N h t t x s P P ",
"r 1 Z Z E f.Y q z K H q n c z q a z E b z | R X. .d & 4 w @ X . 2 q L t Z | g e 8 l t E 4.T  .R W 0 z z V C N t l q V ;.",
"N A _ &.*.<.V s J I K z n [ b t l z l s q J G x 8 % 0 0 ; O +   1 v Y N D x l 9 & g z F l.i.X.R g 4 ;.K a l 8 N b z z Y ",
"z K z z a N b 0 8 l [ [ X.X.<.l t N z 8 a s E Y x l a z b & w + u V J ( V l 8 z 8 9 U o.U @.k.{ J 4 l E t 0 8 8 j j U T ",
"( K & a ; : z l C N J I [ a R J 0 s t t C U *.M { z J [ K N P q 2 @ 2 K z t x C C U U Y q T O.n x Z 4 z J b q x b a T x ",
"&.E E Y j 0 k z e e R X.X.| v z a H j 0 l x k k E E J Y 0 N K Y * & s b Y x m z U C z E b Y $.k K C b T Y [ > C l q [ q ",
"J n.V.;.Y { M T F t j Y X.[ ] k v K E J &.E , q l <.b J z C Y E ; z E K X.M j & q 9 g 8.b U i.b b l z b Y } M a q a } Y ",
"J &.S.f.i.X.b x G z K @.i.[ [ M J I Y z l C z J z R J K b Y E | b q  .| &.z l & q l z i.{ T { a Y x = l n <.T Y { #.K Y ",
"<.E <.u.+.Y e.C N ;.8.W  .[ M [ ;.C q b z j V | Y Z R ,.n @. .K I q J E P K n 0 l U { @.k.o.m { Y > 8 E U E  .x [ f. .J "
};
