/* XPM */
static char *eab69f7ac8074c248a5ff390facf760aCptZUS4zeCQshgYa[] = {
/* columns rows colors chars-per-pixel */
"28 60 230 2 ",
"   c None",
".  c #1D0F0E",
"X  c #1D1A0D",
"o  c #111011",
"O  c #131112",
"+  c #161510",
"@  c gray8",
"#  c gray9",
"$  c #1C1C1D",
"%  c gray12",
"&  c #2F0A0A",
"*  c #2B0C0C",
"=  c #3C0101",
"-  c #3A0606",
";  c #3E0406",
":  c #330809",
">  c #3B0809",
",  c #201D0A",
"<  c #2D1918",
"1  c #281F1D",
"2  c #381614",
"3  c #301917",
"4  c #301C1A",
"5  c #311F1F",
"6  c #112711",
"7  c #182219",
"8  c #153715",
"9  c #153B17",
"0  c #1D361D",
"q  c #282405",
"w  c #25220A",
"e  c #2C260F",
"r  c #2D2809",
"t  c #342D02",
"y  c #393201",
"u  c #383103",
"i  c #393202",
"p  c #3B350F",
"a  c #3C360F",
"s  c #282511",
"d  c #24211F",
"f  c #26261F",
"g  c #282619",
"h  c #2B291B",
"j  c #2D2918",
"k  c #202020",
"l  c gray13",
"z  c #222222",
"x  c #232323",
"c  c gray14",
"v  c #242525",
"b  c #252525",
"n  c gray15",
"m  c #272727",
"M  c #282625",
"N  c #282E27",
"B  c #282828",
"V  c gray16",
"C  c #2A2A2A",
"Z  c #2B2B2A",
"A  c #2A2A2B",
"S  c #2C2B2B",
"D  c #292E2A",
"F  c #2C2C2C",
"G  c #2D2D2D",
"H  c #2F2F2F",
"J  c #322F20",
"K  c #362B29",
"L  c #3E2A2A",
"P  c #203720",
"I  c #203B20",
"U  c #283328",
"Y  c #2A302A",
"T  c #2F372F",
"R  c #2B392A",
"E  c #323127",
"W  c #393621",
"Q  c #39312F",
"!  c #30392F",
"~  c #2F2F30",
"^  c gray19",
"/  c #313130",
"(  c #313131",
")  c #323131",
"_  c #333131",
"`  c #323231",
"'  c #323132",
"]  c #323232",
"[  c #333232",
"{  c gray20",
"}  c #323431",
"|  c #343432",
" . c #343433",
".. c #343334",
"X. c #343434",
"o. c #343435",
"O. c #353435",
"+. c #353535",
"@. c #373434",
"#. c #363635",
"$. c #363537",
"%. c gray21",
"&. c #363736",
"*. c #373736",
"=. c #373637",
"-. c #373737",
";. c #383530",
":. c #3D3635",
">. c #333833",
",. c #393936",
"<. c #383738",
"1. c gray22",
"2. c #393939",
"3. c #393A3A",
"4. c #3A3A3A",
"5. c gray23",
"6. c #3C3A39",
"7. c #393C39",
"8. c #3B3C3B",
"9. c #3B3B3C",
"0. c #3B3C3C",
"q. c #3C3C3C",
"w. c gray24",
"e. c #3E3D3D",
"r. c #3E3E3D",
"t. c #3D3C3F",
"y. c #3E3E3E",
"u. c #3F3E3E",
"i. c #3F3E3F",
"p. c #3E3F3F",
"a. c #3F3F3F",
"s. c #400001",
"d. c #440102",
"f. c #470002",
"g. c #470D0E",
"h. c #5A0101",
"j. c #580102",
"k. c #580202",
"l. c #5D0102",
"z. c #5E0202",
"x. c #5B0304",
"c. c #411111",
"v. c #610101",
"b. c #630102",
"n. c #640103",
"m. c #413701",
"M. c #463B02",
"N. c #483E07",
"B. c #0B420A",
"V. c #095309",
"C. c #1A4318",
"Z. c #1F431F",
"A. c #155415",
"S. c #125E11",
"D. c #0E7F0D",
"F. c #1B721D",
"G. c #274028",
"H. c #3B473B",
"J. c #3E403E",
"K. c #2E6C30",
"L. c #306A30",
"P. c #4B4002",
"I. c #4E4202",
"U. c #4F4401",
"Y. c #504203",
"T. c #524401",
"R. c #544702",
"E. c #554802",
"W. c #41413E",
"Q. c #41413F",
"!. c #3D4040",
"~. c gray25",
"^. c #414140",
"/. c #414141",
"(. c #424040",
"). c gray26",
"_. c #424243",
"`. c #434343",
"'. c #444444",
"]. c gray27",
"[. c #464646",
"{. c gray28",
"}. c #484848",
"|. c #484849",
" X c #494949",
".X c gray29",
"XX c #4B4B4B",
"oX c #4C4C4C",
"OX c gray30",
"+X c #4E4E4E",
"@X c gray31",
"#X c #505050",
"$X c #515151",
"%X c gray32",
"&X c #535353",
"*X c gray33",
"=X c #555555",
"-X c #565656",
";X c #747474",
":X c #1EAA1F",
">X c #1CAC1C",
",X c #1DB11B",
"<X c #3D893E",
"1X c #3B963B",
"2X c #2DAA2B",
"3X c #73B275",
"4X c #52CD51",
"5X c #54D854",
"6X c #60DC5E",
"7X c #68C667",
"8X c #70D270",
"9X c #979797",
"0X c #9A9A9A",
"qX c #9B9B9B",
"wX c #A4A4A4",
"eX c #A5A5A5",
"rX c gray66",
"tX c #B9B9B9",
"yX c #A0E6A0",
"uX c #A9E8A5",
"iX c #B7ECB5",
"pX c #BEEFBF",
"aX c #C0C0C0",
"sX c #C1C1C1",
"dX c gray77",
"fX c #C6C6C6",
"gX c gray78",
"hX c #CACACA",
"jX c #CBCBCB",
"kX c gray80",
/* pixels */
"                                                        ",
"                                                        ",
"                                                        ",
"                  *X%.] B c c B G a.                    ",
"                  OX1.1.] c B ~ %.a.OX                  ",
"        #X#X#X#X^.XXa.1.$ O O x a.1.'.'.#X#XOX          ",
"          #XXXXXa.XX8.d * > : . B 1.^.a.XXOX*X          ",
"            1.] G XX .2 x.b.h.- 1 %.^.B ] 1.            ",
"              c B XX%.g.b.n.z.f.< %.^.$ B               ",
"                B XX6.c.h.z.h.= 5 1.^.x                 ",
"                G XXa.L ; f.s.& :.1.^.c                 ",
"                ] XXa.^.K 3 4 Q Q.1.^.                  ",
"                  XX1.0.%.] ] %.1.1.XX                  ",
"        OXXXXXXX^.XXa.a.c @ # B a.1.'.^.OXXXXX          ",
"          *X#XOX^.XXa.M X w , + G a.'.^.#X#X*X          ",
"            1.%.] XX%.j N.I.M.r f <.^.G %.1.            ",
"              c B XX .a R.E.U.y g %.^.x B               ",
"              c c XX,.p I.T.P.t h 1.^.x                 ",
"                G XXa.W y m.y q ;.9.^.c                 ",
"                G XXa.Q.J e s E ^.1.^.c                 ",
"                  XXa.a.<.] ] %.a.1.XX                  ",
"          '.    ^.XXa.J.R 0 P ! a.1.'.a.    '.          ",
"          *X#X*X^.XXa.N 8 A.B.6 } 1.'.'.*X#X*X          ",
"            a.a.%.XX] I 3X8X2XS.7 %.^.] a.^.            ",
"              B B XXD <XpXiX6X:X9 ] ^.c G               ",
"              x c XXT 1XuXyX5X>XC.%.^.$                 ",
"                G XX8.K.7X4X,XD.G.1.^.c                 ",
"                G XXa.H.L.F.V.Z.!.9.^.c                 ",
"                  XXa.a.>.Y Y %.a.1.XX                  ",
"                  #X1.] %.S  ...] ^.#X                  ",
"                        rX;XeX0X                        ",
"                        sX9XtX                          ",
"                        kXeXgX                          ",
"                        jXeXgX                          ",
"                        jXeXgX                          ",
"                        jXeXgX                          ",
"                        jXeXgX                          ",
"                        jXeXgX                          ",
"                        jXeXgX                          ",
"                        jXeXgX                          ",
"                        jXeXgX                          ",
"                        jXeXgX                          ",
"                        jXeXgX                          ",
"                        jXeXgX                          ",
"                        jXeXgX                          ",
"                        jXeXgX                          ",
"                        jXeXgX                          ",
"                        jXeXgX                          ",
"                        jXeXgX                          ",
"                        jXeXgX                          ",
"                        jXeXgX                          ",
"                        jXeXgX                          ",
"                        jXeXgX                          ",
"                        jXeXgX                          ",
"                        jXeXgX                          ",
"                        jXeXgX                          ",
"                        jXeXgX                          ",
"                        jXeXgX                          ",
"                        gX0XsX                          ",
"                          0XgX                          "
};
