/* XPM */
static char *s68aQY4wsF95tDm_png[] = {
/* columns rows colors chars-per-pixel */
"60 60 238 2 ",
"   c None",
".  c #323C34",
"X  c #33433C",
"o  c #343643",
"O  c #343945",
"+  c #353C4C",
"@  c #3B3D4C",
"#  c #373947",
"$  c #343D53",
"%  c #3A3E54",
"&  c #393D59",
"*  c #2D3850",
"=  c #413E4E",
"-  c #3C424E",
";  c #36404C",
":  c #3C4354",
">  c #3D445A",
",  c #3B4558",
"<  c #3D4561",
"1  c #41434D",
"2  c #494A4A",
"3  c #53534C",
"4  c #414453",
"5  c #444954",
"6  c #4C4D54",
"7  c #42455C",
"8  c #43495A",
"9  c #4C4E5B",
"0  c #49455C",
"q  c #514E56",
"w  c #53525B",
"e  c #545554",
"r  c #4D5354",
"t  c #5C6258",
"y  c #6D6C5C",
"u  c #444863",
"i  c #5C5E6A",
"p  c #565866",
"a  c #595B76",
"s  c #4F586E",
"d  c #615D68",
"f  c #5E626D",
"g  c #5B6364",
"h  c #5F6275",
"j  c #66676A",
"k  c #6D7268",
"l  c #72736C",
"z  c #747668",
"x  c #666977",
"c  c #6E7273",
"v  c #6D7779",
"b  c #727373",
"n  c #747B7D",
"m  c #7B7C79",
"M  c #757776",
"N  c #716F6B",
"B  c #817E79",
"V  c #7A827A",
"C  c #83837A",
"Z  c #696D83",
"A  c #6E7585",
"S  c #7A7D85",
"D  c #73758D",
"F  c #797C8A",
"G  c #757A85",
"H  c #777B94",
"J  c #6E728F",
"K  c #817D80",
"L  c #7C8484",
"P  c #7A8385",
"I  c #7B829C",
"U  c #7F8BA6",
"Y  c #838C84",
"T  c #8A8D85",
"R  c #848C8B",
"E  c #868689",
"W  c #928D86",
"Q  c #8D948B",
"!  c #879388",
"~  c #92958C",
"^  c #969A8A",
"/  c #828592",
"(  c #868B96",
")  c #8D9393",
"_  c #8D9C92",
"`  c #8A9598",
"'  c #929494",
"]  c #949B94",
"[  c #9B9C94",
"{  c #9B9C9B",
"}  c #959A9A",
"|  c #A19E9D",
" . c #94A297",
".. c #95A39B",
"X. c #9CA39C",
"o. c #9BA79A",
"O. c #92A191",
"+. c #A2A39D",
"@. c #A7A99B",
"#. c #B0B39C",
"$. c #848DA6",
"%. c #8C91A4",
"&. c #8693AA",
"*. c #959AA6",
"=. c #9B9CA3",
"-. c #959AAB",
";. c #9698AB",
":. c #8E9AB5",
">. c #8C97B3",
",. c #919AB3",
"<. c #959CB7",
"1. c #A29FA4",
"2. c #9CA3A2",
"3. c #9DAAA4",
"4. c #9BA4A8",
"5. c #9CA4BC",
"6. c #9EA8BF",
"7. c #97A1B9",
"8. c #A3A3A3",
"9. c #A2ACA3",
"0. c #AAA9A4",
"q. c #A3A4AB",
"w. c #A5ABAA",
"e. c #AAA9AA",
"r. c #AAB2A4",
"t. c #A6B4AC",
"y. c #ABB3AC",
"u. c #ACB9AC",
"i. c #A6B4A7",
"p. c #B4B6AB",
"a. c #A7AAB9",
"s. c #ADB4B4",
"d. c #AEBAB3",
"f. c #ACB5BB",
"g. c #B5B5B4",
"h. c #B2BBB4",
"j. c #BCBBB2",
"k. c #B4B5BC",
"l. c #B3BCBB",
"z. c #BBBDBB",
"x. c #B9B7B5",
"c. c #B2AEA8",
"v. c #C1BBB6",
"b. c #B4C2B6",
"n. c #BBC1B4",
"m. c #B5C3BA",
"M. c #BBC4BB",
"N. c #BDC9BE",
"B. c #ADC8AF",
"V. c #C4C5BC",
"C. c #C3CABC",
"Z. c #CBCBBC",
"A. c #C4C6B7",
"S. c #DDDDBE",
"D. c #CDCEBC",
"F. c #E2DCBD",
"G. c #E8DABA",
"H. c #E2E1BE",
"J. c #DFE0BE",
"K. c #9DA6C1",
"L. c #9EA9C2",
"P. c #A5AEC5",
"I. c #AAAFC6",
"U. c #A5AFC8",
"Y. c #A7B0C6",
"T. c #AAB1C5",
"R. c #AAB1C8",
"E. c #A7B1C9",
"W. c #BBBDC3",
"Q. c #B9BAD1",
"!. c #BBC4C3",
"~. c #BDCBC3",
"^. c #BAC8C7",
"/. c #BCCCD3",
"(. c #C3CCC3",
"). c #CBCBC6",
"_. c #C6C9C8",
"`. c #C4D1C6",
"'. c #CCD1CB",
"]. c #C7D2C9",
"[. c #D3D3C3",
"{. c #DDDCC3",
"}. c #D3D3CC",
"|. c #DCDCCC",
" X c #D9D7C8",
".X c #C7CCD5",
"XX c #D1CFD6",
"oX c #CED3DC",
"OX c #CBD5D3",
"+X c #D4D4D3",
"@X c #DCDDD3",
"#X c #D2D4DC",
"$X c #D5DADB",
"%X c #DCDCDD",
"&X c #D7D8D6",
"*X c #D2CDC4",
"=X c #E4DDC4",
"-X c #E4DDCB",
";X c #EADDCA",
":X c #E7DBC7",
">X c #E2DED4",
",X c #E3DDD8",
"<X c #DEE3C9",
"1X c #DEE1D4",
"2X c #DBE1DA",
"3X c #D5E1D7",
"4X c #E5E1C5",
"5X c #E9E2C5",
"6X c #E4E2CB",
"7X c #EAE3CB",
"8X c #E9EACC",
"9X c #E4E3D4",
"0X c #EAE3D3",
"qX c #EBEAD4",
"wX c #E3E4DB",
"eX c #EBE6DB",
"rX c #ECEBDC",
"tX c #E5E9D9",
"yX c #F2ECDD",
"uX c #F2E7D8",
"iX c #EDF1DD",
"pX c #EEF2D4",
"aX c #F3F2DD",
"sX c #F0EAC9",
"dX c #D5D7E1",
"fX c #D9DDE4",
"gX c #D6DAE5",
"hX c #D6DCEF",
"jX c #E2E3E2",
"kX c #ECECE2",
"lX c #E9E8E5",
"zX c #F2ECE3",
"xX c #F3EFE9",
"cX c #F8EDE3",
"vX c #F2F1E4",
"bX c #F7F3EA",
"nX c #EFF2E2",
"mX c #DFE0E4",
/* pixels */
"                                                                                                                        ",
"                                                                                                                        ",
"                                                          .X                                                            ",
"                                                        Q.D <.                                                          ",
"                                                        / $.D I.                                                        ",
"                                                      R R #Xa.F                                                         ",
"                    i x f f f f d d j j i a a a a Z F R `.9X@X{ D A x g g f x h a h a i j i i i f i v                   ",
"                4 O + - + @ - # @ = @ @ @ % % & u a F z.<X<X6X X;.x 7 @ : @ % % % % % % @ @ @ @ : @ O x                 ",
"              5 4 : , , , , , , 8 7 > u 7 : 7 u a H k.@X6X4X{.8X.X( Z 7 7 7 > 7 > 7 7 7 7 7 7 7 7 : 8 - G               ",
"            p - - : : : : : : : , , > * , , $ a D q.%X9X0XZ.6X-XjXW./ h u & u $ : : > 7 7 % % % : : : - 5               ",
"          i - - , , , > > > > > > > , > 7 > s Z =.+XtX9Xj.3 W ,X@XwXs.D x 7 : 7 : : , 7 7 7 8 8 7 > 8 : - 4             ",
"        x - + : : , , , , , , , $ , + , : % Z ( }.tX XV.l K b q.tX1XjXa.Z s + - - - : % % > 7 : : : 7 : 4 @ 9           ",
"      S 5 - 8 : , , > > > > > > , > , ; u x / _.1X6X[.M X.w.s.x #.9X@X+X=.x p : : , , , > , 7 , : 8 , 8 : 5 @ i         ",
"    =.4 - : : , , , , , , , : : , , : : s / g.wX6X|.C T (.3.^.s.y Z.9XwX&X( f 5 : : , , , : : : : : : - ; , - # x       ",
"  k.9 5 : : , > , , > > > > 7 7 : % > a F e.wX9X9X~ j X.] ! _ o.B z [.1X1X'./ x u < , > 7 > > 8 5 - 8 - 8 7 : 8 @ /     ",
"W.w @ # - 8 + $ : : $ $ % % % % - : s J q.&XeX9X0.N z.M.M._ B.B.V.W C <X|.1XW.H s u & $ , $ $ , ; - - - $ ; : @ @ O =.  ",
"s > u > 7 u > 7 7 8 8 8 % u u u > 9 c ) @X@X%Xz.j n.C.C.C.@.!.XX.X_.Y T 6X4X|.g.D a < > - 5 5 4 0 7 7 7 8 8 4 8 4 = 9 -.",
"@ + @ @ O - @ - - O - @ # % + % , A L '.1XtXC.e Q p.r.p.u.Q 0.y.h.y.9.y ^ {.0X+X-.J s + ; O o @ @ @ @ @ @ @ @ @ 1 = # 1 ",
"l b l b N l l l l l l l N b M c Z F z.kX|.{.^ y z z k z k k z z k z M y z [.6XwXfX( x x v v c b b b b b c c b c N N b N ",
"|.1X|.@X9X@X>X@X|.9X|.|.1X@X+X0.F k.jX9X7X4XF.=X6X|.1XwX|.1X|.6X9X|.|.0X-X-XqX|.@X+X) ) XXmX%X%X,X@X@X1X@X@X1X@XwX@X@XeX",
"yXyXyXyXyXyX0XrXrXyXrXrXkXrXV.C e.xXwX|.=XF.5X5X=X0X9X@XeX1X9X X4X{.0X0X>X-X-X6X6X9XV.M 2.xXwXxXyXrXrXkXrXrXrXrXyXzXyXyX",
"0XyXyXeXeXcXrXbXzXrXbXzXrXxX).).1XtX>X6X7X5XG.G.=X0X-XwXwX+.D.tX=X5X:X-X-XuX-X7X4X4XiX}._.jXbXtXrXvXrXrXnXrXrXiX0XqXyXyX",
"yXcX>Xj.v.p.j.c.j.g.p.x.y.z.g.+XpX6X6X-X;X:X5XG.5X=X9XkX8.2 l @X=X7X:X=XuX:X7X=XH.F.0XqXz.g.r.n.#.j.p.r.p.p.p.p.[.zXyXuX",
"yXeX).C +.E 8.B [ +.V ] ] ' ' 2.pX4X6X-X;X;XG.5XF.6X9Xx.w w 6 ' -X9X:X8X=X7X:X5XH.sXqX Xm +.T O.V [ ] Y Q ~ ~ [ W eXzXzX",
"qXvXj.[ ).+.).] N.`.] M.i.m.h.2.pXJ.4X;X;X;X=X7X=X0X).j w F x 6 8.lX6X=X4X4X:X7X4X5XaX[.Q ].@.C.] z.'.X.h.d.p.V.] eXzXxX",
"rXrXZ.~ n.0.M.] m.~...d.d.m.o.9.8XpX{.=X0X{.7X-XeX}.M 9 ( ;.*.f p x.6X4XH.S.7X-X6X=XrX|.T M.9.m.] l._.2.d.b.i.h.' kXkXzX",
"iXtXA.V X.Y ..V ~.~.! _ Y Q ! ..8XqX{.:X4X6X=X9X,XE p D .Xa._.{ p j C.6X<XS.7X-X0X-XrX Xm X.Y ..R d.`._ _ _ L  .T kXkXzX",
"rXrXA.] (.2.~...m.~._ m.t.d.l.2.aX6X=X4X{.6X9X,X=.4 Z Q.hXa.+X+X/ 9 b [.6X6X X0X-X0XqX XQ ~.3.^.] l.OX..t.b.i.M.~ kXrXvX",
"tXkXA.] OX3..X` .X.X} !.s.l.s.2.yX6X4X4X4X{.rXe.w x ( .XjX8.}.,X;.G 5 Y @X9X|.-X-X0XrX X~ '.4./.2.d.]...d.h.u.M.[ kXtXzX",
"kXkXV.m ' P *.A ` ` n ` R ) L q.yX9X4X6X=XqXj.i p a.4._.%X0.*X>X4.a.G 5 ] @XqX=X-X-XyX Xl } P %.v R 2.P R R Y Q Q tXzXzX",
"rXrXZ.V m v S G G S n S n S m w.yX7X6X6X|.).N w / .Xs.(.|.@.D.>Xw..X5.x 9 y.|.-X7X;XyX XC L A H F F S v P P n M +.wXxXxX",
"eXvXwX+X$X%X#XgX$XoX$X#X&X+X%X%XuX0X6X-X|.m 6 / ` fX9.C.6X@.D.;Xq.oXR.( f q Z.:X;X;XuXuX@X+XgXhXdXgXoXfXoX$X#X&X@XxXlXkX",
"8X7XaXrXrXiXtXrXrXrX0XaXqXyXrXrXkX@XtX@X' w M _.q.%Xe._.eX@.).jXq.#Xk.W.} p x XXwX>XrXrXrXvXrXrXzXzXkXkXkXkXkXkXrXvXrXeX",
"qXaXqXrXtXlXkXkXkXkXrXrXeXeXeXrXrXqX@Xp.2 d 1._.{ k.1.g.(.[ j.).} l.{ g.k.S q E wX-XrXrXkXeX9XkXlXeXkXkXlXkXeXkXkXwXrXeX",
"kX}.+.8.8.q.=.=.=.1.8.| e.q.8.q.[.9X9X[.m } c.| +.e.8.8.+.[ 0.+.{ y.X.+.e.=.K 0.|.0X9Xc.+.8.+.+.+.+.+.+.+.+.+.+.+.c.eXzX",
"zX,X&XXX#XdX.XdX#X#X#XXX#XXX.XdX0X9X6X-X}.@XwX@X@X@XwXwX@XtXeX@XwX1X1X1X@XjX}.,X0X6XqX|.'.+X}.'.+X@X'.}.'.}.}.'.}.@XkXeX",
"kXkX+X) ( / ` P ( ' E ' R ' ) s.rXqX4X{.eX>X>X9X9XtX@XwX@X1X@XjX9X|.<X6X@X9X>X-X6X{.iXrX{ ) Y ' E E ) R L ) Y Q ~ &XkXzX",
"kXkXV.Q l.w.^.) z.M.' h.9.y.2.w.yX7X=X=X-X6X6X6X|.[.C l z k l c k p.6X6X6X-X-X6X4X4XqXtXQ z.s.y.w.X._.t...M...(.Y wXkXxX",
"rXrXn.[ `.o.(.Q N.(.Q M.u.M.i. .aX7XF.5X:X6X4X6X6XZ.2 3 t 3 t e . o.6X{.=X6X6X=XH.4XqXrXQ W.s.l.w.2.OXt. .~.o.].T @XkXvX",
"qXrXA.^ C.o.~._ b.`.Q n.9.h.u. .uX0X5XF.5X:X=X4X4XZ.3 X.C. .l.^.3 ^ 6X4X4X=X4X4X4X4XqXrX' !.s.z.i.w.(.t...~.3.(.~ }.kXkX",
"qXvXC.~ (.o.~._ m.`._ b.u.b.i...yX0X:X5X:X:X4X4X6XZ.2 8.'...!.^.e [ 9X6X=X6X:X8X5X4X8XrXQ !.s.h.i.9.].t.O.m.3.N.Q @XkXkX",
"eXvXA.V 3.L 3.V !.~.Q o.Y _ _ ..yX7X:X5X:X:X4X4X6XZ.3 X.(.} l.!.q { 9X6X-X6X=X4XF.4XqXrXT X.Y ] Q ..`.t.Y o.V o.V +XkXkX",
"rXzXV.~ ~.3.^.` ^.~.] d.9.d.t.3.cX0X4X5X:X4X4X4X6X[.2 m ) c ( R 6 { 9X9X6X7X-X4X=X8XqX9XQ M.9.u.9.9.`.u._ m.o.C.T @XqXeX",
"rXrXV.] (...~._ !.~. .M.t.h.t.X.cX0X4X5X:X:X4X4X-XV.r 4._.} f.^.w { 9X6X-X7X-X7X=X4XqXrX~ _.i.M.t.X.~.t. .`.o.C.Y |.kXzX",
"uXyXV.^ `. .(.! N.(.Q M.i.h.u.X.zX0X=X4X:X-X4X-X9X*Xq =._.2.!.^.w { 9X6X-X6X:X4X7X:X0XkXT _.r.u.y.+.'.h...(.o.(.T @XrXrX",
"qXrXA.~ M.9.`.Q M.(.~ n.r.p.r.o.zX0X4X4X4X6X6X6X9XV.q q.OXX.l.^.q [ 9X6X6X7X-X-X=X7XyXeXT M.h.p.y.+.(.i. .M.9.(.T @XrXeX",
"yXyXZ.T T V ! V L Q V Q C T ~ +.zX9X4X4X:X-X6X-X9X*Xq j M g v v r [ <X4X4X5X:X;X:X7XyXkX[ E V T E V ) Y L Q V T T &XvXbX",
"qX0XrX+X@X2XOX2X3X2X&X@X@X1X}.lXrX-X{.S.=X=X=X{.@X_.2 o . . . X e X.<X{.S.=X=X:X:X-X9XkXwXmX@X@X%X&X2X$X$X$X2X@X@XxXwXeX",
">.,.,.,.,.,.,.,.,.,.,.,.,.,.,.,.:.&.$.$.$.$.$.$.&.I 7 * + + O + $ Z $.U U &.&.U $.&.>.:.:.:.:.:.>.:.<.<.<.<.,.,.,.,.-.f.",
"6.P.6.L.6.6.6.6.6.6.6.6.6.6.6.6.6.7.:.,.<.<.<.<.,.$.u $ + + O O * J 7.7.:.:.>.:.:.<.K.L.L.L.L.L.P.L.L.L.L.P.P.P.a.a.a.a.",
"U.U.U.U.U.U.U.U.U.U.U.U.U.U.U.U.Y.L.5.5.K.K.5.K.L.,.7 + # O O # $ H 5.6.L.L.5.L.5.6.P.E.U.U.E.U.R.U.U.U.U.U.I.I.R.I.a.4.",
"U.I.U.I.Y.I.Y.R.Y.R.Y.R.Y.R.Y.I.R.P.5.5.5.5.5.5.<.,.> + @ # O O $ H 5.7.7.7.7.7.5.6.U.R.Y.U.E.U.P.Y.Y.Y.I.I.I.I.T.a.f.=.",
"I.I.I.I.Y.I.Y.I.I.I.I.I.Y.I.Y.I.Y.P.5.5.5.5.5.5.a.-.8 # # O O O * H a.a.5.6.5.a.5.6.U.R.Y.Y.R.I.T.T.T.T.I.I.I.f.f.f.k.=.",
"-.-.-.-.-.-.-.-.-.-.-.-.-.-.-.-.;.%.%.%.%.%.%.%.%.H 7 o o o o o + x ( %.$.%.%.%.%.%.;.-.;.-.-.-.*.*.*.*.*.*.-.*.*.=.=.) ",
"4 4 4 4 4 4 4 7 7 4 4 4 4 4 4 4 - 4 : 4 : 4 - - 4 4 @ # 1 @ # o O @ 4 4 : 4 4 - - 1 4 4 - 1 4 4 - 1 1 4 4 1 1 1 1 1 1 1 ",
"#X#XoXoX#XdXgXfXfXfXgXdX#XoXoX#X                                                                          fX&X#X#X&X.X$X",
"                                                                                                                        ",
"                                                                                                                        ",
"                                                                                                                        ",
"                                                                                                                        "
};
