/* XPM */
static char *s79a6nK1SNRauDe_png[] = {
/* columns rows colors chars-per-pixel */
"60 60 224 2 ",
"   c #040506",
".  c #0B0B0D",
"X  c #0E0E10",
"o  c #100F13",
"O  c #0F1011",
"+  c #121315",
"@  c #161619",
"#  c #17181B",
"$  c #191A1A",
"%  c #1A1A1E",
"&  c #1E221D",
"*  c #20241F",
"=  c #1D1D21",
"-  c #201E22",
";  c #1F2024",
":  c #1E2D3F",
">  c #222225",
",  c #252529",
"<  c #282A29",
"1  c #2C3527",
"2  c #2F2F32",
"3  c #322F33",
"4  c #393739",
"5  c #62221C",
"6  c #522C2E",
"7  c #543A21",
"8  c #522D30",
"9  c #453434",
"0  c #41393C",
"q  c #593133",
"w  c #7C2725",
"e  c #743130",
"r  c #3C512C",
"t  c #3D6426",
"y  c #475926",
"u  c #4E5233",
"i  c #624728",
"p  c #46692A",
"a  c #4B732B",
"s  c #4B7529",
"d  c #547A2D",
"f  c #4B6834",
"g  c #546939",
"h  c #537735",
"j  c #6B772F",
"k  c #273849",
"l  c #343E4A",
"z  c #433D41",
"x  c #693F41",
"c  c #3D4243",
"v  c #2E4358",
"b  c #33485B",
"n  c #354C62",
"m  c #3C5268",
"M  c #484447",
"N  c #454A4C",
"B  c #52494C",
"V  c #59554A",
"C  c #554D51",
"Z  c #594F53",
"A  c #5D5554",
"S  c #5C5758",
"D  c #704F4F",
"F  c #6A584C",
"G  c #655957",
"H  c #735C58",
"J  c #687A45",
"K  c #767847",
"L  c #6C615D",
"P  c #475A6C",
"I  c #4B5E72",
"U  c #6C5E61",
"Y  c #56646A",
"T  c #516576",
"R  c #556678",
"E  c #5B6D7D",
"W  c #696466",
"Q  c #776769",
"!  c #756D70",
"~  c #67737A",
"^  c #7A7577",
"/  c #85221F",
"(  c #8A2724",
")  c #962724",
"_  c #9D2A25",
"`  c #933A2B",
"'  c #853533",
"]  c #9A3836",
"[  c #963938",
"{  c #A42B27",
"}  c #AC2D29",
"|  c #B22F2C",
" . c #BA2F2C",
".. c #A8342C",
"X. c #B6302D",
"o. c #BC332E",
"O. c #A73B34",
"+. c #BD3532",
"@. c #B33B37",
"#. c #B53D39",
"$. c #C4342F",
"%. c #C8352F",
"&. c #C53530",
"*. c #C83530",
"=. c #C33935",
"-. c #C93E32",
";. c #9B522D",
":. c #87413E",
">. c #AD4536",
",. c #8D6435",
"<. c #A56E36",
"1. c #C54734",
"2. c #894948",
"3. c #8C5453",
"4. c #965B59",
"5. c #BE4642",
"6. c #BF4B47",
"7. c #B75754",
"8. c #97605E",
"9. c #986767",
"0. c #897275",
"q. c #AC7371",
"w. c #C64641",
"e. c #C54A46",
"r. c #C7524E",
"t. c #C65553",
"y. c #C65A56",
"u. c #C75D5A",
"i. c #C95F5D",
"p. c #CF7144",
"a. c #C96A65",
"s. c #D8776C",
"d. c #D17A73",
"f. c #E0786D",
"g. c #E17D73",
"h. c #55832D",
"j. c #58882E",
"k. c #5C8932",
"l. c #5B9130",
"z. c #688A36",
"x. c #629433",
"c. c #689A35",
"v. c #74973E",
"b. c #6AA537",
"n. c #76A83D",
"m. c #7DB33C",
"M. c #6F8846",
"N. c #7BAC44",
"B. c #7F847A",
"V. c #8E8F37",
"C. c #88AD3D",
"Z. c #ABA73F",
"A. c #8B9A45",
"S. c #A3945F",
"D. c #8BAC46",
"F. c #AFB248",
"G. c #CE954D",
"H. c #D5837B",
"J. c #E28076",
"K. c #E4847A",
"L. c #637483",
"P. c #697A89",
"I. c #847E80",
"U. c #768289",
"Y. c #748491",
"T. c #778895",
"R. c #888889",
"E. c #918C8F",
"W. c #84939C",
"Q. c #999799",
"!. c #A78686",
"~. c #B19594",
"^. c #B5A09F",
"/. c #8B9AA3",
"(. c #939EA6",
"). c #AB9FA0",
"_. c #99A6AA",
"`. c #9AA7AC",
"'. c #9DABB2",
"]. c #A7A7A9",
"[. c #A2ADAC",
"{. c #BCABAA",
"}. c #A5AEB0",
"|. c #AAB5B7",
" X c #B2B3B4",
".X c #B0B9B9",
"XX c #B8BBBC",
"oX c #C68A86",
"OX c #CD8F8B",
"+X c #CC908B",
"@X c #C49B9C",
"#X c #E58B83",
"$X c #CEA09D",
"%X c #CBA6A5",
"&X c #D5A8A4",
"*X c #C4B6B6",
"=X c #C6BDBE",
"-X c #CABEBD",
";X c #BDC696",
":X c #BDC1BD",
">X c #C5C389",
",X c #C8C1BB",
"<X c #D0C2B0",
"1X c #B1BDC1",
"2X c #C8BEC0",
"3X c #BCC3C4",
"4X c #C4C5C5",
"5X c #CAC4C4",
"6X c #C5C8C7",
"7X c #CCC7C8",
"8X c #C6CACB",
"9X c #CBCCCC",
"0X c #D4C9C6",
"qX c #D0D0CD",
"wX c #CDD2D2",
"eX c #D1D5D6",
"rX c #D3D7D8",
"tX c #D5DADB",
"yX c #D9DDDD",
"uX c #DAE0E0",
"iX c #DCE2E2",
"pX c #E0E6E6",
"aX c #E4EAEB",
"sX c #E8ECEC",
/* pixels */
"> = = # + = = @ % # % = % % = = = X + @ = = # X . % = = = + # % = + @ = = = = % . @ = = % @ > > > > + @ % % + # = = % > ",
"= % = + + = = + % % = = = = = % % X % = = = = + . = = = = + + % % X % = = = = = + % = = = % > > > > + @ = % % % = = @ + ",
"= = = % @ + + % = = = = = = = = + . @ = = = = + + = = = = + . = % X = = = % = = + = = = = = > > > > + + = = = = = @ % @ ",
"= = = = = + # = = = = = = = = = @ . + = = = = % @ % = = = @ @ = % X = = = @ @ = = = = = = @ % = = % . @ = = = = % . @ = ",
"% # = = @ . % = = = = = = = = = = X # = = = = = = = = = = = % = @ O % = = = @ = = = = = = = = = % % @ + % % = % % . O = ",
"% = % @ + @ % = # @ = = = = = = = X + @ = = = = % = = = = , 2 = = % = = = = = = = = = = = = = = = % # @ = % = = = X X # ",
"# = @ + % = = = = = = = = = = = = + . + = = = = = = = = < C G z > = = = % % = = = = = = = = % = @ O + = > % ; ; = + + @ ",
"@ = # + = = = = = = = % % = = = = # . % @ @ = = = = = 4 S I.E.! B 2 % % @ @ = = @ # = ; ; ; = % % % % > > % % > = = = = ",
"= = = + = = = = % = % ; = = = = % % % = = % = = = > z W Q.6XwXXXR.G 3 % = = = = 3 M B C C C C B M M 3 ; ; % % % = = = = ",
"= = = % % % = + = = = = = = = = % % = = = = = = 2 C ^  XyX7X{.rXwX).W z > % = = B 8.9.4.4.4.4.9.9.4.0 = = = = % = = = = ",
"= = = % = + o . % = = = = = % = = = = = = = ; 4 G E.8XuX{.2.w 9.7XyX X0.C 3 = = D g.#Xg.s.s.s.K.K.s.9 = = = = = = = % = ",
"% = = = = +   . % = = % # = = = = % + % = , M ! ].rXrX!.e / ) / 2.{.yX8XE.U 4 ; D K.K.J.K.#XK.K.K.d.9 = % % = = = = + = ",
"% = = = = + . % = = = % % = = = = % . + 3 C I.XXiX5X9.w ) } X.} ( e !.rXrX].! M H J.g.g.J.#Xg.g.g.s.9 = = @ % = ; > @ % ",
"+ # % = = @ + = % = = = = = = = = % % 4 U Q.wXyX{.:./ { o.&.&.&. .) w 4.5XiX3XR.Q q.#Xg.g.g.g.#XK.s.9 = # + % = = > % + ",
"% % = = = % = = = @ = = % # @ = = , M ^  XyXeXq.w ) | +.=.=.=.=.=.+...( :.^.yXwXQ.Q q.d.g.J.g.#XK.d.9 = = = = = = > > % ",
"= = = = # = = = = % = = @ = @ = 3 S E.6XiX*X3.w ] oX&X&X&X&X&X&X&X&X$X7.) w q.eXyX X0.8.d.#Xf.s.f.s.9 = = = = ; > > > = ",
"% = % = X # = = = % = = = % = z W ].rXyX~.e / } 5.0X1X'.`.|.3X_._._.wXa. .{ ( 3.*XiX8XE.Q q.J.K.K.d.9 % + + - > > , > = ",
"% = % = O # = = = + % = = 2 B 0.XXiX7X9.w ) | $.w.0XW.L.R Y.(.T I I 3Xa.$.o.} ) ' ~.tXrX].! 8.H.g.s.9 = # + = = % % @ X ",
"% = = = + = = = = = @ ; 4 G Q.wXiX{.2.( { o.&.$.w.0XW.E R Y.(.I P I 3Xa.$.&.&.X._ ( 9.7XiX3XI.9.d.d.9 ; = @ = = = = = # ",
"% = = # + = = = = # > M !  XyXrX!.' ) } $.&.%.%.w.0XW.E T Y.(.I P I 3Xa.$.&.&.&.o.} ( 2.{.iXwXQ.Q 4.9 > % # = = % % = % ",
"= = = % % = = @ = 3 Z R.6XiX5X8.( _ X.&.&.&.&.%.w.0X.X_.(.}.1X/.W./.9Xa.$.&.&.&.&.$.X.) ' !.rXyX X^ M , @ # = = + % % % ",
"= # = = = = % # 4 W ].rXuX^.:.( } o.&.&.&.&.&.%.w.0XT.T I Y./.P P I :Xa.$.&.&.&.&.&.&.o.{ ( 4.,XiX8XE.B > % = = + % = = ",
"% X % = = = < M ^ XXiXqXq.( ) X.$.&.&.&.&.&.&.%.w.-XP.b v R Y.l k v .Xa.$.&.&.&.&.*.*.&.$.| ) :.^.yXrX].W 4 > = = = = = ",
"@ X X # = 3 G Q.9XiX*X3.( { o.&.&.&.&.&.&.&.&.$.w.-X~ k k I P.k : k  Xa.$.&.&.&.&.&.&.&.&.&.o.{ ` q.qXiXXX0.M < = = = # ",
"% = + # z ! }.yXyX~.' ) } o.&.&.&.&.&.&.&.&.&.$.w.,XW.Y Y U.W.Y Y Y :Xa.$.&.&.&.&.&.&.&.&.&.&.o.} ) 3.*XiXwXQ.S 3 = % + ",
"% = 3 C R.6XiX7X9.( { X.$.&.&.&.&.&.&.&.&.&.&.%.1.%X5X,X,X,X,X,X,X,X-Xu.$.&.&.&.&.&.&.&.&.&.&.&.$.X.{ [ ~.tXyX X! z , = ",
"> 0 U Q.eXiX{.2.( } o.$.&.&.&.&.&.&.&.&.&.&.&.&.&.w.6.6.6.6.6.6.6.6.6.=.&.&.&.&.&.&.&.&.&.&.&.&.&.$.o.} ) q.qXiX6XR.C 3 ",
"4 ^  XyXiXXX2.) | o.&.&.&.&.&.&.&.&.&.&.&.&.&.&.&.$.$.$.$.$.$.$.$.$.$.&.&.&.&.&.&.&.&.&.&.&.&.&.&.$.&.o.| _ !.wXiXrX].W ",
"< Q.iXyX.XE.>.o.&.&.&.&.&.&.&.&.&.&.&.&.&.&.&.&.&.&.&.&.&.&.&.&.&.&.&.&.&.&.&.&.&.&.&.&.&.&.&.&.&.&.&.%.&.+.9.(.6XiXrXW ",
"% l R.^ S M O.$.&.&.$.$.$.$.$.$.$.$.$.$.$.$.$.$.$.$.$.$.$.$.$.$.$.$.$.$.$.$.$.$.$.$.$.$.&.&.$.$.$.$.$.&.&.=.x N W R.^ + ",
"= % = = = - ] &.&.&.&.&.%.&.=.=.=.=.=.=.=.=.=.=.=.=.=.=.=.&.&.&.&.&.&.%.$.$.$.$.$.$.$.$.$.$.$.$.&.&.&.$.&.=.6 # % = % . ",
"% = = = = , O.%.&.&.&.&.%.r.%X%X%X%X%X%X@X@X@X@X@X@X@X@X@Xe.%.&.&.&.%.w.H.+XOXOXOXOXOXOXOXOXoXw.%.&.&.&.&.=.8 = = = = + ",
"+ = = @ % , ] &.$.$.$.$.$.i.4X X X X X X X X X X X X X}.=Xt.$.$.$.$.$.r.0X}._._.'.3X[._._.[.qXy.$.$.$.$.$.+.6 # @ = = % ",
"% ; % X = < O.%.%.%.$.%.$.i.5XwXrXeXeXwXyXyXeXeXeXrXiX9X=Xt.$.%.%.%.$.r.5XP.R E L.`.P.E E L.5Xy.$.%.%.$.$.=.6 % @ = = % ",
"= > = X = < ] &.&.&.&.&.$.i.5XrXrXyXyXyXiXiXrXyXyXyXpXwX=Xt.$.&.&.&.$.r.5XP.T R L.`.L.R R E 5Xy.$.&.&.&.&.=.6 = = = = % ",
"= = = X @ - ] &.&.&.&.&.$.i.5XrXiXaXsXaXpXiXpXaXaXaXpXwX=Xt.$.&.&.&.$.r.5XL.T R L.`.L.R T E 5Xy.$.&.&.&.&.+.8 = = = = % ",
"= % = % = , ] &.%.%.%.%.$.i.5XrXiXsXsXsXaXiXpXsXsXaXaXwX=Xt.$.%.$.$.$.r.qX'.(._.`.3X'._._.`.qXy.$.%.%.%.$.=.8 = = = = # ",
"# + % # = - ] *.&.&.&.&.$.i.7XtXiXpXpXpXpXpXiXpXpXpXaXwX=Xt.$.&.&.&.$.r.7XP.R E L.'.P.E R L.7Xy.$.&.&.&.%.=.6 = = = # . ",
"@ + % % = % [ *.&.&.&.&.$.i.7XyXaXaXpXpXaXaXaXaXaXaXaXwX=Xt.$.&.&.&.$.r.5XT m m I (.I m m I 5Xy.$.&.&.&.&.=.6 = = # + X ",
"= % # % = > [ *.&.&.&.&.$.i.7XrXyXeXeXeXiXiXrXeXeXrXpXwX=Xt.$.&.&.&.$.r.=XI b n P /.P n b P ,Xy.$.&.&.&.%.=.8 = = = = = ",
"% = = = = > [ *.&.&.&.&.$.i.7XrXyXiXiXiXiXiXyXiXiXiXpXwX=Xt.$.*.&.&.%.r.5XY.L.P.P.'.Y.P.L.Y.5Xy.%.&.&.&.&.=.q = = = = = ",
"# # % = = > [ *.&.&.&.&.$.i.7XwXyXiXiXiXiXyXiXiXiXiXiX9X=Xt.$.&.&.&.$.r.,XS.W Y ^ _.P.B.~ ~ 5Xy.%.&.&.&.&.=.q = = = = = ",
". + % = = > [ *.&.&.&.&.$.i.7XwXrXiXiXiXiXrXyXiXiXyX<X,X=Xt.$.&.&.&.&.p.>XF.V.z.A.S.M.A.M.g ;XG.1.%.&.&.%.=.q % = = = = ",
"# = = % % > [ *.&.&.&.%.$.i.7X9XrXyXyXyXyXrXrXyXyXyX<X,X2Xt.$.&.%.&.-.G.D.F.F.n.n.F.C.b.n.F.F.F.1.$.&.&.%.=.q = = @ = = ",
"= = % . @ > [ *.&.&.&.&.$.i.7X9XrXtXtXyXyXrXrXyXtXyX5X:X2Xt.$.&.%.&.1.V.z.V.V.j.j.k.h.z.Z.V.v.F.>.&.&.&.&.=.q = = @ % = ",
"% % % . % , [ *.&.&.&.&.$.i.7X9XrXyXyXyXtXrXyXyXyXyXrX6X=Xt.$.&.&.%.1.G.j t t p y y y d V.j a ,.=.&.&.&.&.=.q = = = = = ",
". % = + + = [ *.%.%.%.%.$.i.7X9XwX8X8X8XrXrX9X8X8X9XrX8X=Xt.$.%.%.%.=.;.y y y 7 7 7 7 7 i i i ` $.%.%.%.%.=.q = = = % + ",
"  # = = % = [ *.%.%.%.%.$.i.7X9XrXrXrXrXtXrXrXrXrXrXrX8X=Xt.$.&.%.&.$.( 5 5 5 5 5 5 5 5 5 5 5 ) o.&.&.&.&.=.q = % + O X ",
"  . # = = > [ *.&.&.&.&.$.i.7X9XrXrXrXrXyXrXrXrXrXyXrX6X2Xt.$.&.&.&.$.| { { _ _ _ _ _ _ _ { { | +.&.$.$.$.=.q # . . # % ",
"  + % = = > [ *.&.%.%.&.$.i.7X9XrXrXrXrXyXrXrXrXrXyXrX6X2Xt.$.&.%.&.&.&.&.+.o.o.+.o.o.o.o.o.o.o.o.X.| |  .+.q +   @ = = ",
". @ % = = > [ *.%.%.%.%.$.i.7X9XrXrXrXrXtXrXrXrXrXyXrX6X2Xt.$.%.%.&.&.&.&.&.&.&.&.&.&.&.&.&.o.X.} >.<.<.<.<.F # X = = = ",
"% = = = = > [ *.&.&.&.&.$.i.7X8XwXrXrXrXrXwXrXrXrXtXrX6X2Xt.$.&.&.%.&.&.&.&.&.&.&.&.&.&.o.o.| ..<.D.m.D.m.m.N.J > = = = ",
"= % @ = @ = [ %.%.%.%.%.$.i.7X8XrXrXrXrXrXrXrXrXrXrXrX6X=Xt.$.%.%.%.%.%.%.%.&.%.$.$.o.o.X.} ` V.C.b.c.b.b.b.l.D.M.2 = = ",
"= % + = < 4 :.O.@.#.#.#.@.7.7X8XrXrXrXrXrXrXrXrXrXrXrX6X5X7.@.#.#.#.#.#.#.#.@.@.O.O.O.O.] ` j d h.x.b.x.j.c.c.b.n.J > = ",
"= % < J D.N.A.K F H H H F ! |..X.X.X.X.X.X.X.X.X.X.X.X|.|.! F H H H H H H H F F K A.v.v.J g d s k.c.c.j.l.x.l.h.c.N.4 = ",
"% , M.n.b.b.b.N.M.A G G A R._.[.[.[.[.[.[.[.[.[.[.[.[.[._.R.A G L L L L L G G K m.b.b.l.h.h a d d h.l.k.k.x.l.h.s k.g % ",
"@ u k.j.x.c.c.c.v.V A V W _.[.[.[.[.[.[.[.[.[.[.[.[.[.[.[._.W V G L L L L G V v.x.l.x.h.d a a a a d p s s s a p p d f # ",
"% g s h.h.j.j.h.c.u M u U.[.[.[.[.[.[.[.[.[.[.[.[.[.[.[.[.[.R.B C A A A A B V k.s j.s s s p t p p p p p p d d p a k.1 # ",
"% r f p h a f f y > = - 2 c N N N M c M 4 c N N N N N N N N c < , , = % > > < u f f h h f h f f f r p p f g f r r r % > ",
". + & 1 1 < < > + + % % . . + % % + X #       @ % % % % % @ % = = % @ X # % % % + % < < , < , < * & $ > $ * > > @ % # = "
};
