/* XPM */
static char *s63aETwYDevtvso_png[] = {
/* columns rows colors chars-per-pixel */
"60 60 214 2 ",
"   c None",
".  c #7A1A1B",
"X  c #791718",
"o  c #57371D",
"O  c #5A3A21",
"+  c #773520",
"@  c #3E4F1C",
"#  c #33631A",
"$  c #36691B",
"%  c #376A1A",
"&  c #3C731C",
"*  c #3C7A17",
"=  c #2C621A",
"-  c #396823",
";  c #3F7223",
":  c #494D1B",
">  c #427C1C",
",  c #5E751C",
"<  c #45641E",
"1  c #427424",
"2  c #467A22",
"3  c #586B37",
"4  c #5D7C31",
"5  c #626721",
"6  c #5C502A",
"7  c #1B3346",
"8  c #223C52",
"9  c #31495B",
"0  c #2F4B62",
"q  c #3A556A",
"w  c #3F5A70",
"e  c #5C554C",
"r  c #5D5955",
"t  c #645A55",
"y  c #675758",
"u  c #735E59",
"i  c #705D57",
"p  c #5A6851",
"a  c #656945",
"s  c #6E615D",
"d  c #61635F",
"f  c #6F6B50",
"g  c #425C72",
"h  c #6C5D62",
"j  c #4C6374",
"k  c #546B7D",
"l  c #566A78",
"z  c #52676D",
"x  c #6E6165",
"c  c #756A6D",
"v  c #72666A",
"b  c #7B6F73",
"n  c #7D7678",
"m  c #8B171B",
"M  c #99151A",
"N  c #AD171C",
"B  c #A3171C",
"V  c #B6181E",
"C  c #971E22",
"Z  c #8A1D21",
"A  c #BD1B21",
"S  c #AD1C21",
"D  c #892629",
"F  c #93262A",
"G  c #8D3639",
"H  c #963538",
"J  c #953726",
"K  c #A42728",
"L  c #BE2023",
"P  c #B93326",
"I  c #B92D30",
"U  c #BE3133",
"Y  c #AA3630",
"T  c #C31C22",
"R  c #CB1E23",
"E  c #D51E25",
"W  c #D91E24",
"Q  c #C82528",
"!  c #D72026",
"~  c #D92026",
"^  c #D6242A",
"/  c #D8242A",
"(  c #D6282E",
")  c #D8292E",
"_  c #DA2825",
"`  c #CF312D",
"'  c #9E441F",
"]  c #AE4020",
"[  c #D25124",
"{  c #C55626",
"}  c #D73B41",
"|  c #964649",
" . c #9A5858",
".. c #A25958",
"X. c #B45153",
"o. c #915E60",
"O. c #986465",
"+. c #86797C",
"@. c #896B6E",
"#. c #AC6B6C",
"$. c #A46F70",
"%. c #AA787A",
"&. c #BC6966",
"*. c #D9474D",
"=. c #D9494E",
"-. c #D5474C",
";. c #D84D52",
":. c #D55256",
">. c #D6595C",
",. c #C65557",
"<. c #DC7172",
"1. c #D97E7E",
"2. c #D47E7D",
"3. c #CD6D6A",
"4. c #EE746B",
"5. c #ED786F",
"6. c #F0736B",
"7. c #F07167",
"8. c #EA7972",
"9. c #F17C74",
"0. c #F37F78",
"q. c #398418",
"w. c #44831B",
"e. c #4C8D1C",
"r. c #47851B",
"t. c #4D941C",
"y. c #4A9A19",
"u. c #50991C",
"i. c #5C861A",
"p. c #748B1C",
"a. c #5B9724",
"s. c #4B8122",
"d. c #669925",
"f. c #7A9C21",
"g. c #7E8221",
"h. c #67A527",
"j. c #76AA29",
"k. c #56A71B",
"l. c #909127",
"z. c #92A82B",
"x. c #94961C",
"c. c #8FCB3C",
"v. c #B39F4D",
"b. c #89906D",
"n. c #B2B147",
"m. c #D1807E",
"M. c #5C7484",
"N. c #587383",
"B. c #536E80",
"V. c #667C8A",
"C. c #6A7F90",
"Z. c #D97F80",
"A. c #68828E",
"S. c #6C8493",
"D. c #728594",
"F. c #768B97",
"G. c #7C909A",
"H. c #8A8285",
"J. c #898889",
"K. c #989698",
"L. c #8C8E91",
"P. c #B48C8D",
"I. c #B69697",
"U. c #A98A8C",
"Y. c #859AA4",
"T. c #889CA5",
"R. c #B99FA0",
"E. c #93A1A2",
"W. c #9CABAB",
"Q. c #97A6AB",
"!. c #9BACB3",
"~. c #8AA0A9",
"^. c #A2ADAE",
"/. c #A7A6A8",
"(. c #BEA5A5",
"). c #A8B4B6",
"_. c #B2B5B6",
"`. c #B6B9BA",
"'. c #B7B8B9",
"]. c #D29C89",
"[. c #CA9395",
"{. c #C99B9B",
"}. c #D29592",
"|. c #D29C9C",
" X c #D69897",
".X c #CCA19E",
"XX c #D7A09F",
"oX c #CDA5A2",
"OX c #C7A2A0",
"+X c #D4AAA8",
"@X c #D2A9A7",
"#X c #C4B7B8",
"$X c #CCC0B0",
"%X c #B3BDC1",
"&X c #B9C1C3",
"*X c #C4C2C3",
"=X c #CBC3C3",
"-X c #C5CACB",
";X c #CACCCD",
":X c #CBC9C2",
">X c #D4D3CF",
",X c #CBCFD0",
"<X c #CDD3D4",
"1X c #D2D5D6",
"2X c #D2D7D8",
"3X c #D4DBDB",
"4X c #D8DFDF",
"5X c #D2CCCC",
"6X c #D7DFE0",
"7X c #DCE3E3",
"8X c #DFE8E7",
"9X c #E0E6E7",
"0X c #E3EBEB",
"qX c #E1E7E8",
/* pixels */
"                                                                                                                        ",
"                                                                                                                        ",
"                                                                                                                        ",
"                                                                                                                        ",
"                                                                                                                        ",
"                                                                                                                        ",
"                                                                                                                        ",
"                                                                                                                        ",
"                                                                                                                        ",
"                                                                                                                        ",
"                                                          v c y                                                         ",
"                                                        n _.&XJ.y                                                       ",
"                                                    y H.-X=X#X<XK.h          ........... .                              ",
"                                                  h L.<X#XG D I.3X/.c       4.9.4.7.6.9.4.                              ",
"                                                x /.3XR.D M B Z %.1X'.b     4.7.7.9.4.7.4.                              ",
"                                              c _.3XU.D N R R A C O.>X*X+.o.8.9.9.9.9.9.9.                              ",
"                                            n &X1X$.m V E W W W T M | =X<XJ.O.8.7.7.6.9.4.                              ",
"                                        y H.-X;X .M X.<.<.<.<.<.<.,.B G #X3XK.O.<.0.6.6.5.                              ",
"                                      h K.<X#X| M Q +X&X).%X%X!.).+XQ N F I.3X/.@.3.9.9.9.                              ",
"                                    v /.3X(.G B R / +XG.l D.D.g B.oX) E V F U.3X`.@.&.9.4.                              ",
"                                  c _.3XP.F N R E / @XF.k D.S.w B.oX/ W E A C $.1X-X+.#.8.                              ",
"                                +.&X2X%.C V E W W ^ @XY.V.G.G.k C.oX/ W W ^ Q B  .;X<XJ. .                              ",
"                            y H.;X;X..M T E W W W ( @XT.C.Y.Y.M.D.oX/ W / / ^ R N | #X3XK.h                             ",
"                          y K.3X#X| B R ! ~ W ~ ! ) oXN.9 k k 8 q {./ / / / ~ ~ E V H (.3X/.c                           ",
"                        x /.3X(.H N R W W W W ~ / ) .Xj 7 j j 7 9 {.) / / ~ W ~ W E T K P.3X`.b                         ",
"                      c _.4XI.F V E W W W W ~ / / / oXG.l F.F.z V.OX( / W W W W W W E T K %.2X-X+.                      ",
"                    n &X3X%.C A E W W W W ~ ^ / ~ / m.oX.X.X.X.XoX2.^ W W W W W W W W ^ Q S ..5X<XJ.y                   ",
"                  H.;X3X#.B T E W W W W W ~ / ! W W ^ ^ / ^ ! ^ ^ ~ W W W W W W W W / / ^ R V X.1X3XK.h                 ",
"                K.<X3X/.Y R E W ~ W W W ~ ~ ! ~ W W W W W W W W W W W W W W W W W W ^ / W W E I K.<X6X/.                ",
"                  3X).H.` W W W W W W W W W W W W W W W W W / / W W W W W W W W W W W W W W W Q +.W.<X                  ",
"                        ^ W W W W ~ ^ / / / / ^ ^ ^ ^ ^ ^ / / / W W W W W W W W W W W W W W W /                         ",
"                        ^ W W W W }  X|.|.|.{.[.[.[.[.[.[.-.~ W W ~ >.Z.1.1.1.1.1.1.>.W W W W ^                         ",
"                        ^ W W W E ;.#X_.`.`._._._._._._.'.:.W W W ! XX).Q.W.&X!.Q.). XE E W W ^                         ",
"                        ^ E E ! ^ ;.=X3X1X1X3X7X1X1X3X7X*X:.W E E ! |.S.k M.T.M.k D.}.E E E E ^                         ",
"                        ^ W ~ / / =.=X4X9XqX0X7X7X9X9X7X*X:.W ~ ~ ~ |.A.j k Y.k j A.}.~ ~ ~ ~ (                         ",
"                        ^ ~ / / W *.=X7X0X0X0X9X0X0X0X7X*X:.W W W ~ |.T.D.G.!.F.D.~. X~ W ~ / )                         ",
"                        ^ ^ / ^ W *.=X7X0X0X0X0X0X0X0X7X*X:.W W W / |.Y.V.S.!.S.V.Y. X! ~ ^ ( (                         ",
"                        ( / ^ ! W *.=X7X0X0X0X0X0X0X0X8X*X:.W ! ! ^ |.M.q g G.w q M.}.! ! / / ^                         ",
"                        ) / ~ ~ W =.=X3X3X3X3X7X3X3X3X7X*X:.W ~ / ) |.B.0 q F.q 0 N.}.~ W ~ ~ ^                         ",
"                        ( W W W W =.=X3X7X9X7X7X7X9X7X7X*X:.W ~ / / |.Y.V.D.Q.D.C.T.}.W W W W ^                         ",
"                        ^ ~ ~ W W =.=X3X7X7X7X7X7X7X7X>X*X:.W ~ ! ^ ].b.6 p b.p a z ]._ W W W /                         ",
"                        ^ W W W W *.=X<X3X3X7X3X3X3X3X$X*X:.W W W _ v.z.z.h.z.d.d.l.n.[ W W W ^                         ",
"                        ^ W W W W =.=X<X3X3X3X3X3X3X3X:X*X:.W W W { d.x.p.q.i.r.f.x.f.{ W W W ^                         ",
"                        ^ W W W W =.=X<X3X3X3X3X3X3X3X<X*X:.W W W [ p.= # @ < < g., 5 ` W W W /                         ",
"                        ^ W W W W =.=X<X,X,X<X2X<X,X<X<X*X:.W W W Q 6 @ o o o O : 6 + R W W W ^                         ",
"                        ^ W W W ^ ;.=X<X3X3X3X3X3X3X3X1X*X:.W W W T m . X . . . X . m R W W W ^                         ",
"                        ^ W W / / =.=X<X3X3X3X3X3X3X3X<X*X:.W W W E R T T Q L A T T R E E E E (                         ",
"                        ^ W / / ~ *.=X<X3X3X3X2X3X2X3X<X*X:.W ~ ~ W E ^ ( ^ ! E E E E T L P P `                         ",
"                        ^ W ~ ^ W *.=X<X1X1X3X1X1X1X3X<X*X:.W W W W W ( ^ W W E ! R T ] l.f.f.f.                        ",
"                        ^ ! W W W *.=X<X3X3X3X1X3X3X3X<X*X:.W W W W W ~ W E E E R A ' f.k.y.u.y.u.c.                    ",
"                        Y I U U U ,.*X-X;X;X;X;X-X;X;X-X*X,.U U U U U U U I Y Y K J , q.t.t.q.t.t.a.                    ",
"                    j.h.h.a y u y c ^.^.^.^.^.^.^.^.^.^.^.n y u u u u i t a d.a.4 3 & > e.w.w.e.* r.h.                  ",
"                  a.t.t.y.d.e t e J.W.W.W.W.W.W.W.W.W.W.W.L.e t s s s t a d.y.t.& & $ & > * * > & $ s.                  ",
"                  & w.r.r.e.3 e r K.W.W.W.W.W.W.W.W.W.W.W.E.d t s s s t 3 w.w.* & # # # $ # % % % # 2                   ",
"                  1 & > & r.      E.E.E.E.E.E.E.E.E.E.E.E.E.              1 2 2 ; 1 - 1 # $ - 1 - ;                     ",
"                                                                                                                        ",
"                                                                                                                        ",
"                                                                                                                        ",
"                                                                                                                        ",
"                                                                                                                        "
};
