/* XPM */
static char *s79a8rLBppitse9_png[] = {
/* columns rows colors chars-per-pixel */
"60 60 128 2 ",
"   c #040404",
".  c #07070A",
"X  c #080709",
"o  c #07080A",
"O  c #0B0B0D",
"+  c #0E0E11",
"@  c #100F12",
"#  c #0F1012",
"$  c #121315",
"%  c #161619",
"&  c #18171C",
"*  c #17181B",
"=  c #1A1A1E",
"-  c #1D1D21",
";  c #201F23",
":  c #1F2024",
">  c #212225",
",  c #242528",
"<  c #282729",
"1  c #27282B",
"2  c #2C2B2D",
"3  c #312E2E",
"4  c #3B2F2F",
"5  c #2E302D",
"6  c #31312F",
"7  c #2E2E31",
"8  c #302F30",
"9  c #2F3030",
"0  c #333233",
"q  c #353934",
"w  c #3D3C33",
"e  c #393739",
"r  c #3B3A3C",
"t  c #402F2F",
"y  c #4B3332",
"u  c #553433",
"i  c #593533",
"p  c #633633",
"a  c #743632",
"s  c #723936",
"d  c #394335",
"f  c #404F39",
"g  c #4B4B38",
"h  c #534C3A",
"j  c #44543B",
"k  c #465B3C",
"l  c #48583D",
"z  c #5B5B3D",
"x  c #48603D",
"c  c #413F40",
"v  c #434243",
"b  c #484647",
"n  c #464749",
"m  c #4C4B4D",
"M  c #4E4E50",
"N  c #4F5051",
"B  c #525254",
"V  c gray33",
"C  c #565558",
"Z  c #5C5C5D",
"A  c #4E6F41",
"S  c #547C44",
"D  c #696741",
"F  c #6A6940",
"G  c #727143",
"H  c #5E5D60",
"J  c #615F61",
"K  c #626163",
"L  c #656567",
"P  c #666769",
"I  c #6A686B",
"U  c #6A6B6C",
"Y  c #6F6F70",
"T  c #6F7172",
"R  c #747475",
"E  c #777778",
"W  c #78787A",
"Q  c #87322C",
"!  c #8A312B",
"~  c #803B37",
"^  c #AD2F25",
"/  c #BF2D21",
"(  c #A23027",
")  c #BD3A31",
"_  c #B33F38",
"`  c #B83F38",
"'  c #C2281B",
"]  c #C92E20",
"[  c #D82F21",
"{  c #DA3021",
"}  c #CA3B31",
"|  c #E34035",
" . c #E64035",
".. c #5CA93F",
"X. c #5BBB37",
"o. c #5EB73D",
"O. c #5BB838",
"+. c #60C33B",
"@. c #65CE3D",
"#. c #67D33F",
"$. c #568343",
"%. c #5B9A42",
"&. c #609449",
"*. c #68BA46",
"=. c #6DCC47",
"-. c #70C04E",
";. c #73C850",
":. c #78E24D",
">. c #7CEA4F",
",. c #858447",
"<. c #82814B",
"1. c #989749",
"2. c #9E9D4A",
"3. c #969551",
"4. c #BCBB4F",
"5. c #CECC4F",
"6. c #DAD85E",
"7. c #E2DF50",
"8. c #E7E64C",
"9. c #EAE74C",
"0. c #ECE950",
"q. c #F5F151",
"w. c #CFCE63",
"e. c #D6D465",
"r. c #E9E762",
"t. c #FDFA6C",
"y. c #848486",
"u. c #8E8E91",
/* pixels */
"7 > - = % = - = * * = - = * = - - % $ % = - = $ O * = = = % % = = * % - = - - = O * - - = % > > > > % * = = $ = - - = r ",
"- - = = $ = - = * - = - - - - - = $ $ - - - - * X = 0 C L P P K B 2 * - - - - - + = - - - = , > > > $ * - = % = - - % = ",
"- - - = $ % % % * - - - - - - - % + # - - - - % + 1 Z L U R T P Z V 7 - - - - - % - - - - - > > > > $ * - - - - - = * % ",
"= - - - - * $ - > - - - - - - - * O O - - - > , - 0 r 2 2 4 t 3 2 r 0 1 1 = * - = - - - - % - - : = O = - - - - = + = - ",
"= = - - - $ $ - - - - - - - - - - % $ - - - 1 H I V 0 3 s _ ` ~ 4 0 v K K 7 $ = - - - - - = = - = = $ $ = - - = * X % - ",
"= = = = $ + % = - % = - - - - - - $ $ % - - - e m v 0 u ) |  .} p 9 r r 0 > - - - - - - - - - - - - * % = = - - = O $ = ",
"= - - # % = - - - = = - - - - - - % X + - - - - n m 0 p / [ { ] a 3 v m - - - - - - - - - - - > * $ $ - : = : - - $ + $ ",
"% * - $ = - - - - - - = = - - - - = X $ = % - - n m 0 y ( ' ' ^ i 2 v M * % - - = = - - - - = % % * = > > = - > - = = - ",
"= - - % * - - - - - = = - = - - - = = = - = - - 0 v 0 2 i Q ! p 3 3 r 0 = - - - * % - - - - - - = - : > : * = - - - - - ",
"= - - - % = = = = - = - - - - - - = - - - - : 1 1 0 0 2 6 h h q 2 0 0 , 1 : - - = = - - - - - - % - - - - - = = - - - - ",
"= - - = = * $ + $ - - - - - = - - - - - - - 1 Z K b 0 6 <.w.e.3.w 2 c J K 0 - - - = - - - - - - $ = - - - - - - - - = - ",
"* - - - - = X X $ - - - & - - - - - * = - - - 7 r r 0 z 6.t.t.r.G 2 e r 7 - - - - - = - - - - - = % - - = = - - - = % - ",
"% = - - - * X $ = - - = % = - - - = + $ - - - - v m 0 F 7.q.q.0.,.6 v m - = - - - - % - % = - - - $ % - - = = - > - % - ",
"$ % = - - = O * - - = - - - - - - = * $ - - - - n m 0 g 4.8.9.5.z 2 v M - - - - - = = = $ * - - > + * - % $ = - > > % % ",
"% = = - - - * - - = = - - = % - - - % $ - - - - 7 v 0 2 z 1.2.D 6 2 r 0 - - % - - - - = $ $ % $ $ + = - - - - - - > : $ ",
"* - - - - = - - - = = - % = % - - - = % - - > 7 7 0 0 2 6 j l q 2 8 0 0 0 , # = - - $ = = $ $ = = = - - - - - : > , > * ",
"= - - - % $ - - - - - - - = % - - - - - - - 1 Z K b 0 0 S -.;.&.d 2 r Z K 1 o = - - $ $ - - - - - - - - % & > > > , > = ",
"= = - - % $ = - - % % - - - - = = - - - - - - 1 r r 0 j *.:.>.=.A 6 e r > % O = - - = * - - - - - - - - $ $ - - = - % O ",
"= = - > % = - - - - % - - - - = % = - - - - - % v m 0 x o.@.#.+.S 6 v m + = % - - - = = - - - - - - - > = % - - - - = $ ",
"= = - - $ = - - - - % - - - - - - - - - - - - - v m 0 d %.O.X...k 2 v m + % = - - - - = - - = - - = - > = = - - = - - % ",
"- - - - % - - = = - - - - - - - - - - - - - - - 1 c 0 2 f $.$.k 5 3 r 0 = = - - - - - % * = - - - % = - % = - = $ = = % ",
"- = = - - - - % % - - - - - - - - - - % $ $ % - - 7 v 0 0 0 q 0 0 v 0 - * = - - - - - * $ * - - - $ O O # - - = $ = - - ",
"= % $ - - - - % $ = = - = - - - - - - - - $ + - - , B R y.u.u.y.Y B 1 - = - - - - - - = + % = = % % = = - - - - - - - - ",
"% $ O % = - = % - - = > - = - - = - - - - = O % - - > r Z K K Z v = - - - - - - - - - - = = * $ $ - - = = = - - - - - * ",
"= - % O % = $ * - - - = = = - - - - - - - = $ = - - - - 1 m K 7 > = = - - - - - - - - = = - - = % - - = % - = - - - = + ",
"= = - = = - % = - - - - - - - - - - = - - - = - - = - - - V R > - - = - - - - - % % = - - - - - - - : - - - - - - - - = ",
"= - - - - - % - - - = = = = - - - - = = = - - - - - - - - B R - = = - - - - - = $ $ + - - = - - - > - - - - - - - - - - ",
"= - = = - - - - - - = = $ % - - - - - % = - = = $ $ = - - B R - $ = - - - % # % - - % - - % = - - : - - - - - - - = - > ",
"= - - - - - - - - - - = $ = - - - - - - - - $ $ O X O $ - B R - - > - - - % + - - = = > - & - - = - - - - - - - - % % = ",
"= = - - - - - - = % % = - - - - - - - - - - O   X = = + = B R > - - - - - = % - - = & * - - = = $ = - > > - = = = $ X X ",
"= = - - - - - * $ % = - - - - - - = - - - = X   X > = + = B R > - - - - - - % - - = $ $ - - - - % = - - * = * = - = * X ",
"= - - - - - - % = = = = - - - - - % - - - $ X     = % $ - B R > - - - - - - % - - - - - - - - - % - - - = % - - - - - O ",
"$ = - = % - - = = $ - = - - = - - - - - % $ - O   $ O * - B R > - - - - - - $ = ; > = = - - - - - - - > - * - % % - - % ",
"% - > $ % > : = - = - - - - - - = - - - = = , = X O % - = B R > - - - - - = O $ - = + = - = $ = - - - - = % - = % - - % ",
"= - > % % , > = - - - - - - - - * % - - & = - = O = - - = B R > - - - - - - $ $ % $ $ = - = % - - = - - = % - - - - - % ",
"- - > % $ = = - - - - = * = = - = = - - = = = = % * - - - B R > - - - - - - = - - - - - - - - - - $ = = & = - - - - - % ",
"= = = - = - - - - - - - % = = - - - - - - - - - - = - - - M R > - - - * - % - - - - - - = * % = - - & % % = - - - - - $ ",
"= % % = - = = - - = - - % = - - - - - - - % - - - - - - = m R > - - - = = % = - = - - - $ % % = - - = $ $ = - - - - % X ",
"% % % = - = % * $ O $ $ $ = - - - - - - = % - - - - - - - M E > = = - - - $ = = - - - - $ - - = - - - = = % % - - % $ O ",
"= - = = - - = * = % = * & - - - = - - - = % - - - = - - - M R * $ = - - = O % = % = - - $ $ = - - - - - = * = - - - - = ",
"* - - - - - = % * = - - - - - - $ * - - % % - - - - = = - M R : = - - - - % $ = % * - - % % - - - - - - $ + - - - - - - ",
"% * = - - - - - - - - - - - - - = % - - $ * - - - - % $ = m E , - - - - - - $ $ + * - > % % - - = - - - = * - - - - - - ",
"O O % - - - - - - - - - - - = - - % $ O . $ $ = - = * % - m E , - - - - - - - - % # = = $ % - - = = = - % % - - - - - - ",
"* = - - = - - - - - - - - - % = - - = = $ = = > : = % - - m E , - = - - - - - - = + = = * $ - > = * - - % = - - - & - - ",
"= - - $ + - - - - = % - - = $ = - : - - % - - - > - $ = - m E , - - - - - - - - - O % - = $ - > % * - - $ = - - - % - = ",
"= = - $ O > - = - = = = - = % - - = = - $ = - - - = % - = m W , - - - - = - - - - X X $ = $ - = $ = - - - - - - - - - = ",
"@ $ ; * + * * = - - = = - = # - : - > - $ = - - - % = - - m E , - - - - - - - - % X $ X + # $ $ * - - - - - - - - - = $ ",
"X O = - = = - - - = $ = - = $ - - > : - $ $ % * % X = - - m W , - - - - - - - - O X = $ + = - = - - - - - = = - % $ $ O ",
"X X % = - - - - - - = - - - % = - - - - $ O % = = * = = - m W , - - - - - - - - % O = - - - - = - - - - * = = * X O = * ",
"X X = - - - - - - - % = - - = * % * % $ X + - = = - - = - m W , - - = - - - - - = O = = > - - % - - - - - , > # X = - - ",
"O % * - - - - - - - = - - - - - = = % $ O = - - - - - - - m W > - - % - - - - - - + % * > > - + $ = = - > > > $ $ - - - ",
"* - - - - - - * % - - - - - - - - - - = $ - - - - - - - - m W , - = $ - - - : - - # = - > > = $ = % % - - - > % = > - - ",
"= = % % = & - % = - - - * - - - - - - - O = - - - - - - r K R N 1 + X = - - : - - # = > : : = = - = = - - % * % : > - - ",
"= = % = - - - % - - - - % - - = = - - = X $ - - - - 1 0 m B B B r ; = = - - > > - @ % * % % % = - - - - ; - - $ : : - - ",
"= = - - > - - $ + * = - - = = - = - - - O $ - - - , 0 r r r r r e r 0 : - - ; > - $ = - - - - - - - = - - > > * * = - - ",
"* - - - - : - % + - = - - = = $ % - - - $ $ - - - 1 0 r r r r r e e r , - - - - = $ - - - - - - - = % - - > > > : - - = ",
"$ = - - = : - = * > > > - = - = = - - - # $ - - > 2 0 r r r r r e e 0 2 - - - - = O % = - - - - - = % - - - - - - - % = ",
"% - - - : - - - * - > > = % - - - - * : O $ - - , 2 0 r r r r r e e 0 1 > - - > % $ - - - - - - - = % = = - - - = % O : ",
"% - - - - - - - = $ - - * + - - - = + * O X = - < 2 0 r r r r r r e 0 1 > - - - $ $ - - - - - - - = $ * % - - - % = = > ",
"O O $ % = % * * * O * = $ X + * = = + * X   X % , < 1 2 7 2 2 2 1 , > * = = * * O $ - - - - = % % % O % O % - = % = = > "
};
