/* XPM */
static char *fd6a001d6dfb4ea6aad32a6ae89c673bod03YjuZLmdCsp8E[] = {
/* columns rows colors chars-per-pixel */
"28 60 230 2 ",
"   c None",
".  c #0C150D",
"X  c #0D150D",
"o  c #14130F",
"O  c #1A1909",
"+  c #1C1A0A",
"@  c #131512",
"#  c #171611",
"$  c #161916",
"%  c #1B1B1C",
"&  c #1C1D1D",
"*  c gray12",
"=  c #37090B",
"-  c #241F1F",
";  c #331614",
":  c #351415",
">  c #361414",
",  c #3C1B1D",
"<  c #3B1E1D",
"1  c #042403",
"2  c #062506",
"3  c #012802",
"4  c #0E220D",
"5  c #0C250D",
"6  c #0D2B0D",
"7  c #003200",
"8  c #033003",
"9  c #023103",
"0  c #023502",
"q  c #063406",
"w  c #023803",
"e  c #003C01",
"r  c #023D02",
"t  c #023E02",
"y  c #063807",
"u  c #033E04",
"i  c #102310",
"p  c #142213",
"a  c #162B17",
"s  c #182718",
"d  c #1D201D",
"f  c #1B2E1B",
"g  c #173217",
"h  c #2E2900",
"j  c #2B2509",
"k  c #28250F",
"l  c #2D270C",
"z  c #302A08",
"x  c #3B3403",
"c  c #3C3501",
"v  c #3E3601",
"b  c #3D330B",
"n  c #282512",
"m  c #222119",
"M  c #2C2A18",
"N  c #2E2C1E",
"B  c #3A3516",
"V  c #393318",
"C  c #202020",
"Z  c gray13",
"A  c #222222",
"S  c #232323",
"D  c #242623",
"F  c #242324",
"G  c gray14",
"H  c #252525",
"J  c gray15",
"K  c #272727",
"L  c #292720",
"P  c #282625",
"I  c #292D26",
"U  c #282828",
"Y  c gray16",
"T  c #2B2828",
"R  c #2A2A28",
"E  c #2B2B29",
"W  c #29292A",
"Q  c #2A2A2A",
"!  c #2B2B2A",
"~  c gray17",
"^  c #2C2A2A",
"/  c #2B2E29",
"(  c #2C2C2C",
")  c #2D2D2C",
"_  c #2D2D2D",
"`  c #2D2E2D",
"'  c gray18",
"]  c #2F2F2F",
"[  c #362323",
"{  c #372728",
"}  c #223522",
"|  c #333120",
" . c #32312E",
".. c #3C3929",
"X. c gray19",
"o. c #303130",
"O. c #313131",
"+. c #323131",
"@. c #333131",
"#. c #333230",
"$. c #323231",
"%. c #323232",
"&. c #343131",
"*. c #343231",
"=. c #333433",
"-. c #343532",
";. c #343434",
":. c #343535",
">. c #353535",
",. c #353634",
"<. c #363635",
"1. c #363536",
"2. c gray21",
"3. c #373637",
"4. c #373737",
"5. c #373A35",
"6. c #383738",
"7. c #373938",
"8. c gray22",
"9. c #393838",
"0. c #383938",
"q. c #393938",
"w. c #393839",
"e. c #383939",
"r. c #393939",
"t. c #393A39",
"y. c #3A3A39",
"u. c #393B3B",
"i. c #3A3A3A",
"p. c #3A3B3A",
"a. c #3B3B3A",
"s. c gray23",
"d. c #3B3C3B",
"f. c #3E3C3B",
"g. c #3E3E3B",
"h. c #3B3B3C",
"j. c #3B3C3C",
"k. c #3C3C3C",
"l. c gray24",
"z. c #3E3D3D",
"x. c #3C3E3D",
"c. c #3E3E3D",
"v. c #3D3E3E",
"b. c #3E3E3E",
"n. c #3E3E3F",
"m. c #3F3F3F",
"M. c #581111",
"N. c #681010",
"B. c #413801",
"V. c #443B02",
"C. c #463C04",
"Z. c #452323",
"A. c #492A2B",
"S. c #5D2221",
"D. c #5C2323",
"F. c #403E3E",
"G. c #563433",
"H. c #533535",
"J. c #662324",
"K. c #75272A",
"L. c #792D2D",
"P. c #7B2E2D",
"I. c #014101",
"U. c #034003",
"Y. c #3C403C",
"T. c #4D4001",
"R. c #4F4202",
"E. c #4C4004",
"W. c #524301",
"Q. c #524303",
"!. c #524503",
"~. c #564702",
"^. c gray25",
"/. c #414141",
"(. c #434040",
"). c #434240",
"_. c #434241",
"`. c gray26",
"'. c #434343",
"]. c gray27",
"[. c #464646",
"{. c #474746",
"}. c gray28",
"|. c #484848",
" X c #494949",
".X c gray29",
"XX c #4B4B4B",
"oX c #4C4C4C",
"OX c gray30",
"+X c #4E4E4E",
"@X c gray31",
"#X c #505050",
"$X c #515151",
"%X c gray32",
"&X c #535353",
"*X c gray33",
"=X c #555555",
"-X c #565656",
";X c gray34",
":X c #5A5A5A",
">X c #5F5F5F",
",X c #757574",
"<X c #871413",
"1X c #B71718",
"2X c #9C2220",
"3X c #C33232",
"4X c #CF413F",
"5X c #A75250",
"6X c #CB5154",
"7X c #DA5150",
"8X c #E65C5A",
"9X c #EE817C",
"0X c #8D8D8D",
"qX c gray60",
"wX c #9B9B9B",
"eX c gray61",
"rX c gray64",
"tX c #A5A5A5",
"yX c #ACACAC",
"uX c gray68",
"iX c #B4B4B4",
"pX c gray73",
"aX c #BBBBBB",
"sX c #BCBCBC",
"dX c #C18382",
"fX c #E49592",
"gX c #EFA5A6",
"hX c #F2A7A7",
"jX c #F1B4B1",
"kX c #F7D2D2",
/* pixels */
"                                                        ",
"                                                        ",
"                                                        ",
"                    s.*.%.~ ~ _ %.4.                    ",
"                  #Xb.4._ P P ~ %.s.+X                  ",
"        +XXXXXXXs.XXb.^.{ > > [ f.j.}.4.XX+XXX+X        ",
"          -X#X#Xs.}.b.~ , K.N.= - s.}.4.+X+X-X          ",
"            b.4.~ XX4.< dXgX7X2X; _ }.~ 4.s.            ",
"              ~ A XX%.L.jXkX9X4XS.^ }.J J               ",
"                A XXs.L.fXhX8X3XS.%.}.A ~               ",
"                J }.b.G.5X6X1X<XA.s.}.~                 ",
"                ~ }.b.^.H.J.M.Z.F.j.}.~                 ",
"                  +Xs.b.7.*.*.4.s.s.}.                  ",
"          }.}.}.s.XXb.^.%.& % ~ b.s.}.4.}.}.}.XX        ",
"          -X#X#Xs.}.b.%.# + O o ~ s.}.4.#X#X-X>X        ",
"            ^.s._ XXs.L b E.C.z m 4.}._ s.b.            ",
"              _ A XX4.V W.~.W.c n %.}.J ~               ",
"              ~ A }.s.B R.!.R.c k 4.}.A J               ",
"                J }.b...x V.B.h N d.}.J                 ",
"                ~ }.b.^.| l j M f.d.}.~                 ",
"                  XXb.b.s.%. .4.s.q.}.                  ",
"                s.XXb.^.4.J F _ b.s.}.s.                ",
"          -X-X-Xs.}.b.6.$ . . @ _ b.}.4.#X-X-X:X        ",
"            ^.^.%.XXs.D 6 y q 5 d 4.}._ b.^.+X          ",
"              _ J XX4.f r I.r 7 p %.}.J ~ s.            ",
"              ~ & XXs.g e r u 7 4 =.}.A J               ",
"                J XXb.} 7 0 0 3 s s.}.J                 ",
"                ~ XXb.Y.a 2 1 i 5.b.}.~                 ",
"                  XXb.^.s./ I -.b.s.}.4.                ",
"                  -Xb.4.%.~ ~ _ %.s.#X                  ",
"                        qX,X0XqX                        ",
"                          eXyX                          ",
"                          yXsX                          ",
"                          yXsX                          ",
"                          yXaX                          ",
"                          yXaX                          ",
"                          yXaX                          ",
"                          yXaX                          ",
"                          yXaX                          ",
"                          yXaX                          ",
"                          yXaX                          ",
"                          yXaX                          ",
"                          yXaX                          ",
"                          yXaX                          ",
"                          yXaX                          ",
"                          yXaX                          ",
"                          yXaX                          ",
"                          yXaX                          ",
"                          yXaX                          ",
"                          yXaX                          ",
"                          yXaX                          ",
"                          yXaX                          ",
"                          yXaX                          ",
"                          yXaX                          ",
"                          yXaX                          ",
"                          yXaX                          ",
"                          yXaX                          ",
"                          yXaX                          ",
"                          rXiXaX                        ",
"                          tXaX                          "
};
