/* XPM */
static char *s75a3RHpZio3NbB_png[] = {
/* columns rows colors chars-per-pixel */
"32 32 124 2 ",
"   c #1B394C",
".  c #1E3F55",
"X  c #223D4E",
"o  c #1E4057",
"O  c #1E435B",
"+  c #224156",
"@  c #23455C",
"#  c #2C4758",
"$  c #2D4B5E",
"%  c #324D5E",
"&  c #194763",
"*  c #1E4A65",
"=  c #1F4C68",
"-  c #204A66",
";  c #2F4D60",
":  c #204E69",
">  c #334E60",
",  c #23526D",
"<  c #29546E",
"1  c #365162",
"2  c #3A5463",
"3  c #3E596A",
"4  c #285776",
"5  c #2C5A75",
"6  c #2C5C7A",
"7  c #345E77",
"8  c #315F7A",
"9  c #35627D",
"0  c #3A647C",
"q  c #405C6D",
"w  c #466375",
"e  c #4C6576",
"r  c #496578",
"t  c #43697D",
"y  c #4E6B7D",
"u  c #356582",
"i  c #3A6681",
"p  c #3C6983",
"a  c #3C6B88",
"s  c #456D83",
"d  c #486F84",
"f  c #416F8B",
"g  c #4D7285",
"h  c #45728B",
"j  c #4C758B",
"k  c #4E788E",
"l  c #537689",
"z  c #5A7788",
"x  c #557A8D",
"c  c #5A7C8D",
"v  c #4A7691",
"b  c #4D7991",
"n  c #537C91",
"m  c #5A7E91",
"M  c #557F99",
"N  c #627C8B",
"B  c #578094",
"V  c #5C8295",
"C  c #56829A",
"Z  c #5D859A",
"A  c #638596",
"S  c #688797",
"D  c #6A8997",
"F  c #60879B",
"G  c #648B9D",
"H  c #6C8C9D",
"J  c #708F9F",
"K  c #6D919F",
"L  c #5E8CA2",
"P  c #618EA4",
"I  c #698FA2",
"U  c #6C92A3",
"Y  c #6794A8",
"T  c #6996A9",
"R  c #6C98AB",
"E  c #7395A4",
"W  c #7996A3",
"Q  c #7599A7",
"!  c #7C9AA6",
"~  c #7496A9",
"^  c #759CAC",
"/  c #7C9DAD",
"(  c #749FB0",
")  c #7D9FB0",
"_  c #7EA2AE",
"`  c #7EA6B4",
"'  c #829EAC",
"]  c #82A2AF",
"[  c #83A4B2",
"{  c #86A7B6",
"}  c #89A6B3",
"|  c #8AA6B2",
" . c #89A7B5",
".. c #8CA7B4",
"X. c #86A9B5",
"o. c #8BAAB3",
"O. c #8BA8B5",
"+. c #8DABB7",
"@. c #8BAEB6",
"#. c #8BACB8",
"$. c #8DAEBB",
"%. c #90ABB7",
"&. c #90AEBA",
"*. c #95AFBB",
"=. c #94AFBC",
"-. c #8DB0B9",
";. c #8FB3BE",
":. c #8FB4BE",
">. c #92B2BB",
",. c #95B0BB",
"<. c #90B4BC",
"1. c #93B4BD",
"2. c #91B6BF",
"3. c #96B8BF",
"4. c #93B7C0",
"5. c #94B5C0",
"6. c #93B8C1",
"7. c #94B8C1",
"8. c #97BCC3",
"9. c #99BAC1",
"0. c #9BBCC4",
"q. c #9CBDC4",
"w. c #A2C4CA",
"e. c #A4C5CB",
/* pixels */
"2 2 $ 2 2 2 1 % 2 2 2 2 2 1 > 1 1 1 1 1 1 % $ 2 2 2 2 2 $ 2 2 2 ",
"w.8.R w.w.w.2.( w.w.e.w.e.T +.*.,.*.=.2.2./ ` w.w.e.w.w.P w.w.w.",
"& ;.R m & & 2.^ s g w.C Y T ] < x m 8 Q < / ` 9 V w.< H P @.& & ",
"i 2.R U 0 9 2.( V Z e.C Y T [ b I U M / b / ` k U e.s Q P 2.i 9 ",
"H 4.R [ H H :.( / / e.U _ T O.J ' ' E ..E ) ` Q [ e.Q #.P 9.H H ",
", 2.R Z , , 2.( j k e.h Z T ] 8 B V p ! 9 / ` p Z e.8 U P -., , ",
"F 7.R _ Z Z 2.( Q ^ e.Q ` T  .I / / E  .I / ` U [ w.G X.P 7.F Z ",
"s 6.R E s s :.( A H e.V E T } g H H l } g ) ` x E w.g ^ P >.s s ",
"8 2.R G 8 8 2.^ B B e.n G T [ a F G h / a / ` h I w.p Q P ;.8 8 ",
") 7.R $./ ) 2.( O.$.e.{ $.T  .[  . .[ &.[ / ` { 2.e.[ 5.P 0.` ` ",
"< 2.R Z < < :.^ j x e.s A T ' 7 m A 0 ! 7 / ` s F w.0 E P @.< < ",
"p 2.R U i i 2.( Z Z w.V U T [ v I I M ' b / ` n U w.h ^ P 2.p i ",
"Q 2.R $.Q Q 2.^ X.] e.[ O.T &.E ] [ ! +.E / ` ] O.e./ $.P q.Q Q ",
", 2.R V , , :.^ j x w.h Z Y [ 8 B V p / 9 ) ` 0 F w.8 U P $., , ",
"n 7.R ^ n n :.( U E w.U / T O.Z Q Q I { Z ) ` G / w.V [ P 3.n n ",
"t 2.R K t t 2.( A D e.c U T } g H H l [ g ) ` l E w.g Q P >.t t ",
"6 2.R F 5 6 2.( n B e.k F T [ p Z F h / p / ` f G e.9 E P -.6 6 ",
"U 7.R X.U U :.( ` ` w.[ X.T  ./ [ [ / +./ / ` ) X.w.Q $.P 0.U U ",
"= 2.R V - * :.( d g e.t V T ' 7 m V 0 ! 7 ) ` 0 V w.7 K P O.= * ",
"9 2.R G 9 9 :.( B B e.n G T [ f F I v ) h ) ` j I w.f Q P -.9 9 ",
"] 7.R >.] ] 2.( +.&.w.X.2.T &.} +.%.[ 2.] ) ` [ 2.e.[ 2.P q.] ] ",
": 2.R V * = 2.^ j j e.s V T [ 5 m V 0 Q 6 / ` 0 Z e.5 K P $.: = ",
"k 7.R Q k k :.^ I U e.I ^ T [ Z ~ ~ F { Z / ` Z ^ e.n [ P 2.k k ",
"c 2.T Q x x ;.^ E E e.K ^ T W c D D c W c E ` D ^ e.Z [ L 2.c x ",
"5 2.T F 5 5 ;.^ n n e.k F Y H u x x p D i H ` f G w.9 E L -.5 5 ",
"U 2.U X.U U -.Q _ [ e._ X.G W Q ' ] / [ Q S _ ^ X.w.Q -.Z 0.U U ",
"} ] c } } } ! S } } } } } V N q e e e e 3 z H } o.o.} o.x o.} } ",
"] 4.R 2.] ] 2.^ >.@.w.@.>.Y #.w r r r r y [ ` @.2.e.@.2.L w.[ ] ",
", 2.R Z , , :.^ j k e.h Z Y #.1 o O @   y [ ` 0 F w.7 U P -., , ",
"n 7.R Q b b 2.^ U Q e.U / T +.1 < 4 6 . y [ ` Z ^ e.B [ P 2.n n ",
"2.O.G 2.2.2.[ U 2.2.2.2.2.Z W 1 < 6 u . y E Q 2.2.2.2.2.C 2.2.2.",
"1 > ; 1 1 1 > $ 1 1 1 1 1 $ % X + + @   # > > 1 1 1 1 1 $ 1 1 1 "
};
