/* XPM */
static char *d0c930c27ded401baa5e746b4de7b70eXFEP6r73UMvo0qnX[] = {
/* columns rows colors chars-per-pixel */
"39 60 149 2 ",
"   c None",
".  c #0D0C0D",
"X  c #100F10",
"o  c #141414",
"O  c #191516",
"+  c #171A16",
"@  c #171618",
"#  c #191718",
"$  c #1B1B1B",
"%  c #1C1B16",
"&  c #221E1F",
"*  c #2E1916",
"=  c #3A1B16",
"-  c #1D2615",
";  c #212F16",
":  c #2D201E",
">  c #242B1F",
",  c #2C2B1F",
"<  c #272617",
"1  c #3F241E",
"2  c #33211D",
"3  c #29361E",
"4  c #3A3817",
"5  c #3E3C1D",
"6  c #231F20",
"7  c #242122",
"8  c #292729",
"9  c #272A2F",
"0  c #2C2C2D",
"q  c #2D3C20",
"w  c #3E3C20",
"e  c #2F2E31",
"r  c #322F32",
"t  c #343335",
"y  c #383537",
"u  c #373738",
"i  c #383739",
"p  c #3B3A3C",
"a  c #471F16",
"s  c #4E1F14",
"d  c #541F15",
"f  c #482016",
"g  c #50281E",
"h  c #403F1A",
"j  c #672415",
"k  c #782A19",
"l  c #294015",
"z  c #2C451B",
"x  c #2F4A18",
"c  c #315317",
"v  c #3F6F1A",
"b  c #3A631B",
"n  c #2F4221",
"m  c #395522",
"M  c #494618",
"N  c #5F5C16",
"B  c #686518",
"V  c #666319",
"C  c #4D4B21",
"Z  c #4A7925",
"A  c #646022",
"S  c #243C4B",
"D  c #293F4D",
"F  c #3F3F41",
"G  c #403F41",
"H  c #2B414F",
"J  c #3F4043",
"K  c #2E4351",
"L  c #334654",
"P  c #374956",
"I  c #3A4B57",
"U  c #3C4D5A",
"Y  c #424346",
"T  c #454549",
"R  c #484649",
"E  c #4C4B4E",
"W  c #4E4E51",
"Q  c #424F5A",
"!  c #504E50",
"~  c #42515D",
"^  c #535154",
"/  c #465461",
"(  c #4D5965",
")  c #4A5663",
"_  c #505B66",
"`  c #565F6B",
"'  c #5B636E",
"]  c #646466",
"[  c #666668",
"{  c #68676A",
"}  c #69696B",
"|  c #616F7A",
" . c #C22F0E",
".. c #CE310D",
"X. c #CA3513",
"o. c #E1320A",
"O. c #E8330A",
"+. c #FF3405",
"@. c #FF3609",
"#. c #F6370B",
"$. c #FF3D11",
"%. c #E54520",
"&. c #FD4C23",
"*. c #FE512A",
"=. c #EE5835",
"-. c #DC5E40",
";. c #FF7B5C",
":. c #61BC19",
">. c #68C61C",
",. c #6FDB17",
"<. c #6AD319",
"1. c #76EA19",
"2. c #77F412",
"3. c #78F514",
"4. c #7EF61C",
"5. c #7DE12D",
"6. c #BCB614",
"7. c #8A8624",
"8. c #85F22C",
"9. c #88F331",
"0. c #CCC512",
"q. c #D2CB11",
"w. c #DFD517",
"e. c #E6DD0D",
"r. c #E3DA10",
"t. c #FFF505",
"y. c #FFF804",
"u. c #FEF40F",
"i. c #FEF31C",
"p. c #EFE523",
"a. c #FFF320",
"s. c #FF8D72",
"d. c #8FDD4F",
"f. c #8FEB43",
"g. c #A5F664",
"h. c #B2FA78",
"j. c #EDE64E",
"k. c #FAF140",
"l. c #FEF758",
"z. c #FFF96B",
"x. c #727A83",
"c. c #81878C",
"v. c #868F97",
"b. c #939A9F",
"n. c #9D9FA2",
"m. c #9EA0A3",
"M. c #A1A2A3",
"N. c #A6A8AA",
"B. c #A8AAAD",
/* pixels */
"                                  E ^ ^ W T                                   ",
"                                p G T R Y p t                                 ",
"                              i G G J J J F p W 0                             ",
"                  ] ] ] [ ] 7 0 7 $ 2 g 1 $ $ T $ W [ ] ] ] [                 ",
"                ^ W W W W E 6 0 $ s X.=.-.k O Y $ F W W W W W                 ",
"                  t t t t t @ 0 :  .$.;.s.%.a Y @ 8 t t t t i                 ",
"                  7 7 7 7 6 o 0 1 o.@.&.*.$.j Y @ # 7 7 7 7                   ",
"                      6 & & X 0 :  .+.+.+.O.f Y @ # & & 7                     ",
"                        6 & o 0 $ d ..#.o.k O Y @ # & 7                       ",
"                        7 6 o 0 $ o * s = @ @ Y @ # 7                         ",
"                            $ t t 0 0 9 0 0 e E 7                             ",
"                  { } { { ] $ 0 7 $ 5 A C $ $ T @ T } } } } }                 ",
"                ^ ^ ^ ^ ^ E # 0 $ N w.k.j.7.% Y @ i ^ ^ ^ ^ ^                 ",
"                  y y y y t o 0 , 0.u.l.z.p.M Y @ 7 y y y y i                 ",
"                  7 7 7 7 & . 0 w e.y.i.a.u.V J @ O 7 7 7 7                   ",
"                      & & & . 0 , 6.y.y.y.r.h Y @ O & & 6                     ",
"                        & & . 0 $ M 6.e.q.B @ Y @ O & 7                       ",
"                        7 & . 0 $ o < 4 < @ @ Y @ @ 7                         ",
"                            $ t y t r e r t y E 7                             ",
"                [ ] ] ] ] ] 8 0 7 $ 3 m n $ $ T $ ^ ] ] ] ] ]                 ",
"                ! E E E E E 7 0 $ c >.f.d.Z + Y $ F E E E E E                 ",
"                  t r r r r $ 0 > :.4.g.h.5.z Y # 8 t r r r y                 ",
"                    6 6 6 & o 0 q ,.3.8.9.1.b Y @ $ 6 6 6 7                   ",
"                      6 & & o 0 > :.3.2.2.,.z Y @ $ & & 7                     ",
"                        6 & o 0 $ x >.1.<.v + Y @ $ & 7                       ",
"                        7 & o 0 $ o - l ; @ @ Y # $ 6                         ",
"                              u t e T W W t t E                               ",
"                                    n.m.N.                                    ",
"                                    n.M.B.                                    ",
"                                    n.M.B.                                    ",
"                                    m.M.B.                                    ",
"                                    m.M.B.                                    ",
"                                    m.M.B.                                    ",
"                                    m.M.B.                                    ",
"                                    m.M.B.                                    ",
"                                    m.M.B.                                    ",
"                                    m.M.B.                                    ",
"                                    m.M.B.                                    ",
"                                    m.M.B.                                    ",
"                                    m.M.B.                                    ",
"                                    m.M.B.                                    ",
"                                    m.M.B.                                    ",
"                                    m.M.B.                                    ",
"                                    m.M.B.                                    ",
"                                    n.M.B.                                    ",
"                                    n.M.B.                                    ",
"                                    n.M.B.                                    ",
"                                    n.M.B.                                    ",
"                                ~ I c.M.m.Q U                                 ",
"                        ( I K H D S x.N.n.D S D K P /                         ",
"                      ' P S S S S S | b.v.H S S S S D ( '                     ",
"                    ' ' ) L D S S S D L K S S S S H U ` '                     ",
"                        ' ' _ / ~ U I P I I U ~ ( ` ' '                       ",
"                              ' ' ' ' ' ' ' ' ' '                             ",
"                                                                              ",
"                                                                              ",
"                                                                              ",
"                                                                              ",
"                                                                              ",
"                                                                              "
};
