/* XPM */
static char *tire_xpm[] = {
"32 32 3 2",
"   c #FFFFFF",
".. c #808080",
"XX c #000000",
"                                                                ",
"                                                                ",
"                                                                ",
"                                                                ",
"                                                                ",
"                                                                ",
"                          ..XXXXXXXX....                        ",
"                      XXXXXXXXXXXXXXXXXXXX..                    ",
"                  ..XXXXXXXXXX......XXXXXXXXXX                  ",
"                ..XXXXXX..........XX....XXXXXXXX                ",
"                XXXXXX....XX..    ....XX....XXXXXX              ",
"              XXXXXX..XXXX..          XXXX....XXXX..            ",
"            ..XXXX....XXXXXX..    ..XXXXXXXX..XXXXXX            ",
"            XXXXXX..XX..XXXXXXXXXXXXXXXXXX..XX..XXXX..          ",
"            XXXX......  ..XX..XXXXXX..XX..  XX..XXXX..          ",
"            XXXX..XX      XXXX    ..XXXX    ....XXXX..          ",
"            XXXX..XX      XXXX      XXXX    ....XXXXXX          ",
"            XXXX..XX..  ..XXXX......XXXX    ....XXXX..          ",
"            XXXXXX....  XXXX..XXXXXXXXXX..  XX..XXXX..          ",
"            ..XXXX..XXXXXXXXXXXXXXXXXXXXXXXX....XXXX            ",
"              XXXXXX..XXXXXX        ..XXXXXX..XXXXXX            ",
"              ..XXXX....XX..          XXXX..XXXXXX              ",
"                XXXXXX....XXXX......XX....XXXXXX..              ",
"                  XXXXXXXX..............XXXXXX..                ",
"                    XXXXXXXXXXXXXXXXXXXXXXXX..                  ",
"                      ..XXXXXXXXXXXXXXXX..                      ",
"                          ............                          ",
"                                                                ",
"                                                                ",
"                                                                ",
"                                                                ",
"                                                                ",
};